<svg width="57" height="50" viewBox="0 0 57 50" fill="none" xmlns="http://www.w3.org/2000/svg">
<g clip-path="url(#clip0_1_4)">
<circle cx="28" cy="25" r="25" fill="#EBFF01"/>
<line x1="21.8947" y1="39.8628" x2="21.8947" y2="19.6523" stroke="url(#paint0_linear_1_4)" stroke-width="3.78947"/>
<line x1="20" y1="17.7576" x2="44" y2="17.7576" stroke="url(#paint1_linear_1_4)" stroke-width="3.78947"/>
<line x1="20" y1="12.8696" x2="34.6957" y2="12.8696" stroke="url(#paint2_linear_1_4)" stroke-width="2.26087"/>
<path d="M26.68 38V21.2H31.432V38H26.68ZM34.936 53.776C35.944 53.776 36.856 53.984 37.672 54.4C38.488 54.8 39.128 55.424 39.592 56.272C40.072 57.12 40.312 58.216 40.312 59.56V67H35.752V60.304C35.752 59.376 35.56 58.704 35.176 58.288C34.808 57.856 34.288 57.64 33.616 57.64C33.136 57.64 32.696 57.752 32.296 57.976C31.896 58.184 31.584 58.512 31.36 58.96C31.136 59.408 31.024 59.992 31.024 60.712V67H26.464V53.992H30.808V57.688L29.968 56.608C30.464 55.664 31.144 54.96 32.008 54.496C32.872 54.016 33.848 53.776 34.936 53.776ZM32.272 96.216C30.608 96.216 29.312 95.808 28.384 94.992C27.456 94.16 26.992 92.912 26.992 91.248V80.088H31.552V91.2C31.552 91.664 31.68 92.032 31.936 92.304C32.192 92.56 32.52 92.688 32.92 92.688C33.464 92.688 33.928 92.552 34.312 92.28L35.44 95.472C35.056 95.728 34.584 95.912 34.024 96.024C33.464 96.152 32.88 96.216 32.272 96.216ZM25.096 86.88V83.472H34.528V86.88H25.096ZM33.28 125.216C31.744 125.216 30.4 124.928 29.248 124.352C28.112 123.76 27.224 122.96 26.584 121.952C25.96 120.928 25.648 119.768 25.648 118.472C25.648 117.176 25.952 116.024 26.56 115.016C27.184 113.992 28.04 113.2 29.128 112.64C30.216 112.064 31.44 111.776 32.8 111.776C34.08 111.776 35.248 112.04 36.304 112.568C37.36 113.08 38.2 113.84 38.824 114.848C39.448 115.856 39.76 117.08 39.76 118.52C39.76 118.68 39.752 118.864 39.736 119.072C39.72 119.28 39.704 119.472 39.688 119.648H29.392V117.248H37.264L35.536 117.92C35.552 117.328 35.44 116.816 35.2 116.384C34.976 115.952 34.656 115.616 34.24 115.376C33.84 115.136 33.368 115.016 32.824 115.016C32.28 115.016 31.8 115.136 31.384 115.376C30.984 115.616 30.672 115.96 30.448 116.408C30.224 116.84 30.112 117.352 30.112 117.944V118.64C30.112 119.28 30.24 119.832 30.496 120.296C30.768 120.76 31.152 121.12 31.648 121.376C32.144 121.616 32.736 121.736 33.424 121.736C34.064 121.736 34.608 121.648 35.056 121.472C35.52 121.28 35.976 120.992 36.424 120.608L38.824 123.104C38.2 123.792 37.432 124.32 36.52 124.688C35.608 125.04 34.528 125.216 33.28 125.216ZM26.464 154V140.992H30.808V144.784L30.16 143.704C30.544 142.728 31.168 142 32.032 141.52C32.896 141.024 33.944 140.776 35.176 140.776V144.88C34.968 144.848 34.784 144.832 34.624 144.832C34.48 144.816 34.32 144.808 34.144 144.808C33.216 144.808 32.464 145.064 31.888 145.576C31.312 146.072 31.024 146.888 31.024 148.024V154H26.464ZM26.464 183V169.992H31.024V183H26.464ZM28.744 168.552C27.912 168.552 27.24 168.32 26.728 167.856C26.216 167.392 25.96 166.816 25.96 166.128C25.96 165.44 26.216 164.864 26.728 164.4C27.24 163.936 27.912 163.704 28.744 163.704C29.576 163.704 30.248 163.928 30.76 164.376C31.272 164.808 31.528 165.368 31.528 166.056C31.528 166.776 31.272 167.376 30.76 167.856C30.264 168.32 29.592 168.552 28.744 168.552ZM32.992 212.216C31.568 212.216 30.304 211.928 29.2 211.352C28.096 210.776 27.224 209.984 26.584 208.976C25.96 207.952 25.648 206.784 25.648 205.472C25.648 204.16 25.96 203 26.584 201.992C27.224 200.984 28.096 200.2 29.2 199.64C30.304 199.064 31.568 198.776 32.992 198.776C34.416 198.776 35.68 199.064 36.784 199.64C37.904 200.2 38.776 200.984 39.4 201.992C40.024 203 40.336 204.16 40.336 205.472C40.336 206.784 40.024 207.952 39.4 208.976C38.776 209.984 37.904 210.776 36.784 211.352C35.68 211.928 34.416 212.216 32.992 212.216ZM32.992 208.592C33.52 208.592 33.984 208.472 34.384 208.232C34.8 207.992 35.128 207.64 35.368 207.176C35.608 206.696 35.728 206.128 35.728 205.472C35.728 204.816 35.608 204.264 35.368 203.816C35.128 203.352 34.8 203 34.384 202.76C33.984 202.52 33.52 202.4 32.992 202.4C32.48 202.4 32.016 202.52 31.6 202.76C31.2 203 30.872 203.352 30.616 203.816C30.376 204.264 30.256 204.816 30.256 205.472C30.256 206.128 30.376 206.696 30.616 207.176C30.872 207.64 31.2 207.992 31.6 208.232C32.016 208.472 32.48 208.592 32.992 208.592ZM26.464 241V227.992H30.808V231.784L30.16 230.704C30.544 229.728 31.168 229 32.032 228.52C32.896 228.024 33.944 227.776 35.176 227.776V231.88C34.968 231.848 34.784 231.832 34.624 231.832C34.48 231.816 34.32 231.808 34.144 231.808C33.216 231.808 32.464 232.064 31.888 232.576C31.312 233.072 31.024 233.888 31.024 235.024V241H26.464ZM33.28 270.216C31.744 270.216 30.4 269.928 29.248 269.352C28.112 268.76 27.224 267.96 26.584 266.952C25.96 265.928 25.648 264.768 25.648 263.472C25.648 262.176 25.952 261.024 26.56 260.016C27.184 258.992 28.04 258.2 29.128 257.64C30.216 257.064 31.44 256.776 32.8 256.776C34.08 256.776 35.248 257.04 36.304 257.568C37.36 258.08 38.2 258.84 38.824 259.848C39.448 260.856 39.76 262.08 39.76 263.52C39.76 263.68 39.752 263.864 39.736 264.072C39.72 264.28 39.704 264.472 39.688 264.648H29.392V262.248H37.264L35.536 262.92C35.552 262.328 35.44 261.816 35.2 261.384C34.976 260.952 34.656 260.616 34.24 260.376C33.84 260.136 33.368 260.016 32.824 260.016C32.28 260.016 31.8 260.136 31.384 260.376C30.984 260.616 30.672 260.96 30.448 261.408C30.224 261.84 30.112 262.352 30.112 262.944V263.64C30.112 264.28 30.24 264.832 30.496 265.296C30.768 265.76 31.152 266.12 31.648 266.376C32.144 266.616 32.736 266.736 33.424 266.736C34.064 266.736 34.608 266.648 35.056 266.472C35.52 266.28 35.976 265.992 36.424 265.608L38.824 268.104C38.2 268.792 37.432 269.32 36.52 269.688C35.608 270.04 34.528 270.216 33.28 270.216ZM31.192 299.216C30.088 299.216 29.008 299.088 27.952 298.832C26.912 298.576 26.072 298.256 25.432 297.872L26.8 294.752C27.408 295.12 28.12 295.416 28.936 295.64C29.752 295.848 30.552 295.952 31.336 295.952C32.104 295.952 32.632 295.872 32.92 295.712C33.224 295.552 33.376 295.336 33.376 295.064C33.376 294.808 33.232 294.624 32.944 294.512C32.672 294.384 32.304 294.288 31.84 294.224C31.392 294.16 30.896 294.088 30.352 294.008C29.808 293.928 29.256 293.824 28.696 293.696C28.152 293.552 27.648 293.344 27.184 293.072C26.736 292.784 26.376 292.4 26.104 291.92C25.832 291.44 25.696 290.832 25.696 290.096C25.696 289.264 25.936 288.528 26.416 287.888C26.912 287.232 27.632 286.72 28.576 286.352C29.52 285.968 30.672 285.776 32.032 285.776C32.944 285.776 33.864 285.872 34.792 286.064C35.736 286.24 36.528 286.512 37.168 286.88L35.8 289.976C35.16 289.608 34.52 289.36 33.88 289.232C33.24 289.088 32.632 289.016 32.056 289.016C31.288 289.016 30.744 289.104 30.424 289.28C30.12 289.456 29.968 289.672 29.968 289.928C29.968 290.184 30.104 290.384 30.376 290.528C30.648 290.656 31.008 290.76 31.456 290.84C31.92 290.904 32.424 290.976 32.968 291.056C33.512 291.12 34.056 291.224 34.6 291.368C35.16 291.512 35.664 291.728 36.112 292.016C36.576 292.288 36.944 292.664 37.216 293.144C37.488 293.608 37.624 294.208 37.624 294.944C37.624 295.744 37.376 296.464 36.88 297.104C36.4 297.744 35.68 298.256 34.72 298.64C33.776 299.024 32.6 299.216 31.192 299.216ZM28.384 328.216C27.616 328.216 26.968 327.96 26.44 327.448C25.912 326.936 25.648 326.288 25.648 325.504C25.648 324.688 25.912 324.04 26.44 323.56C26.968 323.064 27.616 322.816 28.384 322.816C29.152 322.816 29.8 323.064 30.328 323.56C30.856 324.04 31.12 324.688 31.12 325.504C31.12 326.288 30.856 326.936 30.328 327.448C29.8 327.96 29.152 328.216 28.384 328.216ZM24.664 357L32.08 340.2H36.76L44.2 357H39.256L33.448 342.528H35.32L29.512 357H24.664ZM28.72 353.736L29.944 350.232H38.152L39.376 353.736H28.72ZM26.464 386V372.992H31.024V386H26.464ZM28.744 371.552C27.912 371.552 27.24 371.32 26.728 370.856C26.216 370.392 25.96 369.816 25.96 369.128C25.96 368.44 26.216 367.864 26.728 367.4C27.24 366.936 27.912 366.704 28.744 366.704C29.576 366.704 30.248 366.928 30.76 367.376C31.272 367.808 31.528 368.368 31.528 369.056C31.528 369.776 31.272 370.376 30.76 370.856C30.264 371.32 29.592 371.552 28.744 371.552Z" fill="url(#paint3_linear_1_4)"/>
</g>
<defs>
<linearGradient id="paint0_linear_1_4" x1="24.2894" y1="39.8628" x2="24.2894" y2="19.6523" gradientUnits="userSpaceOnUse">
<stop stop-color="#4E6AFF"/>
<stop offset="1"/>
</linearGradient>
<linearGradient id="paint1_linear_1_4" x1="20" y1="20.1523" x2="44" y2="20.1523" gradientUnits="userSpaceOnUse">
<stop stop-color="#4E6AFF"/>
<stop offset="1"/>
</linearGradient>
<linearGradient id="paint2_linear_1_4" x1="20" y1="14.5" x2="34.6957" y2="14.5" gradientUnits="userSpaceOnUse">
<stop stop-color="#4E6AFF"/>
<stop offset="1"/>
</linearGradient>
<linearGradient id="paint3_linear_1_4" x1="25" y1="203.5" x2="38" y2="203.5" gradientUnits="userSpaceOnUse">
<stop stop-color="#4E6AFF"/>
<stop offset="1"/>
</linearGradient>
<clipPath id="clip0_1_4">
<rect width="57" height="50" fill="white"/>
</clipPath>
</defs>
</svg>
