<svg xmlns="http://www.w3.org/2000/svg" width="136" height="136" viewBox="0 0 136 136" fill="none">
<circle cx="68" cy="68" r="68" fill="#FFD659"/>
<circle cx="68" cy="68" r="68" fill="url(#paint0_radial_2006_9111)" style="mix-blend-mode:overlay"/>
<circle cx="68" cy="68" r="68" fill="url(#paint1_radial_2006_9111)" style="mix-blend-mode:overlay"/>
<circle cx="68" cy="68" r="67.5" stroke="white" stroke-opacity="0.05"/>
<path d="M71.9037 112.405L74.813 123H72.9812L71.1802 116.019C71.1494 115.906 71.1135 115.751 71.0724 115.555C71.0314 115.36 70.9955 115.154 70.9647 114.938C70.9236 114.732 70.8877 114.541 70.8569 114.366H70.7646C70.7338 114.5 70.7081 114.644 70.6876 114.799C70.6671 114.953 70.6414 115.108 70.6106 115.262C70.5799 115.416 70.5542 115.561 70.5337 115.694C70.5029 115.828 70.4824 115.936 70.4721 116.019L68.8096 123H66.593L64.9151 116.019C64.8844 115.906 64.8484 115.751 64.8074 115.555C64.7663 115.36 64.7304 115.154 64.6996 114.938C64.6586 114.732 64.6227 114.541 64.5919 114.366H64.4995C64.479 114.49 64.4533 114.629 64.4226 114.783C64.3918 114.938 64.361 115.087 64.3302 115.231C64.2994 115.386 64.2686 115.53 64.2378 115.664C64.1968 115.797 64.166 115.916 64.1455 116.019L62.3445 123H60.7128L63.6221 112.405H65.6386L67.4088 119.479C67.4396 119.633 67.4755 119.808 67.5166 120.004C67.5576 120.21 67.5987 120.416 67.6397 120.621C67.6705 120.838 67.6962 121.023 67.7167 121.177H67.7937C67.8142 121.013 67.8399 120.822 67.8706 120.606C67.9014 120.39 67.9373 120.179 67.9784 119.973C68.0194 119.777 68.0554 119.612 68.0861 119.479L69.8256 112.405H71.9037Z" fill="#0E3152"/>
<path d="M57.1491 111.054L54.416 121.288L52.7507 120.84L55.4838 110.606L57.1491 111.054Z" fill="#0E3152"/>
<path d="M46.6341 106.897L42.0931 114.789L45.1192 116.542L44.3804 117.826L36.8084 113.439L37.5473 112.155L40.6001 113.924L45.1411 106.032L46.6341 106.897Z" fill="#0E3152"/>
<path d="M39.8214 102.524L32.3545 110.016L31.1789 108.837L32.4525 100.722C32.4525 100.635 32.467 100.526 32.496 100.395C32.5178 100.256 32.5432 100.122 32.5722 99.9907C32.6012 99.8596 32.6302 99.7577 32.6593 99.6849L32.6048 99.6303C32.496 99.7395 32.3908 99.8451 32.2892 99.947C32.1876 100.049 32.086 100.151 31.9844 100.253L27.304 104.949L26.1285 103.769L33.5953 96.2774L34.7273 97.4133L33.443 105.626C33.4139 105.772 33.3776 105.954 33.3341 106.172C33.2833 106.398 33.2434 106.569 33.2144 106.685L33.2688 106.74C33.3704 106.638 33.4756 106.533 33.5845 106.423C33.686 106.321 33.7949 106.212 33.911 106.096L38.6458 101.345L39.8214 102.524Z" fill="#0E3152"/>
<path d="M31.6436 93.6254L22.4985 98.923L18.4039 91.8071L19.6837 91.0657L22.9163 96.6836L25.4625 95.2086L22.5686 90.1792L23.8483 89.4379L26.7423 94.4672L29.5018 92.8686L26.223 87.1705L27.5028 86.4292L31.6436 93.6254Z" fill="#0E3152"/>
<path d="M25.4305 79.4443C25.5793 80.0012 25.6632 80.5543 25.6824 81.1035C25.7115 81.65 25.6552 82.1554 25.5136 82.6199C25.3622 83.087 25.1237 83.4869 24.7982 83.8196C24.4628 84.155 24.0225 84.3959 23.4773 84.5425C23.4178 84.5585 23.3633 84.5732 23.3137 84.5865C23.2516 84.5925 23.2007 84.6009 23.1611 84.6115L22.7148 82.9406C22.7446 82.9326 22.7905 82.9256 22.8526 82.9196C22.9121 82.9036 22.9617 82.8903 23.0013 82.8796C23.3681 82.781 23.6511 82.5876 23.8504 82.2995C24.0497 82.0114 24.162 81.6561 24.1873 81.2336C24.2099 80.8011 24.1535 80.3313 24.018 79.824C23.9436 79.5455 23.8571 79.281 23.7583 79.0304C23.6495 78.7825 23.5326 78.5634 23.4075 78.3732C23.2697 78.1757 23.1251 78.012 22.9736 77.8822C22.8121 77.7551 22.6401 77.6681 22.4576 77.6212C22.2751 77.5743 22.0798 77.5789 21.8716 77.6348C21.5544 77.7201 21.317 77.8852 21.1593 78.1301C20.9989 78.3651 20.8919 78.6604 20.8381 79.016C20.7816 79.3616 20.752 79.748 20.7492 80.1752C20.7438 80.5924 20.7423 81.0245 20.7448 81.4715C20.7473 81.9186 20.7274 82.361 20.6849 82.7988C20.6398 83.2267 20.5557 83.6277 20.4325 84.002C20.2968 84.3689 20.0956 84.6895 19.8288 84.9638C19.5495 85.2307 19.1769 85.4268 18.711 85.5521C18.265 85.672 17.8432 85.6841 17.4458 85.5884C17.0484 85.4927 16.6879 85.2965 16.3643 84.9998C16.0308 84.7057 15.7382 84.326 15.4864 83.8607C15.2347 83.3953 15.0251 82.8494 14.8578 82.2228C14.7144 81.6857 14.6384 81.1625 14.6299 80.6531C14.6114 80.1464 14.6733 79.682 14.8156 79.26C14.9579 78.838 15.1858 78.4782 15.4995 78.1807C15.8105 77.8732 16.2187 77.6516 16.7243 77.5156L16.9027 77.4677L17.3449 79.1237L17.1516 79.1756C16.8344 79.2609 16.592 79.4273 16.4244 79.6749C16.2568 79.9226 16.1587 80.2314 16.13 80.6016C16.1014 80.9717 16.1468 81.3806 16.2663 81.8281C16.4071 82.3552 16.5798 82.7832 16.7845 83.1119C16.9792 83.4433 17.196 83.6782 17.4348 83.8165C17.661 83.9476 17.903 83.9785 18.1607 83.9092C18.4482 83.8319 18.6609 83.6734 18.7987 83.4338C18.9267 83.1969 19.0139 82.9069 19.0605 82.564C19.1043 82.2111 19.129 81.826 19.1344 81.4088C19.1273 80.9843 19.1288 80.5522 19.1389 80.1124C19.1363 79.6654 19.1576 79.2279 19.2027 78.8001C19.2452 78.3623 19.3343 77.9599 19.47 77.5929C19.6031 77.216 19.8079 76.8891 20.0846 76.6122C20.3513 76.338 20.7176 76.1382 21.1835 76.0129C21.9171 75.8157 22.5659 75.8385 23.1301 76.0813C23.6843 76.3267 24.1518 76.7446 24.5326 77.3351C24.9108 77.9157 25.2101 78.6187 25.4305 79.4443Z" fill="#0E3152"/>
<path d="M23.9292 67.9994C23.9292 68.576 23.8676 69.132 23.7445 69.6675C23.6316 70.2029 23.4469 70.6765 23.1903 71.0884C22.9235 71.5003 22.59 71.8246 22.1898 72.0614C21.7793 72.2983 21.2918 72.4167 20.7274 72.4167C20.6658 72.4167 20.6094 72.4167 20.5581 72.4167C20.4965 72.4064 20.4452 72.4012 20.4041 72.4012V70.6714C20.4349 70.6714 20.4811 70.6765 20.5427 70.6868C20.6043 70.6868 20.6556 70.6868 20.6966 70.6868C21.0763 70.6868 21.3996 70.5736 21.6664 70.347C21.9332 70.1205 22.1333 69.8065 22.2667 69.4049C22.4001 68.993 22.4668 68.5245 22.4668 67.9994C22.4668 67.7111 22.4514 67.4331 22.4207 67.1654C22.3796 66.8976 22.3232 66.6557 22.2513 66.4394C22.1692 66.2129 22.0717 66.0173 21.9589 65.8525C21.8357 65.6878 21.692 65.5591 21.5278 65.4664C21.3637 65.3737 21.1738 65.3274 20.9583 65.3274C20.6299 65.3274 20.358 65.4252 20.1425 65.6208C19.927 65.8062 19.7474 66.0636 19.6037 66.3931C19.46 66.7123 19.3317 67.0778 19.2189 67.4897C19.106 67.8913 18.9931 68.3083 18.8802 68.7408C18.7673 69.1732 18.6339 69.5954 18.48 70.0073C18.3261 70.4088 18.1413 70.7744 17.9258 71.1039C17.7001 71.4231 17.423 71.6805 17.0946 71.8761C16.7559 72.0614 16.3455 72.1541 15.8631 72.1541C15.4013 72.1541 14.9909 72.0563 14.6317 71.8607C14.2725 71.665 13.9749 71.3819 13.7389 71.0112C13.4926 70.6405 13.3079 70.1977 13.1847 69.6829C13.0616 69.1681 13 68.5863 13 67.9376C13 67.3816 13.0616 66.8565 13.1847 66.3622C13.2976 65.868 13.4772 65.4355 13.7235 65.0648C13.9698 64.6941 14.2828 64.4058 14.6625 64.1999C15.0422 63.9837 15.4937 63.8755 16.0171 63.8755H16.2018V65.59H16.0017C15.6733 65.59 15.3962 65.6878 15.1704 65.8834C14.9447 66.079 14.7702 66.3519 14.6471 66.702C14.5239 67.0521 14.4624 67.4588 14.4624 67.9222C14.4624 68.4679 14.5188 68.9261 14.6317 69.2968C14.7343 69.6675 14.8831 69.9506 15.0781 70.1463C15.2628 70.3316 15.4886 70.4243 15.7554 70.4243C16.053 70.4243 16.2993 70.3265 16.4943 70.1308C16.679 69.9352 16.838 69.6778 16.9715 69.3586C17.1049 69.0291 17.228 68.6635 17.3409 68.262C17.4435 67.8501 17.5564 67.4331 17.6795 67.0109C17.7924 66.5784 17.9258 66.1614 18.0798 65.7598C18.2337 65.348 18.4235 64.9824 18.6493 64.6632C18.8751 64.3338 19.1573 64.0712 19.4959 63.8755C19.8243 63.6799 20.2297 63.5821 20.712 63.5821C21.4714 63.5821 22.0923 63.7726 22.5746 64.1536C23.0466 64.5345 23.3904 65.0597 23.6059 65.729C23.8214 66.3879 23.9292 67.1448 23.9292 67.9994Z" fill="#0E3152"/>
<path d="M29.2335 46.5621L21.3682 42.0058L19.6211 45.0421L18.3413 44.3007L22.713 36.7032L23.9928 37.4446L22.2302 40.5077L30.0955 45.064L29.2335 46.5621Z" fill="#0E3152"/>
<path d="M33.5914 39.7267L26.1245 32.2347L27.3436 31.0115L30.4675 34.1459L34.2553 30.3453L31.1315 27.2109L32.3505 25.9877L39.8174 33.4797L38.5983 34.7029L35.3003 31.3937L31.5124 35.1944L34.8105 38.5035L33.5914 39.7267Z" fill="#0E3152"/>
<path d="M42.4605 31.5207L37.1807 22.3449L44.2727 18.2365L45.0116 19.5206L39.4126 22.7641L40.8827 25.3189L45.8951 22.4152L46.634 23.6993L41.6215 26.6029L43.2147 29.3717L48.8937 26.0819L49.6326 27.366L42.4605 31.5207Z" fill="#0E3152"/>
<path d="M62.7378 23.5953V13H65.4316L67.4789 19.4252C67.5405 19.6105 67.6021 19.8216 67.6636 20.0584C67.7252 20.2952 67.7816 20.5218 67.833 20.738C67.8945 20.9542 67.9407 21.1447 67.9715 21.3095H68.0946C68.1152 21.155 68.1511 20.9697 68.2024 20.7534C68.2537 20.5372 68.305 20.3107 68.3563 20.0739C68.4179 19.837 68.4795 19.6157 68.541 19.4097L70.6037 13H73.2514V23.5953H71.5427V17.788C71.5427 17.3967 71.5479 16.99 71.5581 16.5678C71.5684 16.1457 71.5786 15.7698 71.5889 15.4403C71.5992 15.1108 71.6043 14.8997 71.6043 14.8071H71.4811C71.4606 14.9203 71.4093 15.116 71.3272 15.394C71.2554 15.6617 71.1784 15.95 71.0963 16.2589C71.0142 16.5678 70.9373 16.8355 70.8654 17.0621L68.7258 23.5953H67.2018L65.0622 17.0775C65.0006 16.8819 64.9339 16.6502 64.8621 16.3825C64.7902 16.1148 64.7184 15.8419 64.6466 15.5639C64.5747 15.2859 64.5131 15.0336 64.4618 14.8071H64.3387C64.349 15.0542 64.3541 15.358 64.3541 15.7183C64.3643 16.0787 64.3746 16.4443 64.3849 16.8149C64.3951 17.1753 64.4003 17.4997 64.4003 17.788V23.5953H62.7378Z" fill="#0E3152"/>
<path d="M74.6068 23.8051L81.3395 14.6461L83.4658 15.2178L84.7472 26.5314L82.963 26.0517L82.6895 23.4358L77.8571 22.1366L76.3167 24.2648L74.6068 23.8051ZM78.7709 20.8632L82.5178 21.8706L82.1737 18.5641C82.1679 18.4666 82.1565 18.3303 82.1395 18.1551C82.1225 17.98 82.1046 17.7886 82.0857 17.581C82.0766 17.376 82.0627 17.1697 82.0438 16.9621C82.0374 16.7472 82.0307 16.5535 82.0236 16.3811L81.9344 16.3571C81.8245 16.5301 81.6904 16.7339 81.5321 16.9685C81.3738 17.2031 81.2182 17.4277 81.0653 17.6425C80.9222 17.8598 80.801 18.0351 80.7017 18.1683L78.7709 20.8632Z" fill="#0E3152"/>
<path d="M89.9626 29.6627C88.514 28.8236 87.6193 27.794 87.2785 26.5741C86.9466 25.3593 87.2501 23.9359 88.1891 22.3041C88.8048 21.234 89.495 20.4568 90.2596 19.9723C91.0293 19.4789 91.8608 19.2591 92.7542 19.3129C93.6475 19.3667 94.5918 19.6819 95.5872 20.2586C96.1827 20.6035 96.6952 20.9896 97.1248 21.4168C97.5633 21.8492 97.8941 22.3142 98.1172 22.8121C98.3543 23.3061 98.457 23.8174 98.4254 24.346C98.4027 24.8798 98.2297 25.4276 97.9064 25.9893L96.3867 25.109C96.5868 24.7612 96.6876 24.4213 96.6891 24.0892C96.7046 23.7534 96.6366 23.4287 96.4853 23.1151C96.3428 22.8067 96.1277 22.5216 95.8399 22.2597C95.5661 21.9941 95.2471 21.7558 94.8827 21.5447C94.3761 21.2512 93.8844 21.0556 93.4075 20.9576C92.9395 20.8649 92.4926 20.8795 92.067 21.0015C91.6413 21.1234 91.2412 21.3554 90.8667 21.6973C90.4923 22.0392 90.1408 22.4954 89.8124 23.0661L89.6508 23.347C89.1993 24.1318 88.9435 24.8337 88.8835 25.4528C88.8323 26.0772 88.9622 26.6339 89.2732 27.1232C89.5982 27.6087 90.085 28.0394 90.7338 28.4152C91.347 28.7704 91.9138 28.9799 92.4341 29.0435C92.9545 29.1071 93.4258 29.0294 93.8481 28.8103C94.2755 28.5824 94.6406 28.2053 94.9433 27.6792L95.0203 27.5454L91.9408 25.7615L92.6566 24.5176L97.2291 27.1664L94.4275 32.0352L93.3477 31.4097L93.8322 30.2279C93.4141 30.378 92.9911 30.4541 92.5634 30.456C92.1409 30.449 91.7128 30.3794 91.2794 30.2472C90.8548 30.1201 90.4159 29.9253 89.9626 29.6627Z" fill="#0E3152"/>
<path d="M98.8515 36.1579L106.318 28.6659L107.537 29.8891L100.071 37.3811L98.8515 36.1579Z" fill="#0E3152"/>
<path d="M106.287 46.1003C105.749 45.164 105.454 44.2706 105.403 43.4203C105.366 42.5737 105.599 41.7731 106.101 41.0186C106.603 40.2641 107.396 39.5729 108.48 38.9448C110.08 38.018 111.489 37.7186 112.709 38.0465C113.943 38.3782 114.96 39.2396 115.76 40.6307C116.201 41.3975 116.467 42.1588 116.559 42.9145C116.655 43.6791 116.545 44.3846 116.23 45.0309C115.929 45.6811 115.383 46.2353 114.592 46.6935L113.714 45.1686C114.203 44.8855 114.553 44.5461 114.764 44.1505C114.974 43.7549 115.054 43.3165 115.002 42.8352C114.956 42.3629 114.789 41.877 114.501 41.3777C114.142 40.7535 113.712 40.295 113.212 40.0022C112.726 39.7132 112.174 39.5988 111.557 39.659C110.945 39.7281 110.261 39.9815 109.506 40.4191L109.213 40.589C108.457 41.0266 107.897 41.494 107.531 41.9912C107.171 42.4973 106.994 43.0339 107 43.6009C107.015 44.1628 107.205 44.7603 107.569 45.3934C107.867 45.9106 108.206 46.3146 108.586 46.6054C108.976 46.891 109.394 47.0411 109.841 47.0557C110.293 47.0792 110.763 46.9494 111.252 46.6662L112.099 48.1376C111.308 48.5958 110.552 48.7958 109.831 48.7378C109.116 48.6886 108.456 48.4284 107.854 47.9573C107.256 47.4951 106.734 46.8761 106.287 46.1003Z" fill="#0E3152"/>
<path d="M112.071 67.9911C112.071 66.8996 112.271 65.9523 112.671 65.1492C113.071 64.3563 113.677 63.7437 114.488 63.3112C115.298 62.8891 116.314 62.678 117.535 62.678C118.767 62.678 119.783 62.8891 120.583 63.3112C121.394 63.7437 121.999 64.3563 122.4 65.1492C122.8 65.9523 123 66.8996 123 67.9911C123 69.1031 122.8 70.0556 122.4 70.8484C121.999 71.6413 121.394 72.2488 120.583 72.671C119.783 73.1034 118.767 73.3197 117.535 73.3197C116.314 73.3197 115.298 73.1034 114.488 72.671C113.677 72.2488 113.071 71.6413 112.671 70.8484C112.271 70.0556 112.071 69.1031 112.071 67.9911ZM113.533 67.9911C113.533 68.5574 113.61 69.0568 113.764 69.4893C113.918 69.932 114.154 70.3027 114.472 70.6013C114.79 70.9102 115.191 71.1419 115.673 71.2963C116.155 71.4611 116.714 71.5435 117.351 71.5435H117.689C118.346 71.5435 118.916 71.4611 119.398 71.2963C119.88 71.1419 120.281 70.9102 120.599 70.6013C120.917 70.3027 121.153 69.932 121.307 69.4893C121.461 69.0568 121.538 68.5574 121.538 67.9911C121.538 67.4351 121.461 66.9357 121.307 66.4929C121.153 66.0605 120.917 65.6898 120.599 65.3809C120.281 65.0823 119.88 64.8557 119.398 64.7013C118.916 64.5468 118.346 64.4696 117.689 64.4696H117.351C116.714 64.4696 116.155 64.5468 115.673 64.7013C115.191 64.8557 114.79 65.0823 114.472 65.3809C114.154 65.6898 113.918 66.0605 113.764 66.4929C113.61 66.9357 113.533 67.4351 113.533 67.9911Z" fill="#0E3152"/>
<path d="M111.642 76.1411L121.842 78.8834L119.89 86.1936L118.463 85.8098L119.969 80.1705L116.95 79.359L115.588 84.4613L114.175 84.0815L115.538 78.9793L111.196 77.812L111.642 76.1411Z" fill="#0E3152"/>
<path d="M102.842 95.8382L107.381 106.268L105.825 107.83L95.4189 103.287L96.725 101.976L99.1197 103.046L102.657 99.4968L101.59 97.0941L102.842 95.8382ZM103.299 100.928L100.556 103.68L103.582 105.034C103.669 105.078 103.793 105.136 103.952 105.209C104.112 105.281 104.286 105.362 104.475 105.449C104.656 105.544 104.841 105.635 105.03 105.722C105.219 105.824 105.389 105.915 105.542 105.995L105.607 105.929C105.513 105.747 105.404 105.529 105.28 105.274C105.157 105.019 105.041 104.772 104.932 104.532C104.816 104.299 104.725 104.106 104.66 103.953L103.299 100.928Z" fill="#0E3152"/>
<path d="M90.6689 106.142L95.9487 115.318L94.4557 116.183L89.1758 107.007L90.6689 106.142Z" fill="#0E3152"/>
<defs>
<radialGradient id="paint0_radial_2006_9111" cx="0" cy="0" r="1" gradientUnits="userSpaceOnUse" gradientTransform="translate(68 68) rotate(90) scale(116)">
<stop stop-color="white"/>
<stop offset="1" stop-color="white" stop-opacity="0"/>
</radialGradient>
<radialGradient id="paint1_radial_2006_9111" cx="0" cy="0" r="1" gradientUnits="userSpaceOnUse" gradientTransform="translate(68 68) rotate(90) scale(116)">
<stop stop-color="white"/>
<stop offset="1" stop-color="white" stop-opacity="0"/>
</radialGradient>
</defs>
</svg>