<svg width="259" height="50" viewBox="0 0 259 50" fill="none" xmlns="http://www.w3.org/2000/svg">
<line x1="21.8947" y1="39.8628" x2="21.8947" y2="19.6523" stroke="url(#paint0_linear_1_4)" stroke-width="3.78947"/>
<line x1="20" y1="17.7576" x2="44" y2="17.7576" stroke="url(#paint1_linear_1_4)" stroke-width="3.78947"/>
<line x1="20" y1="12.8696" x2="34.6957" y2="12.8696" stroke="url(#paint2_linear_1_4)" stroke-width="2.26087"/>
<path d="M26.68 38V21.2H31.432V38H26.68ZM43.0688 24.776C44.0768 24.776 44.9888 24.984 45.8048 25.4C46.6208 25.8 47.2608 26.424 47.7248 27.272C48.2048 28.12 48.4448 29.216 48.4448 30.56V38H43.8848V31.304C43.8848 30.376 43.6928 29.704 43.3088 29.288C42.9408 28.856 42.4208 28.64 41.7488 28.64C41.2688 28.64 40.8288 28.752 40.4288 28.976C40.0288 29.184 39.7168 29.512 39.4928 29.96C39.2688 30.408 39.1568 30.992 39.1568 31.712V38H34.5968V24.992H38.9408V28.688L38.1008 27.608C38.5968 26.664 39.2768 25.96 40.1408 25.496C41.0048 25.016 41.9808 24.776 43.0688 24.776ZM57.1158 38.216C55.4518 38.216 54.1558 37.808 53.2278 36.992C52.2998 36.16 51.8358 34.912 51.8358 33.248V22.088H56.3958V33.2C56.3958 33.664 56.5238 34.032 56.7798 34.304C57.0358 34.56 57.3638 34.688 57.7638 34.688C58.3078 34.688 58.7718 34.552 59.1558 34.28L60.2838 37.472C59.8998 37.728 59.4278 37.912 58.8678 38.024C58.3078 38.152 57.7238 38.216 57.1158 38.216ZM49.9398 28.88V25.472H59.3718V28.88H49.9398ZM68.4831 38.216C66.9471 38.216 65.6031 37.928 64.4511 37.352C63.3151 36.76 62.4271 35.96 61.7871 34.952C61.1631 33.928 60.8511 32.768 60.8511 31.472C60.8511 30.176 61.1551 29.024 61.7631 28.016C62.3871 26.992 63.2431 26.2 64.3311 25.64C65.4191 25.064 66.6431 24.776 68.0031 24.776C69.2831 24.776 70.4511 25.04 71.5071 25.568C72.5631 26.08 73.4031 26.84 74.0271 27.848C74.6511 28.856 74.9631 30.08 74.9631 31.52C74.9631 31.68 74.9551 31.864 74.9391 32.072C74.9231 32.28 74.9071 32.472 74.8911 32.648H64.5951V30.248H72.4671L70.7391 30.92C70.7551 30.328 70.6431 29.816 70.4031 29.384C70.1791 28.952 69.8591 28.616 69.4431 28.376C69.0431 28.136 68.5711 28.016 68.0271 28.016C67.4831 28.016 67.0031 28.136 66.5871 28.376C66.1871 28.616 65.8751 28.96 65.6511 29.408C65.4271 29.84 65.3151 30.352 65.3151 30.944V31.64C65.3151 32.28 65.4431 32.832 65.6991 33.296C65.9711 33.76 66.3551 34.12 66.8511 34.376C67.3471 34.616 67.9391 34.736 68.6271 34.736C69.2671 34.736 69.8111 34.648 70.2591 34.472C70.7231 34.28 71.1791 33.992 71.6271 33.608L74.0271 36.104C73.4031 36.792 72.6351 37.32 71.7231 37.688C70.8111 38.04 69.7311 38.216 68.4831 38.216ZM77.0656 38V24.992H81.4096V28.784L80.7616 27.704C81.1456 26.728 81.7696 26 82.6336 25.52C83.4976 25.024 84.5456 24.776 85.7776 24.776V28.88C85.5696 28.848 85.3856 28.832 85.2256 28.832C85.0816 28.816 84.9216 28.808 84.7456 28.808C83.8176 28.808 83.0656 29.064 82.4896 29.576C81.9136 30.072 81.6256 30.888 81.6256 32.024V38H77.0656ZM87.6593 38V24.992H92.2193V38H87.6593ZM89.9393 23.552C89.1073 23.552 88.4353 23.32 87.9233 22.856C87.4113 22.392 87.1553 21.816 87.1553 21.128C87.1553 20.44 87.4113 19.864 87.9233 19.4C88.4353 18.936 89.1073 18.704 89.9393 18.704C90.7713 18.704 91.4433 18.928 91.9553 19.376C92.4673 19.808 92.7233 20.368 92.7233 21.056C92.7233 21.776 92.4673 22.376 91.9553 22.856C91.4593 23.32 90.7873 23.552 89.9393 23.552ZM101.711 38.216C100.287 38.216 99.0228 37.928 97.9188 37.352C96.8148 36.776 95.9428 35.984 95.3027 34.976C94.6788 33.952 94.3668 32.784 94.3668 31.472C94.3668 30.16 94.6788 29 95.3027 27.992C95.9428 26.984 96.8148 26.2 97.9188 25.64C99.0228 25.064 100.287 24.776 101.711 24.776C103.135 24.776 104.399 25.064 105.503 25.64C106.623 26.2 107.495 26.984 108.119 27.992C108.743 29 109.055 30.16 109.055 31.472C109.055 32.784 108.743 33.952 108.119 34.976C107.495 35.984 106.623 36.776 105.503 37.352C104.399 37.928 103.135 38.216 101.711 38.216ZM101.711 34.592C102.239 34.592 102.703 34.472 103.103 34.232C103.519 33.992 103.847 33.64 104.087 33.176C104.327 32.696 104.447 32.128 104.447 31.472C104.447 30.816 104.327 30.264 104.087 29.816C103.847 29.352 103.519 29 103.103 28.76C102.703 28.52 102.239 28.4 101.711 28.4C101.199 28.4 100.735 28.52 100.319 28.76C99.9188 29 99.5908 29.352 99.3348 29.816C99.0948 30.264 98.9748 30.816 98.9748 31.472C98.9748 32.128 99.0948 32.696 99.3348 33.176C99.5908 33.64 99.9188 33.992 100.319 34.232C100.735 34.472 101.199 34.592 101.711 34.592ZM111.167 38V24.992H115.511V28.784L114.863 27.704C115.247 26.728 115.871 26 116.735 25.52C117.599 25.024 118.647 24.776 119.879 24.776V28.88C119.671 28.848 119.487 28.832 119.327 28.832C119.183 28.816 119.023 28.808 118.847 28.808C117.919 28.808 117.167 29.064 116.591 29.576C116.015 30.072 115.727 30.888 115.727 32.024V38H111.167ZM128.46 38.216C126.924 38.216 125.58 37.928 124.428 37.352C123.292 36.76 122.404 35.96 121.764 34.952C121.14 33.928 120.828 32.768 120.828 31.472C120.828 30.176 121.132 29.024 121.74 28.016C122.364 26.992 123.22 26.2 124.308 25.64C125.396 25.064 126.62 24.776 127.98 24.776C129.26 24.776 130.428 25.04 131.484 25.568C132.54 26.08 133.38 26.84 134.004 27.848C134.628 28.856 134.94 30.08 134.94 31.52C134.94 31.68 134.932 31.864 134.916 32.072C134.9 32.28 134.884 32.472 134.868 32.648H124.572V30.248H132.444L130.716 30.92C130.732 30.328 130.62 29.816 130.38 29.384C130.156 28.952 129.836 28.616 129.42 28.376C129.02 28.136 128.548 28.016 128.004 28.016C127.46 28.016 126.98 28.136 126.564 28.376C126.164 28.616 125.852 28.96 125.628 29.408C125.404 29.84 125.292 30.352 125.292 30.944V31.64C125.292 32.28 125.42 32.832 125.676 33.296C125.948 33.76 126.332 34.12 126.828 34.376C127.324 34.616 127.916 34.736 128.604 34.736C129.244 34.736 129.788 34.648 130.236 34.472C130.7 34.28 131.156 33.992 131.604 33.608L134.004 36.104C133.38 36.792 132.612 37.32 131.7 37.688C130.788 38.04 129.708 38.216 128.46 38.216ZM141.77 38.216C140.666 38.216 139.586 38.088 138.53 37.832C137.49 37.576 136.65 37.256 136.01 36.872L137.378 33.752C137.986 34.12 138.698 34.416 139.514 34.64C140.33 34.848 141.13 34.952 141.914 34.952C142.682 34.952 143.21 34.872 143.498 34.712C143.802 34.552 143.954 34.336 143.954 34.064C143.954 33.808 143.81 33.624 143.522 33.512C143.25 33.384 142.882 33.288 142.418 33.224C141.97 33.16 141.474 33.088 140.93 33.008C140.386 32.928 139.834 32.824 139.274 32.696C138.73 32.552 138.226 32.344 137.762 32.072C137.314 31.784 136.954 31.4 136.682 30.92C136.41 30.44 136.274 29.832 136.274 29.096C136.274 28.264 136.514 27.528 136.994 26.888C137.49 26.232 138.21 25.72 139.154 25.352C140.098 24.968 141.25 24.776 142.61 24.776C143.522 24.776 144.442 24.872 145.37 25.064C146.314 25.24 147.106 25.512 147.746 25.88L146.378 28.976C145.738 28.608 145.098 28.36 144.458 28.232C143.818 28.088 143.21 28.016 142.634 28.016C141.866 28.016 141.322 28.104 141.002 28.28C140.698 28.456 140.546 28.672 140.546 28.928C140.546 29.184 140.682 29.384 140.954 29.528C141.226 29.656 141.586 29.76 142.034 29.84C142.498 29.904 143.002 29.976 143.546 30.056C144.09 30.12 144.634 30.224 145.178 30.368C145.738 30.512 146.242 30.728 146.69 31.016C147.154 31.288 147.522 31.664 147.794 32.144C148.066 32.608 148.202 33.208 148.202 33.944C148.202 34.744 147.954 35.464 147.458 36.104C146.978 36.744 146.258 37.256 145.298 37.64C144.354 38.024 143.178 38.216 141.77 38.216ZM152.087 38.216C151.319 38.216 150.671 37.96 150.143 37.448C149.615 36.936 149.351 36.288 149.351 35.504C149.351 34.688 149.615 34.04 150.143 33.56C150.671 33.064 151.319 32.816 152.087 32.816C152.855 32.816 153.503 33.064 154.031 33.56C154.559 34.04 154.823 34.688 154.823 35.504C154.823 36.288 154.559 36.936 154.031 37.448C153.503 37.96 152.855 38.216 152.087 38.216ZM155.914 38L163.33 21.2H168.01L175.45 38H170.506L164.698 23.528H166.57L160.762 38H155.914ZM159.97 34.736L161.194 31.232H169.402L170.626 34.736H159.97ZM176.581 38V24.992H181.141V38H176.581ZM178.861 23.552C178.029 23.552 177.357 23.32 176.845 22.856C176.333 22.392 176.077 21.816 176.077 21.128C176.077 20.44 176.333 19.864 176.845 19.4C177.357 18.936 178.029 18.704 178.861 18.704C179.693 18.704 180.365 18.928 180.877 19.376C181.389 19.808 181.645 20.368 181.645 21.056C181.645 21.776 181.389 22.376 180.877 22.856C180.381 23.32 179.709 23.552 178.861 23.552Z" fill="url(#paint3_linear_1_4)"/>
<defs>
<linearGradient id="paint0_linear_1_4" x1="24.2894" y1="39.8628" x2="24.2894" y2="19.6523" gradientUnits="userSpaceOnUse">
<stop stop-color="white"/>
<stop offset="1" stop-color="#00FFF0"/>
</linearGradient>
<linearGradient id="paint1_linear_1_4" x1="20" y1="20.1523" x2="44" y2="20.1523" gradientUnits="userSpaceOnUse">
<stop stop-color="white"/>
<stop offset="1" stop-color="#00FFF0"/>
</linearGradient>
<linearGradient id="paint2_linear_1_4" x1="20" y1="14.5" x2="34.6957" y2="14.5" gradientUnits="userSpaceOnUse">
<stop stop-color="white"/>
<stop offset="1" stop-color="#00FFF0"/>
</linearGradient>
<linearGradient id="paint3_linear_1_4" x1="25" y1="29.5" x2="191" y2="29.5" gradientUnits="userSpaceOnUse">
<stop stop-color="white"/>
<stop offset="1" stop-color="#00FFF0"/>
</linearGradient>
</defs>
</svg>
