<svg width="100" height="100" viewBox="0 0 100 100" fill="none" xmlns="http://www.w3.org/2000/svg">
<path d="M60.0429 55.8893C67.2074 50.8323 79.3747 50.0006 100 49.9994C79.3724 50.0006 67.205 49.1689 60.0405 44.1107C62.4954 38.1442 68.5726 31.4227 78.2792 21.7137C68.5726 31.4227 61.8523 37.501 55.887 39.9559C50.8299 32.7915 49.9982 20.6253 49.9971 0C49.9982 20.6253 49.1678 32.7915 44.1107 39.9559C38.1442 37.4999 31.4238 31.4215 21.7149 21.7137C31.4238 31.4227 37.5022 38.143 39.9583 44.1107C32.7938 49.1689 20.6276 50.0006 0 49.9994C20.6265 50.0006 32.7926 50.8323 39.9571 55.8893C37.501 61.8546 31.4215 68.575 21.7149 78.2816C31.4215 68.575 38.143 62.4978 44.1083 60.0417C49.1666 67.2062 49.9982 79.3724 49.9971 100C49.9982 79.3712 50.8311 67.205 55.8893 60.0405C61.8558 62.4966 68.5774 68.575 78.2851 78.2827C68.5774 68.5762 62.499 61.8558 60.0429 55.8893Z" fill="#FFD659"/>
</svg>
