<svg width="60" height="61" viewBox="0 0 60 61" fill="none" xmlns="http://www.w3.org/2000/svg">
<path d="M58.977 22.9778C63.2652 38.9816 53.7676 55.4319 37.7638 59.7201C21.7599 64.0083 5.31054 54.5105 1.02233 38.5067C-3.26589 22.5028 6.23171 6.05255 22.2346 1.76457C38.2385 -2.52364 54.6885 6.97303 58.977 22.9778Z" fill="#FFD659"/>
<path d="M38.8182 27.591C38.0129 27.8068 37.1809 27.3349 36.9552 26.5293C36.8757 26.2469 36.2174 23.7102 37.4517 21.5431C38.1367 20.3407 39.2849 19.4939 40.7731 19.0951C42.2685 18.6944 43.6885 18.855 44.8803 19.5584C47.0122 20.8177 47.6849 23.3282 47.7547 23.6103C47.9563 24.4282 47.4512 25.2564 46.639 25.4575C45.8211 25.6591 44.9946 25.1604 44.7918 24.3418C44.6819 23.9207 44.1991 22.6926 43.318 22.1793C42.8372 21.8994 42.2626 21.8539 41.5625 22.0415C40.8607 22.2295 40.3828 22.56 40.1031 23.0524C39.4916 24.1262 39.8889 25.6887 39.893 25.7041C40.121 26.515 39.6479 27.3571 38.8362 27.5853C38.83 27.5879 38.8237 27.5896 38.8182 27.591Z" fill="#050D33"/>
<path d="M12.9267 34.5287C12.1214 34.7444 11.2894 34.2725 11.0637 33.4669C10.9842 33.1846 10.3259 30.6478 11.5602 28.4807C12.2452 27.2783 13.3942 26.4313 14.8815 26.0328C16.3769 25.6321 17.797 25.7926 18.9888 26.4961C21.1207 27.7553 21.7934 30.2659 21.8631 30.5479C22.0648 31.3658 21.5606 32.1938 20.7475 32.3951C19.9296 32.5968 19.1031 32.0981 18.9003 31.2795C18.7904 30.8584 18.3076 29.6302 17.4265 29.1169C16.9457 28.837 16.371 28.7915 15.671 28.9791C14.9691 29.1672 14.4913 29.4976 14.2116 29.9901C13.6001 31.0638 13.9974 32.6263 14.0015 32.6418C14.2295 33.4526 13.7564 34.2947 12.9446 34.5229C12.9385 34.5255 12.9322 34.5272 12.9267 34.5287Z" fill="#050D33"/>
<path d="M34.4467 47.5259C27.0449 49.5092 21.9927 44.7602 20.3561 41.9717C19.9298 41.2452 20.1726 40.3101 20.8992 39.8838C21.6267 39.4573 22.5609 39.7003 22.9872 40.4269C23.1317 40.6685 26.6831 46.4482 33.6582 44.5793C40.645 42.7071 40.893 35.8354 40.9004 35.5434C40.9214 34.7028 41.6173 34.0346 42.4569 34.052C43.2965 34.0693 43.965 34.7593 43.9506 35.5991C43.8955 38.8583 41.8403 45.5448 34.4467 47.5259Z" fill="#050D33"/>
</svg>
