<svg xmlns="http://www.w3.org/2000/svg" width="171" height="29" viewBox="0 0 171 29" fill="none">
<g clip-path="url(#clip0_1_4)">
<path d="M6.20173 27.5217V10.7217H10.9537V27.5217H6.20173ZM22.5905 14.2977C23.5985 14.2977 24.5105 14.5057 25.3265 14.9217C26.1425 15.3217 26.7825 15.9457 27.2465 16.7937C27.7265 17.6417 27.9665 18.7377 27.9665 20.0817V27.5217H23.4065V20.8257C23.4065 19.8977 23.2145 19.2257 22.8305 18.8097C22.4625 18.3777 21.9425 18.1617 21.2705 18.1617C20.7905 18.1617 20.3505 18.2737 19.9505 18.4977C19.5505 18.7057 19.2385 19.0337 19.0145 19.4817C18.7905 19.9297 18.6785 20.5137 18.6785 21.2337V27.5217H14.1185V14.5137H18.4625V18.2097L17.6225 17.1297C18.1185 16.1857 18.7985 15.4817 19.6625 15.0177C20.5265 14.5377 21.5025 14.2977 22.5905 14.2977ZM36.6375 27.7377C34.9735 27.7377 33.6775 27.3297 32.7495 26.5137C31.8215 25.6817 31.3575 24.4337 31.3575 22.7697V11.6097H35.9175V22.7217C35.9175 23.1857 36.0455 23.5537 36.3015 23.8257C36.5575 24.0817 36.8855 24.2097 37.2855 24.2097C37.8295 24.2097 38.2935 24.0737 38.6775 23.8017L39.8055 26.9937C39.4215 27.2497 38.9495 27.4337 38.3895 27.5457C37.8295 27.6737 37.2455 27.7377 36.6375 27.7377ZM29.4615 18.4017V14.9937H38.8935V18.4017H29.4615ZM48.0049 27.7377C46.4689 27.7377 45.1249 27.4497 43.9729 26.8737C42.8369 26.2817 41.9489 25.4817 41.3089 24.4737C40.6849 23.4497 40.3729 22.2897 40.3729 20.9937C40.3729 19.6977 40.6769 18.5457 41.2849 17.5377C41.9089 16.5137 42.7649 15.7217 43.8529 15.1617C44.9409 14.5857 46.1649 14.2977 47.5249 14.2977C48.8049 14.2977 49.9729 14.5617 51.0289 15.0897C52.0849 15.6017 52.9249 16.3617 53.5489 17.3697C54.1729 18.3777 54.4849 19.6017 54.4849 21.0417C54.4849 21.2017 54.4769 21.3857 54.4609 21.5937C54.4449 21.8017 54.4289 21.9937 54.4129 22.1697H44.1169V19.7697H51.9889L50.2609 20.4417C50.2769 19.8497 50.1649 19.3377 49.9249 18.9057C49.7009 18.4737 49.3809 18.1377 48.9649 17.8977C48.5649 17.6577 48.0929 17.5377 47.5489 17.5377C47.0049 17.5377 46.5249 17.6577 46.1089 17.8977C45.7089 18.1377 45.3969 18.4817 45.1729 18.9297C44.9489 19.3617 44.8369 19.8737 44.8369 20.4657V21.1617C44.8369 21.8017 44.9649 22.3537 45.2209 22.8177C45.4929 23.2817 45.8769 23.6417 46.3729 23.8977C46.8689 24.1377 47.4609 24.2577 48.1489 24.2577C48.7889 24.2577 49.3329 24.1697 49.7809 23.9937C50.2449 23.8017 50.7009 23.5137 51.1489 23.1297L53.5489 25.6257C52.9249 26.3137 52.1569 26.8417 51.2449 27.2097C50.3329 27.5617 49.2529 27.7377 48.0049 27.7377ZM56.5873 27.5217V14.5137H60.9313V18.3057L60.2833 17.2257C60.6673 16.2497 61.2913 15.5217 62.1553 15.0417C63.0193 14.5457 64.0673 14.2977 65.2993 14.2977V18.4017C65.0913 18.3697 64.9073 18.3537 64.7473 18.3537C64.6033 18.3377 64.4433 18.3297 64.2673 18.3297C63.3393 18.3297 62.5873 18.5857 62.0113 19.0977C61.4353 19.5937 61.1473 20.4097 61.1473 21.5457V27.5217H56.5873ZM67.181 27.5217V14.5137H71.741V27.5217H67.181ZM69.461 13.0737C68.629 13.0737 67.957 12.8417 67.445 12.3777C66.933 11.9137 66.677 11.3377 66.677 10.6497C66.677 9.96173 66.933 9.38573 67.445 8.92173C67.957 8.45773 68.629 8.22573 69.461 8.22573C70.293 8.22573 70.965 8.44973 71.477 8.89773C71.989 9.32973 72.245 9.88973 72.245 10.5777C72.245 11.2977 71.989 11.8977 71.477 12.3777C70.981 12.8417 70.309 13.0737 69.461 13.0737ZM81.2325 27.7377C79.8085 27.7377 78.5445 27.4497 77.4405 26.8737C76.3365 26.2977 75.4645 25.5057 74.8245 24.4977C74.2005 23.4737 73.8885 22.3057 73.8885 20.9937C73.8885 19.6817 74.2005 18.5217 74.8245 17.5137C75.4645 16.5057 76.3365 15.7217 77.4405 15.1617C78.5445 14.5857 79.8085 14.2977 81.2325 14.2977C82.6565 14.2977 83.9205 14.5857 85.0245 15.1617C86.1445 15.7217 87.0165 16.5057 87.6405 17.5137C88.2645 18.5217 88.5765 19.6817 88.5765 20.9937C88.5765 22.3057 88.2645 23.4737 87.6405 24.4977C87.0165 25.5057 86.1445 26.2977 85.0245 26.8737C83.9205 27.4497 82.6565 27.7377 81.2325 27.7377ZM81.2325 24.1137C81.7605 24.1137 82.2245 23.9937 82.6245 23.7537C83.0405 23.5137 83.3685 23.1617 83.6085 22.6977C83.8485 22.2177 83.9685 21.6497 83.9685 20.9937C83.9685 20.3377 83.8485 19.7857 83.6085 19.3377C83.3685 18.8737 83.0405 18.5217 82.6245 18.2817C82.2245 18.0417 81.7605 17.9217 81.2325 17.9217C80.7205 17.9217 80.2565 18.0417 79.8405 18.2817C79.4405 18.5217 79.1125 18.8737 78.8565 19.3377C78.6165 19.7857 78.4965 20.3377 78.4965 20.9937C78.4965 21.6497 78.6165 22.2177 78.8565 22.6977C79.1125 23.1617 79.4405 23.5137 79.8405 23.7537C80.2565 23.9937 80.7205 24.1137 81.2325 24.1137ZM90.6889 27.5217V14.5137H95.0329V18.3057L94.3849 17.2257C94.7689 16.2497 95.3929 15.5217 96.2569 15.0417C97.1209 14.5457 98.1689 14.2977 99.4009 14.2977V18.4017C99.1929 18.3697 99.0089 18.3537 98.8489 18.3537C98.7049 18.3377 98.5449 18.3297 98.3689 18.3297C97.4409 18.3297 96.6889 18.5857 96.1129 19.0977C95.5369 19.5937 95.2489 20.4097 95.2489 21.5457V27.5217H90.6889ZM107.981 27.7377C106.445 27.7377 105.101 27.4497 103.949 26.8737C102.813 26.2817 101.925 25.4817 101.285 24.4737C100.661 23.4497 100.349 22.2897 100.349 20.9937C100.349 19.6977 100.653 18.5457 101.261 17.5377C101.885 16.5137 102.741 15.7217 103.829 15.1617C104.917 14.5857 106.141 14.2977 107.501 14.2977C108.781 14.2977 109.949 14.5617 111.005 15.0897C112.061 15.6017 112.901 16.3617 113.525 17.3697C114.149 18.3777 114.461 19.6017 114.461 21.0417C114.461 21.2017 114.453 21.3857 114.437 21.5937C114.421 21.8017 114.405 21.9937 114.389 22.1697H104.093V19.7697H111.965L110.237 20.4417C110.253 19.8497 110.141 19.3377 109.901 18.9057C109.677 18.4737 109.357 18.1377 108.941 17.8977C108.541 17.6577 108.069 17.5377 107.525 17.5377C106.981 17.5377 106.501 17.6577 106.085 17.8977C105.685 18.1377 105.373 18.4817 105.149 18.9297C104.925 19.3617 104.813 19.8737 104.813 20.4657V21.1617C104.813 21.8017 104.941 22.3537 105.197 22.8177C105.469 23.2817 105.853 23.6417 106.349 23.8977C106.845 24.1377 107.437 24.2577 108.125 24.2577C108.765 24.2577 109.309 24.1697 109.757 23.9937C110.221 23.8017 110.677 23.5137 111.125 23.1297L113.525 25.6257C112.901 26.3137 112.133 26.8417 111.221 27.2097C110.309 27.5617 109.229 27.7377 107.981 27.7377ZM121.292 27.7377C120.188 27.7377 119.108 27.6097 118.052 27.3537C117.012 27.0977 116.172 26.7777 115.532 26.3937L116.9 23.2737C117.508 23.6417 118.22 23.9377 119.036 24.1617C119.852 24.3697 120.652 24.4737 121.436 24.4737C122.204 24.4737 122.732 24.3937 123.02 24.2337C123.324 24.0737 123.476 23.8577 123.476 23.5857C123.476 23.3297 123.332 23.1457 123.044 23.0337C122.772 22.9057 122.404 22.8097 121.94 22.7457C121.492 22.6817 120.996 22.6097 120.452 22.5297C119.908 22.4497 119.356 22.3457 118.796 22.2177C118.252 22.0737 117.748 21.8657 117.284 21.5937C116.836 21.3057 116.476 20.9217 116.204 20.4417C115.932 19.9617 115.796 19.3537 115.796 18.6177C115.796 17.7857 116.036 17.0497 116.516 16.4097C117.012 15.7537 117.732 15.2417 118.676 14.8737C119.62 14.4897 120.772 14.2977 122.132 14.2977C123.044 14.2977 123.964 14.3937 124.892 14.5857C125.836 14.7617 126.628 15.0337 127.268 15.4017L125.9 18.4977C125.26 18.1297 124.62 17.8817 123.98 17.7537C123.34 17.6097 122.732 17.5377 122.156 17.5377C121.388 17.5377 120.844 17.6257 120.524 17.8017C120.22 17.9777 120.068 18.1937 120.068 18.4497C120.068 18.7057 120.204 18.9057 120.476 19.0497C120.748 19.1777 121.108 19.2817 121.556 19.3617C122.02 19.4257 122.524 19.4977 123.068 19.5777C123.612 19.6417 124.156 19.7457 124.7 19.8897C125.26 20.0337 125.764 20.2497 126.212 20.5377C126.676 20.8097 127.044 21.1857 127.316 21.6657C127.588 22.1297 127.724 22.7297 127.724 23.4657C127.724 24.2657 127.476 24.9857 126.98 25.6257C126.5 26.2657 125.78 26.7777 124.82 27.1617C123.876 27.5457 122.7 27.7377 121.292 27.7377ZM131.609 27.7377C130.841 27.7377 130.193 27.4817 129.665 26.9697C129.137 26.4577 128.873 25.8097 128.873 25.0257C128.873 24.2097 129.137 23.5617 129.665 23.0817C130.193 22.5857 130.841 22.3377 131.609 22.3377C132.377 22.3377 133.025 22.5857 133.553 23.0817C134.081 23.5617 134.345 24.2097 134.345 25.0257C134.345 25.8097 134.081 26.4577 133.553 26.9697C133.025 27.4817 132.377 27.7377 131.609 27.7377ZM135.436 27.5217L142.852 10.7217H147.532L154.972 27.5217H150.028L144.22 13.0497H146.092L140.284 27.5217H135.436ZM139.492 24.2577L140.716 20.7537H148.924L150.148 24.2577H139.492ZM156.103 27.5217V14.5137H160.663V27.5217H156.103ZM158.383 13.0737C157.551 13.0737 156.879 12.8417 156.367 12.3777C155.855 11.9137 155.599 11.3377 155.599 10.6497C155.599 9.96173 155.855 9.38573 156.367 8.92173C156.879 8.45773 157.551 8.22573 158.383 8.22573C159.215 8.22573 159.887 8.44973 160.399 8.89773C160.911 9.32973 161.167 9.88973 161.167 10.5777C161.167 11.2977 160.911 11.8977 160.399 12.3777C159.903 12.8417 159.231 13.0737 158.383 13.0737Z" fill="url(#paint0_linear_1_4)"/>
<line x1="1.89469" y1="28.1235" x2="1.89469" y2="7.91301" stroke="url(#paint1_linear_1_4)" stroke-width="3.78947"/>
<line y1="6.01835" x2="24" y2="6.01835" stroke="url(#paint2_linear_1_4)" stroke-width="3.78947"/>
<line y1="1.13031" x2="14.6957" y2="1.13031" stroke="url(#paint3_linear_1_4)" stroke-width="2.26087"/>
</g>
<defs>
<linearGradient id="paint0_linear_1_4" x1="4.52173" y1="19.0217" x2="162.522" y2="19.0217" gradientUnits="userSpaceOnUse">
<stop stop-color="#4E6AFF"/>
<stop offset="1"/>
</linearGradient>
<linearGradient id="paint1_linear_1_4" x1="4.28943" y1="28.1235" x2="4.28943" y2="7.91301" gradientUnits="userSpaceOnUse">
<stop stop-color="#4E6AFF"/>
<stop offset="1"/>
</linearGradient>
<linearGradient id="paint2_linear_1_4" x1="0" y1="8.41309" x2="24" y2="8.41309" gradientUnits="userSpaceOnUse">
<stop stop-color="#4E6AFF"/>
<stop offset="1"/>
</linearGradient>
<linearGradient id="paint3_linear_1_4" x1="0" y1="2.76074" x2="14.6957" y2="2.76074" gradientUnits="userSpaceOnUse">
<stop stop-color="#4E6AFF"/>
<stop offset="1"/>
</linearGradient>
<clipPath id="clip0_1_4">
<rect width="171" height="29" fill="white"/>
</clipPath>
</defs>
</svg>