<svg width="52" height="52" viewBox="0 0 52 52" fill="none" xmlns="http://www.w3.org/2000/svg">
<g clip-path="url(#clip0_2016_8522)">
<path d="M28.1667 52H4.10583C3.0169 52 1.97256 51.5674 1.20257 50.7974C0.432578 50.0274 0 48.9831 0 47.8942L0 4.10583C0 3.0169 0.432578 1.97256 1.20257 1.20257C1.97256 0.432578 3.0169 0 4.10583 0L28.1667 0C29.2556 0 30.2999 0.432578 31.0699 1.20257C31.8399 1.97256 32.2725 3.0169 32.2725 4.10583V47.8942C32.2725 48.9831 31.8399 50.0274 31.0699 50.7974C30.2999 51.5674 29.2556 52 28.1667 52ZM4.10583 1.64667C3.45362 1.64667 2.82812 1.90576 2.36694 2.36694C1.90576 2.82812 1.64667 3.45362 1.64667 4.10583V47.8942C1.64667 48.5464 1.90576 49.1719 2.36694 49.6331C2.82812 50.0942 3.45362 50.3533 4.10583 50.3533H28.1667C28.8189 50.3533 29.4444 50.0942 29.9056 49.6331C30.3667 49.1719 30.6258 48.5464 30.6258 47.8942V4.10583C30.6258 3.45362 30.3667 2.82812 29.9056 2.36694C29.4444 1.90576 28.8189 1.64667 28.1667 1.64667H4.10583Z" fill="url(#paint0_linear_2016_8522)"/>
<path d="M28.1667 45.4349H4.10583C3.0169 45.4349 1.97256 45.0024 1.20257 44.2324C0.432578 43.4624 0 42.418 0 41.3291L0 10.6708C0 9.58184 0.432578 8.53751 1.20257 7.76751C1.97256 6.99752 3.0169 6.56494 4.10583 6.56494H28.1667C29.2556 6.56494 30.2999 6.99752 31.0699 7.76751C31.8399 8.53751 32.2725 9.58184 32.2725 10.6708V41.3291C32.2725 42.418 31.8399 43.4624 31.0699 44.2324C30.2999 45.0024 29.2556 45.4349 28.1667 45.4349ZM4.10583 8.21161C3.45362 8.21161 2.82812 8.4707 2.36694 8.93188C1.90576 9.39306 1.64667 10.0186 1.64667 10.6708V41.3291C1.64667 41.652 1.71027 41.9718 1.83386 42.2702C1.95744 42.5685 2.13859 42.8396 2.36694 43.068C2.59529 43.2963 2.86639 43.4775 3.16475 43.6011C3.46311 43.7247 3.78289 43.7883 4.10583 43.7883H28.1667C28.4896 43.7883 28.8094 43.7247 29.1077 43.6011C29.4061 43.4775 29.6772 43.2963 29.9056 43.068C30.1339 42.8396 30.3151 42.5685 30.4386 42.2702C30.5622 41.9718 30.6258 41.652 30.6258 41.3291V10.6708C30.6258 10.0186 30.3667 9.39306 29.9056 8.93188C29.4444 8.4707 28.8189 8.21161 28.1667 8.21161H4.10583Z" fill="url(#paint1_linear_2016_8522)"/>
<path d="M20.5836 4.92914H11.7652C11.5469 4.92914 11.3374 4.84239 11.183 4.68799C11.0286 4.53358 10.9419 4.32417 10.9419 4.1058C10.9419 3.88744 11.0286 3.67802 11.183 3.52362C11.3374 3.36921 11.5469 3.28247 11.7652 3.28247H20.5836C20.8019 3.28247 21.0113 3.36921 21.1657 3.52362C21.3202 3.67802 21.4069 3.88744 21.4069 4.1058C21.4069 4.32417 21.3202 4.53358 21.1657 4.68799C21.0113 4.84239 20.8019 4.92914 20.5836 4.92914Z" fill="url(#paint2_linear_2016_8522)"/>
<path d="M23.8331 4.92912C23.725 4.92946 23.618 4.90732 23.5189 4.86412C23.4148 4.82602 23.3218 4.76275 23.2481 4.67996C23.0957 4.52773 23.01 4.3212 23.0098 4.10579C23.0095 3.88708 23.095 3.67701 23.2481 3.52079C23.3254 3.44483 23.4176 3.3858 23.5189 3.34746C23.6675 3.28499 23.8313 3.26811 23.9895 3.29897C24.1477 3.32984 24.2931 3.40705 24.4073 3.52079C24.4865 3.59615 24.5495 3.68692 24.5923 3.78753C24.6352 3.88813 24.657 3.99644 24.6564 4.10579C24.6484 4.32158 24.5591 4.52635 24.4064 4.67905C24.2537 4.83174 24.0489 4.92107 23.8331 4.92912Z" fill="url(#paint3_linear_2016_8522)"/>
<path d="M17.2468 48.7499H15.0802C14.8618 48.7499 14.6524 48.6632 14.498 48.5088C14.3436 48.3544 14.2568 48.145 14.2568 47.9266C14.2568 47.7082 14.3436 47.4988 14.498 47.3444C14.6524 47.19 14.8618 47.1033 15.0802 47.1033H17.2468C17.4652 47.1033 17.6746 47.19 17.829 47.3444C17.9834 47.4988 18.0702 47.7082 18.0702 47.9266C18.0702 48.145 17.9834 48.3544 17.829 48.5088C17.6746 48.6632 17.4652 48.7499 17.2468 48.7499Z" fill="url(#paint4_linear_2016_8522)"/>
<path d="M24.9168 48.7499H22.7501C22.5317 48.7499 22.3223 48.6632 22.1679 48.5088C22.0135 48.3544 21.9268 48.145 21.9268 47.9266C21.9268 47.7082 22.0135 47.4988 22.1679 47.3444C22.3223 47.19 22.5317 47.1033 22.7501 47.1033H24.9168C25.1351 47.1033 25.3445 47.19 25.4989 47.3444C25.6533 47.4988 25.7401 47.7082 25.7401 47.9266C25.7401 48.145 25.6533 48.3544 25.4989 48.5088C25.3445 48.6632 25.1351 48.7499 24.9168 48.7499Z" fill="url(#paint5_linear_2016_8522)"/>
<path d="M9.57643 48.7499H7.40976C7.1914 48.7499 6.98198 48.6632 6.82757 48.5088C6.67317 48.3544 6.58643 48.145 6.58643 47.9266C6.58643 47.7082 6.67317 47.4988 6.82757 47.3444C6.98198 47.19 7.1914 47.1033 7.40976 47.1033H9.57643C9.79479 47.1033 10.0042 47.19 10.1586 47.3444C10.313 47.4988 10.3998 47.7082 10.3998 47.9266C10.3998 48.145 10.313 48.3544 10.1586 48.5088C10.0042 48.6632 9.79479 48.7499 9.57643 48.7499Z" fill="url(#paint6_linear_2016_8522)"/>
<path d="M51.1769 32.2942C50.9585 32.2942 50.7491 32.2074 50.5947 32.053C50.4403 31.8986 50.3535 31.6892 50.3535 31.4708V20.5833C50.3535 20.365 50.4403 20.1556 50.5947 20.0012C50.7491 19.8468 50.9585 19.76 51.1769 19.76C51.3952 19.76 51.6046 19.8468 51.759 20.0012C51.9134 20.1556 52.0002 20.365 52.0002 20.5833V31.525C51.9864 31.7339 51.8936 31.9296 51.7407 32.0725C51.5878 32.2154 51.3861 32.2946 51.1769 32.2942Z" fill="url(#paint7_linear_2016_8522)"/>
<path d="M11.7652 32.2942C11.6576 32.2942 11.551 32.2728 11.4518 32.2313C11.3525 32.1898 11.2624 32.129 11.1868 32.0524C11.1112 31.9758 11.0516 31.8849 11.0114 31.7851C10.9712 31.6853 10.9513 31.5785 10.9527 31.4708V20.5833C10.9513 20.4757 10.9712 20.3689 11.0114 20.2691C11.0516 20.1693 11.1112 20.0784 11.1868 20.0018C11.2624 19.9252 11.3525 19.8644 11.4518 19.8229C11.551 19.7814 11.6576 19.76 11.7652 19.76C11.9836 19.76 12.193 19.8468 12.3474 20.0012C12.5018 20.1556 12.5885 20.365 12.5885 20.5833V31.525C12.5748 31.7339 12.482 31.9296 12.3291 32.0725C12.1761 32.2154 11.9745 32.2946 11.7652 32.2942Z" fill="url(#paint8_linear_2016_8522)"/>
<path d="M38.0467 41.0475H24.9167C22.3768 41.0475 19.9409 40.0385 18.1449 38.2425C16.349 36.4465 15.34 34.0107 15.34 31.4708V20.5833C15.3329 19.3211 15.5753 18.07 16.0534 16.9018C16.5314 15.7337 17.2357 14.6715 18.1257 13.7765C19.0157 12.8815 20.0738 12.1712 21.2393 11.6866C22.4047 11.2019 23.6545 10.9524 24.9167 10.9524H38.0467C39.3121 10.9481 40.5659 11.1944 41.7357 11.677C42.9055 12.1596 43.9682 12.869 44.8625 13.7643C45.7568 14.6596 46.465 15.7231 46.9463 16.8935C47.4276 18.0638 47.6724 19.3179 47.6667 20.5833V31.525C47.6495 34.0621 46.6273 36.4889 44.8242 38.2738C43.021 40.0587 40.5838 41.0561 38.0467 41.0475ZM24.9167 12.5883C23.8688 12.5883 22.8312 12.7954 21.8637 13.1977C20.8961 13.6 20.0176 14.1896 19.2786 14.9326C18.5397 15.6755 17.9548 16.5573 17.5578 17.527C17.1607 18.4967 16.9593 19.5354 16.965 20.5833V31.525C16.9821 33.6226 17.8275 35.6285 19.3168 37.1057C20.8062 38.5829 22.819 39.4117 24.9167 39.4116H38.0467C40.1508 39.4087 42.1678 38.5709 43.6547 37.082C45.1415 35.5931 45.9767 33.5749 45.9767 31.4708V20.5833C45.9767 18.4791 45.1415 16.461 43.6547 14.9721C42.1678 13.4832 40.1508 12.6453 38.0467 12.6424L24.9167 12.5883Z" fill="url(#paint9_linear_2016_8522)"/>
<path d="M34.7535 16.9651H28.1669C27.0779 16.9651 26.0336 16.5325 25.2636 15.7625C24.4936 14.9926 24.061 13.9482 24.061 12.8593V11.776C24.061 11.6683 24.0824 11.5618 24.1239 11.4625C24.1654 11.3632 24.2262 11.2732 24.3028 11.1976C24.3794 11.122 24.4703 11.0624 24.5701 11.0222C24.6699 10.982 24.7768 10.962 24.8844 10.9635H38.0469C38.2624 10.9635 38.469 11.0491 38.6214 11.2014C38.7738 11.3538 38.8594 11.5605 38.8594 11.776V12.8593C38.8594 13.9482 38.4268 14.9926 37.6568 15.7625C36.8868 16.5325 35.8425 16.9651 34.7535 16.9651ZM25.7294 12.6318V12.9026C25.7406 13.5446 26.0013 14.1569 26.4563 14.6099C26.9113 15.0629 27.5249 15.3209 28.1669 15.3293H34.7319C35.387 15.3293 36.0152 15.0691 36.4784 14.6058C36.9416 14.1426 37.2019 13.5144 37.2019 12.8593V12.5885L25.7294 12.6318Z" fill="url(#paint10_linear_2016_8522)"/>
<path d="M36.9526 36.6707H26.0001C25.7817 36.6707 25.5723 36.584 25.4179 36.4296C25.2635 36.2752 25.1768 36.0658 25.1768 35.8474V34.2116C25.1768 33.9932 25.2635 33.7838 25.4179 33.6294C25.5723 33.475 25.7817 33.3882 26.0001 33.3882C26.2185 33.3882 26.4279 33.475 26.5823 33.6294C26.7367 33.7838 26.8234 33.9932 26.8234 34.2116V35.0349H36.1293V34.2116C36.116 34.0963 36.1272 33.9794 36.1622 33.8688C36.1973 33.7581 36.2553 33.6561 36.3326 33.5694C36.4098 33.4828 36.5045 33.4134 36.6104 33.366C36.7163 33.3185 36.8311 33.2939 36.9472 33.2939C37.0633 33.2939 37.178 33.3185 37.2839 33.366C37.3899 33.4134 37.4846 33.4828 37.5618 33.5694C37.639 33.6561 37.6971 33.7581 37.7321 33.8688C37.7671 33.9794 37.7784 34.0963 37.7651 34.2116V35.8474C37.7651 36.0639 37.6799 36.2717 37.5278 36.4258C37.3757 36.5799 37.1691 36.6679 36.9526 36.6707Z" fill="url(#paint11_linear_2016_8522)"/>
<path d="M38.0466 29.5534H24.9166C24.2867 29.5838 23.6572 29.486 23.0662 29.2659C22.4752 29.0458 21.935 28.708 21.4785 28.2729C21.0219 27.8379 20.6584 27.3146 20.4101 26.7349C20.1617 26.1553 20.0337 25.5312 20.0337 24.9005C20.0337 24.2699 20.1617 23.6458 20.4101 23.0661C20.6584 22.4864 21.0219 21.9632 21.4785 21.5281C21.935 21.0931 22.4752 20.7552 23.0662 20.5351C23.6572 20.315 24.2867 20.2172 24.9166 20.2476H38.0466C39.2418 20.3053 40.369 20.8207 41.1944 21.687C42.0199 22.5532 42.4804 23.7039 42.4804 24.9005C42.4804 26.0971 42.0199 27.2478 41.1944 28.1141C40.369 28.9803 39.2418 29.4958 38.0466 29.5534ZM24.9166 21.8943C24.1179 21.8943 23.3518 22.2116 22.787 22.7764C22.2222 23.3412 21.9049 24.1072 21.9049 24.9059C21.9049 25.7047 22.2222 26.4707 22.787 27.0355C23.3518 27.6003 24.1179 27.9176 24.9166 27.9176H38.0466C38.8453 27.9176 39.6114 27.6003 40.1762 27.0355C40.741 26.4707 41.0583 25.7047 41.0583 24.9059C41.0583 24.1072 40.741 23.3412 40.1762 22.7764C39.6114 22.2116 38.8453 21.8943 38.0466 21.8943H24.9166Z" fill="url(#paint12_linear_2016_8522)"/>
<path d="M27.0833 25.7292H24.9166C24.6982 25.7292 24.4888 25.6424 24.3344 25.488C24.18 25.3336 24.0933 25.1242 24.0933 24.9059C24.0933 24.6875 24.18 24.4781 24.3344 24.3237C24.4888 24.1693 24.6982 24.0825 24.9166 24.0825H27.0833C27.3016 24.0825 27.511 24.1693 27.6654 24.3237C27.8199 24.4781 27.9066 24.6875 27.9066 24.9059C27.9066 25.1242 27.8199 25.3336 27.6654 25.488C27.511 25.6424 27.3016 25.7292 27.0833 25.7292Z" fill="url(#paint13_linear_2016_8522)"/>
<path d="M38.0466 25.7292H35.88C35.6616 25.7292 35.4522 25.6424 35.2978 25.488C35.1434 25.3336 35.0566 25.1242 35.0566 24.9059C35.0566 24.6875 35.1434 24.4781 35.2978 24.3237C35.4522 24.1693 35.6616 24.0825 35.88 24.0825H38.0466C38.265 24.0825 38.4744 24.1693 38.6288 24.3237C38.7832 24.4781 38.87 24.6875 38.87 24.9059C38.87 25.1242 38.7832 25.3336 38.6288 25.488C38.4744 25.6424 38.265 25.7292 38.0466 25.7292Z" fill="url(#paint14_linear_2016_8522)"/>
</g>
<defs>
<linearGradient id="paint0_linear_2016_8522" x1="0" y1="0" x2="46.597" y2="28.9193" gradientUnits="userSpaceOnUse">
<stop stop-color="#4080FF"/>
<stop offset="1" stop-color="#0055FF"/>
</linearGradient>
<linearGradient id="paint1_linear_2016_8522" x1="0" y1="6.56494" x2="38.2071" y2="38.2871" gradientUnits="userSpaceOnUse">
<stop stop-color="#4080FF"/>
<stop offset="1" stop-color="#0055FF"/>
</linearGradient>
<linearGradient id="paint2_linear_2016_8522" x1="10.9419" y1="3.28247" x2="11.4476" y2="6.49624" gradientUnits="userSpaceOnUse">
<stop stop-color="#4080FF"/>
<stop offset="1" stop-color="#0055FF"/>
</linearGradient>
<linearGradient id="paint3_linear_2016_8522" x1="23.0098" y1="3.28394" x2="24.655" y2="4.93061" gradientUnits="userSpaceOnUse">
<stop stop-color="#4080FF"/>
<stop offset="1" stop-color="#0055FF"/>
</linearGradient>
<linearGradient id="paint4_linear_2016_8522" x1="14.2568" y1="47.1033" x2="15.4555" y2="49.879" gradientUnits="userSpaceOnUse">
<stop stop-color="#4080FF"/>
<stop offset="1" stop-color="#0055FF"/>
</linearGradient>
<linearGradient id="paint5_linear_2016_8522" x1="21.9268" y1="47.1033" x2="23.1254" y2="49.879" gradientUnits="userSpaceOnUse">
<stop stop-color="#4080FF"/>
<stop offset="1" stop-color="#0055FF"/>
</linearGradient>
<linearGradient id="paint6_linear_2016_8522" x1="6.58643" y1="47.1033" x2="7.78504" y2="49.879" gradientUnits="userSpaceOnUse">
<stop stop-color="#4080FF"/>
<stop offset="1" stop-color="#0055FF"/>
</linearGradient>
<linearGradient id="paint7_linear_2016_8522" x1="50.3535" y1="19.76" x2="53.591" y2="20.1853" gradientUnits="userSpaceOnUse">
<stop stop-color="#4080FF"/>
<stop offset="1" stop-color="#0055FF"/>
</linearGradient>
<linearGradient id="paint8_linear_2016_8522" x1="10.9526" y1="19.76" x2="14.1696" y2="20.1799" gradientUnits="userSpaceOnUse">
<stop stop-color="#4080FF"/>
<stop offset="1" stop-color="#0055FF"/>
</linearGradient>
<linearGradient id="paint9_linear_2016_8522" x1="15.3398" y1="10.9524" x2="45.3581" y2="43.1968" gradientUnits="userSpaceOnUse">
<stop stop-color="#4080FF"/>
<stop offset="1" stop-color="#0055FF"/>
</linearGradient>
<linearGradient id="paint10_linear_2016_8522" x1="24.061" y1="10.9634" x2="28.2416" y2="21.2713" gradientUnits="userSpaceOnUse">
<stop stop-color="#4080FF"/>
<stop offset="1" stop-color="#0055FF"/>
</linearGradient>
<linearGradient id="paint11_linear_2016_8522" x1="25.1768" y1="33.2939" x2="26.8661" y2="39.5945" gradientUnits="userSpaceOnUse">
<stop stop-color="#4080FF"/>
<stop offset="1" stop-color="#0055FF"/>
</linearGradient>
<linearGradient id="paint12_linear_2016_8522" x1="20.0337" y1="20.2422" x2="26.6311" y2="36.1372" gradientUnits="userSpaceOnUse">
<stop stop-color="#4080FF"/>
<stop offset="1" stop-color="#0055FF"/>
</linearGradient>
<linearGradient id="paint13_linear_2016_8522" x1="24.0933" y1="24.0825" x2="25.2919" y2="26.8583" gradientUnits="userSpaceOnUse">
<stop stop-color="#4080FF"/>
<stop offset="1" stop-color="#0055FF"/>
</linearGradient>
<linearGradient id="paint14_linear_2016_8522" x1="35.0566" y1="24.0825" x2="36.2553" y2="26.8583" gradientUnits="userSpaceOnUse">
<stop stop-color="#4080FF"/>
<stop offset="1" stop-color="#0055FF"/>
</linearGradient>
<clipPath id="clip0_2016_8522">
<rect width="52" height="52" fill="white"/>
</clipPath>
</defs>
</svg>
