<svg width="52" height="52" viewBox="0 0 52 52" fill="none" xmlns="http://www.w3.org/2000/svg">
<g clip-path="url(#clip0_2016_8523)">
<path d="M29.25 38.8592H9.57669C8.31673 38.8577 7.0694 38.608 5.90603 38.1242C4.74266 37.6404 3.68606 36.932 2.79664 36.0396C1.90722 35.1471 1.20243 34.0881 0.722568 32.9231C0.242704 31.7581 -0.00282368 30.51 2.44981e-05 29.25V9.57667C0.00574748 7.03854 1.01655 4.606 2.81129 2.81126C4.60602 1.01653 7.03856 0.00572298 9.57669 0L29.25 0C31.789 0.00286732 34.2232 1.01276 36.0186 2.80811C37.8139 4.60346 38.8238 7.03766 38.8267 9.57667V29.25C38.831 30.5104 38.5864 31.7592 38.1071 32.9248C37.6277 34.0905 36.923 35.15 36.0333 36.0427C35.1436 36.9355 34.0864 37.6438 32.9224 38.1271C31.7584 38.6104 30.5104 38.8592 29.25 38.8592ZM9.57669 1.64667C7.47353 1.64667 5.4565 2.48215 3.96933 3.96931C2.48217 5.45647 1.64669 7.4735 1.64669 9.57667V29.25C1.64669 31.3542 2.48182 33.3723 3.96868 34.8612C5.45553 36.3501 7.47253 37.188 9.57669 37.1908H29.25C30.2952 37.1937 31.3306 36.9905 32.2971 36.5928C33.2637 36.1952 34.1423 35.6109 34.8829 34.8733C35.6234 34.1358 36.2113 33.2596 36.6129 32.2947C37.0145 31.3298 37.2219 30.2951 37.2234 29.25V9.57667C37.2219 8.53203 37.0144 7.49794 36.6127 6.53365C36.211 5.56935 35.6229 4.69379 34.8822 3.95714C34.1415 3.22049 33.2628 2.63721 32.2963 2.24074C31.3299 1.84427 30.2947 1.64239 29.25 1.64667H9.57669Z" fill="url(#paint0_linear_2016_8523)"/>
<path d="M27.0833 23.5409C26.0548 23.5409 25.0495 23.2359 24.1943 22.6645C23.3392 22.0931 22.6727 21.281 22.2791 20.3308C21.8856 19.3806 21.7826 18.3351 21.9832 17.3264C22.1839 16.3177 22.6791 15.3911 23.4063 14.6639C24.1336 13.9367 25.0601 13.4414 26.0688 13.2408C27.0775 13.0401 28.1231 13.1431 29.0733 13.5367C30.0234 13.9303 30.8356 14.5968 31.4069 15.4519C31.9783 16.307 32.2833 17.3124 32.2833 18.3409C32.2804 19.7191 31.7317 21.0401 30.7571 22.0147C29.7825 22.9892 28.4615 23.538 27.0833 23.5409ZM27.0833 14.7767C26.3779 14.7746 25.6878 14.9818 25.1002 15.3721C24.5127 15.7624 24.0542 16.3183 23.7827 16.9694C23.5113 17.6205 23.4392 18.3374 23.5755 19.0295C23.7118 19.7216 24.0504 20.3577 24.5484 20.8573C25.0464 21.3568 25.6815 21.6973 26.3731 21.8357C27.0648 21.9741 27.782 21.9042 28.4339 21.6348C29.0858 21.3653 29.6431 20.9085 30.0352 20.3221C30.4273 19.7358 30.6366 19.0463 30.6366 18.3409C30.6366 17.3975 30.2626 16.4925 29.5965 15.8244C28.9305 15.1563 28.0267 14.7796 27.0833 14.7767Z" fill="url(#paint1_linear_2016_8523)"/>
<path d="M11.7649 23.5409C10.7365 23.5409 9.73111 23.2359 8.87598 22.6645C8.02084 22.0931 7.35435 21.281 6.96077 20.3308C6.56719 19.3806 6.46422 18.3351 6.66486 17.3264C6.8655 16.3177 7.36076 15.3911 8.08799 14.6639C8.81522 13.9367 9.74177 13.4414 10.7505 13.2408C11.7592 13.0401 12.8047 13.1431 13.7549 13.5367C14.7051 13.9303 15.5172 14.5968 16.0886 15.4519C16.66 16.307 16.9649 17.3124 16.9649 18.3409C16.9621 19.7191 16.4133 21.0401 15.4387 22.0147C14.4642 22.9892 13.1432 23.538 11.7649 23.5409ZM11.7649 14.7767C11.06 14.7767 10.3709 14.9857 9.7848 15.3774C9.19867 15.769 8.74185 16.3257 8.47208 16.9769C8.20232 17.6282 8.13174 18.3448 8.26926 19.0362C8.40679 19.7276 8.74624 20.3627 9.2447 20.8611C9.74316 21.3596 10.3782 21.699 11.0696 21.8366C11.761 21.9741 12.4776 21.9035 13.1289 21.6337C13.7802 21.364 14.3368 20.9071 14.7284 20.321C15.1201 19.7349 15.3291 19.0458 15.3291 18.3409C15.3291 17.3956 14.9536 16.489 14.2852 15.8206C13.6168 15.1522 12.7102 14.7767 11.7649 14.7767Z" fill="url(#paint2_linear_2016_8523)"/>
<path d="M34.7536 52H34.6669C34.5047 51.9846 34.3505 51.922 34.2234 51.82C34.0963 51.7179 34.002 51.5809 33.9519 51.4258L26.3144 27.3433C26.2661 27.1999 26.2589 27.0459 26.2934 26.8987C26.328 26.7514 26.403 26.6167 26.5099 26.5097C26.6169 26.4027 26.7516 26.3278 26.8989 26.2932C27.0462 26.2587 27.2002 26.2659 27.3436 26.3141L51.4261 33.9733C51.5774 34.023 51.7116 34.1145 51.8131 34.2371C51.9147 34.3598 51.9796 34.5087 52.0002 34.6666C52.0108 34.8286 51.9732 34.9901 51.8923 35.1308C51.8113 35.2716 51.6906 35.3852 51.5452 35.4575L40.8419 40.8416L35.4902 51.545C35.4228 51.6826 35.3179 51.7983 35.1875 51.8788C35.0572 51.9593 34.9068 52.0013 34.7536 52ZM28.3619 28.3616L34.9269 48.945L39.4986 39.8125C39.574 39.6501 39.7045 39.5196 39.8669 39.4441L48.9994 34.8725L28.3619 28.3616Z" fill="url(#paint3_linear_2016_8523)"/>
<path d="M23.8333 8.21167H15.0475C13.6692 8.2088 12.3482 7.66003 11.3737 6.68546C10.3991 5.71089 9.85032 4.38991 9.84745 3.01167V0.845C9.84456 0.735069 9.86372 0.625672 9.9038 0.523266C9.94387 0.42086 10.0041 0.327521 10.0808 0.248758C10.1575 0.169995 10.2493 0.107404 10.3506 0.064679C10.452 0.0219543 10.5608 -3.80354e-05 10.6708 4.93797e-08H28.1666C28.2747 4.93797e-08 28.3818 0.0212962 28.4817 0.0626726C28.5816 0.104049 28.6724 0.164695 28.7488 0.241149C28.8253 0.317602 28.8859 0.408366 28.9273 0.508257C28.9687 0.608149 28.99 0.715212 28.99 0.823333V2.99C28.9957 4.3654 28.4564 5.68707 27.4899 6.6657C26.5235 7.64434 25.2087 8.20022 23.8333 8.21167ZM11.4941 1.64667V3.01167C11.4941 3.95407 11.8685 4.85787 12.5349 5.52425C13.2012 6.19063 14.1051 6.565 15.0475 6.565H23.8333C24.7757 6.565 25.6795 6.19063 26.3459 5.52425C27.0123 4.85787 27.3866 3.95407 27.3866 3.01167V1.64667H11.4941Z" fill="url(#paint4_linear_2016_8523)"/>
<path d="M23.8331 31.2H12.8589C12.6425 31.1971 12.4358 31.1091 12.2837 30.955C12.1317 30.8009 12.0464 30.5931 12.0464 30.3766V27.6466C12.0331 27.5313 12.0444 27.4145 12.0794 27.3038C12.1145 27.1932 12.1725 27.0912 12.2497 27.0045C12.327 26.9178 12.4217 26.8485 12.5276 26.801C12.6335 26.7535 12.7483 26.729 12.8643 26.729C12.9804 26.729 13.0952 26.7535 13.2011 26.801C13.307 26.8485 13.4017 26.9178 13.479 27.0045C13.5562 27.0912 13.6142 27.1932 13.6493 27.3038C13.6843 27.4145 13.6956 27.5313 13.6823 27.6466V29.5533H23.8331C24.0515 29.5533 24.2609 29.64 24.4153 29.7944C24.5697 29.9488 24.6564 30.1583 24.6564 30.3766C24.6564 30.595 24.5697 30.8044 24.4153 30.9588C24.2609 31.1132 24.0515 31.2 23.8331 31.2Z" fill="url(#paint5_linear_2016_8523)"/>
<path d="M12.8591 18.3409C12.8591 18.5552 12.7955 18.7646 12.6765 18.9428C12.5574 19.1209 12.3882 19.2598 12.1903 19.3418C11.9923 19.4238 11.7745 19.4452 11.5644 19.4034C11.3542 19.3616 11.1612 19.2584 11.0097 19.1069C10.8582 18.9554 10.755 18.7624 10.7132 18.5522C10.6714 18.3421 10.6929 18.1243 10.7748 17.9263C10.8568 17.7284 10.9957 17.5592 11.1738 17.4401C11.352 17.3211 11.5615 17.2576 11.7757 17.2576C12.063 17.2576 12.3386 17.3717 12.5417 17.5749C12.7449 17.778 12.8591 18.0536 12.8591 18.3409Z" fill="url(#paint6_linear_2016_8523)"/>
<path d="M28.1667 18.3409C28.1667 18.5552 28.1031 18.7646 27.9841 18.9428C27.8651 19.1209 27.6959 19.2598 27.4979 19.3418C27.3 19.4238 27.0821 19.4452 26.872 19.4034C26.6618 19.3616 26.4688 19.2584 26.3173 19.1069C26.1658 18.9554 26.0626 18.7624 26.0208 18.5522C25.979 18.3421 26.0005 18.1243 26.0825 17.9263C26.1645 17.7284 26.3033 17.5592 26.4815 17.4401C26.6596 17.3211 26.8691 17.2576 27.0833 17.2576C27.3707 17.2576 27.6462 17.3717 27.8494 17.5749C28.0525 17.778 28.1667 18.0536 28.1667 18.3409Z" fill="url(#paint7_linear_2016_8523)"/>
</g>
<defs>
<linearGradient id="paint0_linear_2016_8523" x1="0" y1="0" x2="38.8592" y2="38.8267" gradientUnits="userSpaceOnUse">
<stop stop-color="#4080FF"/>
<stop offset="1" stop-color="#0055FF"/>
</linearGradient>
<linearGradient id="paint1_linear_2016_8523" x1="21.8833" y1="13.1409" x2="32.2833" y2="23.5409" gradientUnits="userSpaceOnUse">
<stop stop-color="#4080FF"/>
<stop offset="1" stop-color="#0055FF"/>
</linearGradient>
<linearGradient id="paint2_linear_2016_8523" x1="6.56494" y1="13.1409" x2="16.9649" y2="23.5409" gradientUnits="userSpaceOnUse">
<stop stop-color="#4080FF"/>
<stop offset="1" stop-color="#0055FF"/>
</linearGradient>
<linearGradient id="paint3_linear_2016_8523" x1="26.272" y1="26.2717" x2="52.0002" y2="52.0017" gradientUnits="userSpaceOnUse">
<stop stop-color="#4080FF"/>
<stop offset="1" stop-color="#0055FF"/>
</linearGradient>
<linearGradient id="paint4_linear_2016_8523" x1="9.84717" y1="0" x2="15.7973" y2="13.8709" gradientUnits="userSpaceOnUse">
<stop stop-color="#4080FF"/>
<stop offset="1" stop-color="#0055FF"/>
</linearGradient>
<linearGradient id="paint5_linear_2016_8523" x1="12.041" y1="26.729" x2="14.8564" y2="34.6731" gradientUnits="userSpaceOnUse">
<stop stop-color="#4080FF"/>
<stop offset="1" stop-color="#0055FF"/>
</linearGradient>
<linearGradient id="paint6_linear_2016_8523" x1="10.6924" y1="17.2576" x2="12.8591" y2="19.4242" gradientUnits="userSpaceOnUse">
<stop stop-color="#4080FF"/>
<stop offset="1" stop-color="#0055FF"/>
</linearGradient>
<linearGradient id="paint7_linear_2016_8523" x1="26" y1="17.2576" x2="28.1667" y2="19.4242" gradientUnits="userSpaceOnUse">
<stop stop-color="#4080FF"/>
<stop offset="1" stop-color="#0055FF"/>
</linearGradient>
<clipPath id="clip0_2016_8523">
<rect width="52" height="52" fill="white"/>
</clipPath>
</defs>
</svg>
