<svg width="52" height="52" viewBox="0 0 52 52" fill="none" xmlns="http://www.w3.org/2000/svg">
<g clip-path="url(#clip0_2016_8524)">
<path d="M48.9885 34.4825H20.5835C20.1876 34.4839 19.7953 34.407 19.4293 34.2562C19.0632 34.1053 18.7306 33.8835 18.4507 33.6036C18.1708 33.3237 17.949 32.9911 17.7981 32.625C17.6473 32.259 17.5704 31.8667 17.5718 31.4708V3.01167C17.5718 2.61617 17.6497 2.22454 17.801 1.85915C17.9524 1.49376 18.1742 1.16176 18.4539 0.882097C18.7336 0.602438 19.0656 0.3806 19.4309 0.229249C19.7963 0.0778991 20.188 0 20.5835 0L48.9885 0C49.7863 0.00285464 50.5507 0.321071 51.1149 0.88525C51.6791 1.44943 51.9973 2.2138 52.0001 3.01167V31.4708C52.0001 31.8663 51.9222 32.258 51.7709 32.6233C51.6195 32.9887 51.3977 33.3207 51.118 33.6004C50.8384 33.8801 50.5064 34.1019 50.141 34.2533C49.7756 34.4046 49.384 34.4825 48.9885 34.4825ZM20.5835 1.64667C20.4033 1.64524 20.2246 1.67949 20.0578 1.74745C19.8909 1.8154 19.7392 1.91572 19.6113 2.04262C19.4834 2.16951 19.3818 2.32047 19.3126 2.48679C19.2433 2.65311 19.2076 2.8315 19.2076 3.01167V31.4708C19.2076 31.8357 19.3526 32.1857 19.6106 32.4437C19.8686 32.7017 20.2186 32.8467 20.5835 32.8467H48.9885C49.1686 32.8467 49.347 32.811 49.5133 32.7417C49.6797 32.6725 49.8306 32.5709 49.9575 32.443C50.0844 32.3151 50.1847 32.1634 50.2527 31.9965C50.3206 31.8297 50.3549 31.651 50.3535 31.4708V3.01167C50.3549 2.83201 50.3206 2.65386 50.2525 2.4876C50.1844 2.32134 50.0839 2.17029 49.9569 2.04325C49.8298 1.91621 49.6788 1.81572 49.5125 1.74763C49.3463 1.67955 49.1681 1.64522 48.9885 1.64667H20.5835Z" fill="url(#paint0_linear_2016_8524)"/>
<path d="M42.4232 13.6715C41.6136 13.6608 40.8252 13.411 40.1571 12.9534C39.4891 12.4958 38.9713 11.8509 38.6688 11.0997C38.3663 10.3486 38.2927 9.52484 38.4572 8.73199C38.6217 7.93913 39.0169 7.21262 39.5932 6.64381C40.1695 6.07501 40.9012 5.68931 41.6961 5.53523C42.4911 5.38114 43.3138 5.46556 44.0609 5.77784C44.808 6.09013 45.4461 6.61636 45.8949 7.29033C46.3437 7.96431 46.5832 8.75595 46.5832 9.56568C46.5833 10.1095 46.4753 10.6478 46.2656 11.1495C46.0559 11.6512 45.7486 12.1063 45.3616 12.4883C44.9746 12.8702 44.5155 13.1715 44.0111 13.3747C43.5067 13.5778 42.967 13.6787 42.4232 13.6715ZM42.4232 7.10652C41.9369 7.10652 41.4614 7.25074 41.057 7.52096C40.6526 7.79118 40.3374 8.17525 40.1513 8.6246C39.9651 9.07395 39.9164 9.56841 40.0113 10.0454C40.1062 10.5225 40.3404 10.9607 40.6844 11.3046C41.0283 11.6485 41.4665 11.8827 41.9435 11.9776C42.4205 12.0725 42.915 12.0238 43.3643 11.8377C43.8137 11.6515 44.1978 11.3363 44.468 10.9319C44.7382 10.5275 44.8824 10.0521 44.8824 9.56568C44.8796 8.91435 44.6196 8.29051 44.159 7.82994C43.6984 7.36937 43.0746 7.10937 42.4232 7.10652Z" fill="url(#paint1_linear_2016_8524)"/>
<path d="M48.9884 34.4825H20.5834C20.1879 34.4825 19.7963 34.4046 19.4309 34.2532C19.0655 34.1019 18.7335 33.88 18.4539 33.6004C18.1742 33.3207 17.9524 32.9887 17.801 32.6233C17.6497 32.2579 17.5718 31.8663 17.5718 31.4708V15.0475C17.5726 14.9161 17.6044 14.7868 17.6647 14.6701C17.7249 14.5534 17.8119 14.4526 17.9184 14.3758C18.0376 14.3 29.3584 6.66246 40.8526 17.745C44.0422 20.9476 47.6629 23.6895 51.6101 25.8916C51.7432 25.9607 51.855 26.0648 51.9332 26.1927C52.0115 26.3206 52.0534 26.4675 52.0543 26.6175V31.4708C52.0529 31.8705 51.9722 32.2659 51.817 32.6342C51.6618 33.0025 51.435 33.3364 51.1499 33.6165C50.8648 33.8966 50.5269 34.1173 50.1559 34.266C49.7849 34.4146 49.3881 34.4882 48.9884 34.4825ZM19.1534 15.5025V31.4708C19.1533 31.6561 19.1906 31.8396 19.2631 32.0101C19.3356 32.1807 19.4418 32.3348 19.5754 32.4633C19.7089 32.5918 19.8671 32.692 20.0403 32.7579C20.2135 32.8237 20.3983 32.8539 20.5834 32.8466H48.9884C49.1686 32.8466 49.347 32.811 49.5133 32.7417C49.6796 32.6724 49.8306 32.5709 49.9575 32.443C50.0844 32.3151 50.1847 32.1634 50.2527 31.9965C50.3206 31.8296 50.3549 31.651 50.3534 31.4708V27.0833C46.4428 24.8382 42.8472 22.0842 39.6609 18.8933C30.1276 9.74997 21.0709 14.3541 19.1534 15.5025Z" fill="url(#paint2_linear_2016_8524)"/>
<path d="M48.9884 34.4825H33.6592C33.4427 34.4796 33.2361 34.3916 33.084 34.2375C32.9319 34.0834 32.8467 33.8756 32.8467 33.6591V29.25C32.8464 29.1384 32.8685 29.0279 32.9117 28.925C32.9658 28.8058 38.2633 17.0083 51.3284 19.6841C51.5321 19.7236 51.7138 19.8376 51.838 20.0039C51.9622 20.1701 52.02 20.3767 52 20.5833V31.525C51.9831 32.3134 51.6586 33.064 51.096 33.6165C50.5333 34.1691 49.777 34.4798 48.9884 34.4825ZM34.4825 32.8466H48.9884C49.1685 32.8466 49.3469 32.811 49.5132 32.7417C49.6795 32.6724 49.8305 32.5709 49.9574 32.443C50.0843 32.3151 50.1846 32.1633 50.2526 31.9965C50.3205 31.8296 50.3548 31.651 50.3533 31.4708V21.2116C39.6825 19.435 35.1108 28.1666 34.4825 29.4666V32.8466Z" fill="url(#paint3_linear_2016_8524)"/>
<path d="M47.8945 48.7498H38.047C37.8286 48.7498 37.6192 48.6631 37.4648 48.5087C37.3104 48.3543 37.2236 48.1448 37.2236 47.9265C37.2236 47.7081 37.3104 47.4987 37.4648 47.3443C37.6192 47.1899 37.8286 47.1031 38.047 47.1031H47.8945C48.5467 47.1031 49.1722 46.8441 49.6334 46.3829C50.0945 45.9217 50.3536 45.2962 50.3536 44.644V38.0465C50.3536 37.8281 50.4404 37.6187 50.5948 37.4643C50.7492 37.3099 50.9586 37.2231 51.177 37.2231C51.3953 37.2231 51.6047 37.3099 51.7591 37.4643C51.9136 37.6187 52.0003 37.8281 52.0003 38.0465V44.6115C52.0046 45.1534 51.9016 45.6908 51.6971 46.1927C51.4927 46.6946 51.191 47.1511 50.8093 47.5358C50.4276 47.9205 49.9735 48.2258 49.4732 48.4342C48.973 48.6426 48.4364 48.7498 47.8945 48.7498Z" fill="url(#paint4_linear_2016_8524)"/>
<path d="M42.4234 51.9998C42.2444 51.9991 42.0701 51.9423 41.925 51.8373L37.5917 48.5873C37.4906 48.5094 37.4086 48.4093 37.3523 48.2947C37.2959 48.1801 37.2666 48.0542 37.2666 47.9265C37.2666 47.7988 37.2959 47.6728 37.3523 47.5582C37.4086 47.4437 37.4906 47.3436 37.5917 47.2656L41.925 44.0156C42.1003 43.8849 42.3203 43.8292 42.5367 43.8606C42.7531 43.8921 42.9481 44.0083 43.0788 44.1836C43.2095 44.3588 43.2653 44.5788 43.2338 44.7952C43.2023 45.0116 43.0861 45.2066 42.9109 45.3373L39.4117 47.959L42.9109 50.5915C42.999 50.6546 43.0734 50.735 43.1296 50.8277C43.1858 50.9204 43.2226 51.0235 43.2378 51.1309C43.253 51.2382 43.2463 51.3475 43.218 51.4522C43.1897 51.5569 43.1405 51.6547 43.0734 51.7398C42.9923 51.8301 42.8914 51.9006 42.7787 51.9457C42.666 51.9907 42.5444 52.0093 42.4234 51.9998Z" fill="url(#paint5_linear_2016_8524)"/>
<path d="M0.823462 14.7767C0.6051 14.7767 0.395682 14.6899 0.241277 14.5355C0.0868724 14.3811 0.000128641 14.1717 0.000128641 13.9533V7.38833C-0.00416105 6.84642 0.0988729 6.30902 0.303289 5.80712C0.507705 5.30522 0.809459 4.84875 1.19115 4.46404C1.57284 4.07933 2.02691 3.77398 2.52718 3.56562C3.02746 3.35725 3.56403 3.24998 4.10596 3.25H13.9535C14.1718 3.25 14.3812 3.33674 14.5356 3.49115C14.6901 3.64555 14.7768 3.85497 14.7768 4.07333C14.7768 4.29169 14.6901 4.50111 14.5356 4.65552C14.3812 4.80992 14.1718 4.89667 13.9535 4.89667H4.10596C3.78027 4.89664 3.45781 4.96131 3.15731 5.08692C2.85681 5.21253 2.58426 5.39658 2.35548 5.62839C2.12669 5.8602 1.94623 6.13515 1.82458 6.43727C1.70292 6.73939 1.64249 7.06267 1.6468 7.38833V13.9533C1.6468 14.1717 1.56005 14.3811 1.40565 14.5355C1.25124 14.6899 1.04182 14.7767 0.823462 14.7767Z" fill="url(#paint6_linear_2016_8524)"/>
<path d="M9.57674 8.21157C9.40393 8.21082 9.23574 8.15571 9.096 8.05406C8.95625 7.9524 8.85203 7.80935 8.79811 7.64518C8.74418 7.481 8.74328 7.30402 8.79553 7.1393C8.84778 6.97458 8.95053 6.83048 9.08924 6.7274L12.5884 4.10574L9.08924 1.47324C9.0011 1.4101 8.92669 1.32975 8.87049 1.23704C8.8143 1.14433 8.77749 1.04118 8.7623 0.933836C8.74711 0.826492 8.75385 0.717182 8.78212 0.612518C8.81038 0.507853 8.85958 0.410009 8.92674 0.324902C9.05799 0.1518 9.25234 0.0375865 9.46744 0.00714851C9.68253 -0.0232895 9.90094 0.032515 10.0751 0.162402L14.4084 3.4124C14.5096 3.49032 14.5915 3.59043 14.6478 3.705C14.7042 3.81957 14.7335 3.94555 14.7335 4.07324C14.7335 4.20092 14.7042 4.3269 14.6478 4.44148C14.5915 4.55605 14.5096 4.65615 14.4084 4.73407L10.0751 7.98407C9.93837 8.11245 9.76329 8.19238 9.57674 8.21157Z" fill="url(#paint7_linear_2016_8524)"/>
<path d="M31.4708 51.9999H3.01167C2.2138 51.997 1.44943 51.6788 0.88525 51.1146C0.321071 50.5505 0.00285464 49.7861 0 48.9882L0 20.5832C0 20.1877 0.0778991 19.7961 0.229249 19.4307C0.3806 19.0653 0.602438 18.7333 0.882097 18.4536C1.16176 18.174 1.49376 17.9522 1.85915 17.8008C2.22454 17.6495 2.61617 17.5716 3.01167 17.5716H31.4708C31.8667 17.5701 32.259 17.647 32.625 17.7979C32.9911 17.9487 33.3237 18.1705 33.6036 18.4505C33.8835 18.7304 34.1053 19.063 34.2562 19.429C34.407 19.7951 34.4839 20.1873 34.4825 20.5832V48.9882C34.4825 49.787 34.1652 50.553 33.6004 51.1178C33.0356 51.6826 32.2696 51.9999 31.4708 51.9999ZM3.01167 19.1532C2.82681 19.153 2.64384 19.1904 2.47384 19.263C2.30385 19.3356 2.15038 19.442 2.02274 19.5757C1.8951 19.7094 1.79595 19.8677 1.7313 20.0409C1.66666 20.2141 1.63786 20.3986 1.64667 20.5832V48.9882C1.64522 49.1679 1.67955 49.346 1.74763 49.5123C1.81572 49.6786 1.91621 49.8296 2.04325 49.9566C2.17029 50.0837 2.32134 50.1842 2.4876 50.2523C2.65386 50.3203 2.83201 50.3547 3.01167 50.3532H31.4708C31.651 50.3547 31.8297 50.3204 31.9965 50.2524C32.1634 50.1845 32.3151 50.0842 32.443 49.9573C32.5709 49.8304 32.6725 49.6794 32.7417 49.5131C32.811 49.3468 32.8467 49.1684 32.8467 48.9882V20.5832C32.8467 20.2183 32.7017 19.8684 32.4437 19.6104C32.1857 19.3523 31.8357 19.2074 31.4708 19.2074L3.01167 19.1532Z" fill="url(#paint8_linear_2016_8524)"/>
<path d="M31.4708 51.9998H3.01167C2.2138 51.997 1.44943 51.6787 0.885251 51.1146C0.321072 50.5504 0.00285551 49.786 8.70177e-07 48.9881V41.329C-0.000314812 41.1103 0.0852732 40.9002 0.238334 40.744L9.0025 31.9906C9.07813 31.9137 9.16833 31.8525 9.26784 31.8108C9.36735 31.7691 9.47418 31.7476 9.58208 31.7476C9.68999 31.7476 9.79682 31.7691 9.89633 31.8108C9.99584 31.8525 10.086 31.9137 10.1617 31.9906L20.5833 42.3581L26.5633 36.3673C26.6399 36.29 26.731 36.2286 26.8314 36.1868C26.9318 36.1449 27.0395 36.1233 27.1483 36.1233C27.2571 36.1233 27.3648 36.1449 27.4653 36.1868C27.5657 36.2286 27.6568 36.29 27.7333 36.3673L34.2983 42.9323C34.4514 43.0885 34.537 43.2986 34.5367 43.5173V48.934C34.544 49.3386 34.4697 49.7406 34.3183 50.1159C34.1668 50.4911 33.9412 50.832 33.6551 51.1182C33.3689 51.4044 33.028 51.6299 32.6527 51.7814C32.2774 51.9329 31.8755 52.0072 31.4708 51.9998ZM1.64667 41.6648V48.9881C1.64522 49.1678 1.67955 49.3459 1.74763 49.5122C1.81572 49.6785 1.91621 49.8295 2.04325 49.9566C2.17029 50.0836 2.32134 50.1841 2.4876 50.2522C2.65386 50.3203 2.83201 50.3546 3.01167 50.3531H31.4708C31.651 50.3546 31.8297 50.3203 31.9965 50.2524C32.1634 50.1844 32.3151 50.0841 32.443 49.9572C32.5709 49.8303 32.6725 49.6793 32.7417 49.513C32.811 49.3467 32.8467 49.1683 32.8467 48.9881V43.8531L27.0833 38.1115L21.1033 44.0915C21.0277 44.1684 20.9375 44.2296 20.838 44.2713C20.7385 44.3131 20.6317 44.3346 20.5237 44.3346C20.4158 44.3346 20.309 44.3131 20.2095 44.2713C20.11 44.2296 20.0198 44.1684 19.9442 44.0915L9.57667 33.724L1.64667 41.6648Z" fill="url(#paint9_linear_2016_8524)"/>
<path d="M20.5833 33.3773C19.5548 33.3773 18.5495 33.0723 17.6943 32.5009C16.8392 31.9296 16.1727 31.1174 15.7791 30.1673C15.3856 29.2171 15.2826 28.1715 15.4832 27.1628C15.6839 26.1541 16.1791 25.2276 16.9063 24.5003C17.6336 23.7731 18.5601 23.2779 19.5688 23.0772C20.5775 22.8766 21.6231 22.9795 22.5733 23.3731C23.5234 23.7667 24.3356 24.4332 24.9069 25.2883C25.4783 26.1435 25.7833 27.1488 25.7833 28.1773C25.7804 29.5555 25.2317 30.8765 24.2571 31.8511C23.2825 32.8257 21.9615 33.3744 20.5833 33.3773ZM20.5833 24.624C19.8779 24.6132 19.1852 24.8127 18.5935 25.197C18.0018 25.5814 17.538 26.1331 17.261 26.782C16.9841 27.4309 16.9066 28.1476 17.0384 28.8407C17.1702 29.5338 17.5053 30.172 18.0012 30.674C18.497 31.1759 19.131 31.5189 19.8224 31.6592C20.5138 31.7996 21.2314 31.7309 21.8837 31.4619C22.5359 31.193 23.0934 30.7359 23.4849 30.1491C23.8765 29.5622 24.0845 28.872 24.0825 28.1665C24.077 27.2361 23.7079 26.3448 23.0541 25.6828C22.4003 25.0209 21.5135 24.6409 20.5833 24.624Z" fill="url(#paint10_linear_2016_8524)"/>
</g>
<defs>
<linearGradient id="paint0_linear_2016_8524" x1="17.5718" y1="0" x2="52.0543" y2="34.4283" gradientUnits="userSpaceOnUse">
<stop stop-color="#4080FF"/>
<stop offset="1" stop-color="#0055FF"/>
</linearGradient>
<linearGradient id="paint1_linear_2016_8524" x1="38.3716" y1="5.46021" x2="46.5833" y2="13.6719" gradientUnits="userSpaceOnUse">
<stop stop-color="#4080FF"/>
<stop offset="1" stop-color="#0055FF"/>
</linearGradient>
<linearGradient id="paint2_linear_2016_8524" x1="17.5718" y1="11.7405" x2="38.4769" y2="43.4375" gradientUnits="userSpaceOnUse">
<stop stop-color="#4080FF"/>
<stop offset="1" stop-color="#0055FF"/>
</linearGradient>
<linearGradient id="paint3_linear_2016_8524" x1="32.8467" y1="19.2893" x2="47.6405" y2="37.943" gradientUnits="userSpaceOnUse">
<stop stop-color="#4080FF"/>
<stop offset="1" stop-color="#0055FF"/>
</linearGradient>
<linearGradient id="paint4_linear_2016_8524" x1="37.2236" y1="37.2231" x2="48.4036" y2="51.5555" gradientUnits="userSpaceOnUse">
<stop stop-color="#4080FF"/>
<stop offset="1" stop-color="#0055FF"/>
</linearGradient>
<linearGradient id="paint5_linear_2016_8524" x1="37.2666" y1="43.8521" x2="45.0408" y2="49.5554" gradientUnits="userSpaceOnUse">
<stop stop-color="#4080FF"/>
<stop offset="1" stop-color="#0055FF"/>
</linearGradient>
<linearGradient id="paint6_linear_2016_8524" x1="0" y1="3.25" x2="11.18" y2="17.5824" gradientUnits="userSpaceOnUse">
<stop stop-color="#4080FF"/>
<stop offset="1" stop-color="#0055FF"/>
</linearGradient>
<linearGradient id="paint7_linear_2016_8524" x1="8.75439" y1="-0.000976563" x2="16.57" y2="5.68913" gradientUnits="userSpaceOnUse">
<stop stop-color="#4080FF"/>
<stop offset="1" stop-color="#0055FF"/>
</linearGradient>
<linearGradient id="paint8_linear_2016_8524" x1="0" y1="17.5715" x2="34.4283" y2="52.054" gradientUnits="userSpaceOnUse">
<stop stop-color="#4080FF"/>
<stop offset="1" stop-color="#0055FF"/>
</linearGradient>
<linearGradient id="paint9_linear_2016_8524" x1="0" y1="31.7476" x2="17.6748" y2="61.8885" gradientUnits="userSpaceOnUse">
<stop stop-color="#4080FF"/>
<stop offset="1" stop-color="#0055FF"/>
</linearGradient>
<linearGradient id="paint10_linear_2016_8524" x1="15.3833" y1="22.9773" x2="25.7833" y2="33.3773" gradientUnits="userSpaceOnUse">
<stop stop-color="#4080FF"/>
<stop offset="1" stop-color="#0055FF"/>
</linearGradient>
<clipPath id="clip0_2016_8524">
<rect width="52" height="52" fill="white"/>
</clipPath>
</defs>
</svg>
