<svg width="52" height="52" viewBox="0 0 52 52" fill="none" xmlns="http://www.w3.org/2000/svg">
<g clip-path="url(#clip0_576_9099)">
<path d="M51.1767 12.5884C50.9583 12.5884 50.7489 12.5016 50.5945 12.3472C50.4401 12.1928 50.3533 11.9834 50.3533 11.765V6.34837C50.3533 5.11577 49.8637 3.93366 48.9921 3.06209C48.1205 2.19051 46.9384 1.70087 45.7058 1.70087H40.2892C40.0708 1.70087 39.8614 1.61412 39.707 1.45972C39.5526 1.30531 39.4658 1.09589 39.4658 0.877533C39.4658 0.659171 39.5526 0.449753 39.707 0.295348C39.8614 0.140943 40.0708 0.0541992 40.2892 0.0541992H45.7058C47.3649 0.0569618 48.9561 0.713567 50.1343 1.88166C51.3126 3.04975 51.9829 4.63517 52 6.2942V11.765C52 11.9834 51.9132 12.1928 51.7588 12.3472C51.6044 12.5016 51.395 12.5884 51.1767 12.5884Z" fill="url(#paint0_linear_576_9099)"/>
<path d="M0.823482 12.5883C0.605121 12.5883 0.395703 12.5016 0.241298 12.3472C0.0868928 12.1928 0.000148988 11.9834 0.000148988 11.765V6.34833C-0.00556171 5.51762 0.152948 4.69397 0.466568 3.92471C0.780189 3.15545 1.24274 2.45575 1.82763 1.86583C2.41253 1.2759 3.10823 0.80737 3.87478 0.48717C4.64132 0.166969 5.46358 0.00140775 6.29432 0L11.7651 0C11.9835 0 12.1929 0.0867438 12.3473 0.241149C12.5017 0.395554 12.5885 0.604972 12.5885 0.823333C12.5885 1.04169 12.5017 1.25111 12.3473 1.40552C12.1929 1.55992 11.9835 1.64667 11.7651 1.64667H6.34848C5.73362 1.6395 5.12345 1.75442 4.55332 1.98477C3.98319 2.21512 3.46445 2.55631 3.02713 2.98859C2.58982 3.42086 2.24263 3.93562 2.00569 4.50305C1.76876 5.07047 1.64677 5.67926 1.64682 6.29417V11.765C1.64682 11.8731 1.62552 11.9802 1.58414 12.0801C1.54277 12.18 1.48212 12.2707 1.40567 12.3472C1.32921 12.4236 1.23845 12.4843 1.13856 12.5257C1.03867 12.567 0.931604 12.5883 0.823482 12.5883Z" fill="url(#paint1_linear_576_9099)"/>
<path d="M11.765 52H6.34833C5.51762 52.0057 4.69397 51.8472 3.92471 51.5336C3.15545 51.2199 2.45575 50.7574 1.86583 50.1725C1.2759 49.5876 0.80737 48.8919 0.48717 48.1254C0.166969 47.3588 0.00140775 46.5366 0 45.7058L0 40.2892C0 40.0708 0.0867438 39.8614 0.241149 39.707C0.395554 39.5526 0.604972 39.4658 0.823333 39.4658C1.04169 39.4658 1.25111 39.5526 1.40552 39.707C1.55992 39.8614 1.64667 40.0708 1.64667 40.2892V45.7058C1.64667 46.9384 2.13631 48.1205 3.00789 48.9921C3.87946 49.8637 5.06157 50.3533 6.29417 50.3533H11.765C11.8731 50.3533 11.9802 50.3746 12.0801 50.416C12.18 50.4574 12.2707 50.518 12.3472 50.5945C12.4236 50.6709 12.4843 50.7617 12.5257 50.8616C12.567 50.9615 12.5883 51.0685 12.5883 51.1767C12.5883 51.2848 12.567 51.3918 12.5257 51.4917C12.4843 51.5916 12.4236 51.6824 12.3472 51.7588C12.2707 51.8353 12.18 51.8959 12.0801 51.9373C11.9802 51.9787 11.8731 52 11.765 52Z" fill="url(#paint2_linear_576_9099)"/>
<path d="M45.7058 52H40.2892C40.0708 52 39.8614 51.9132 39.707 51.7588C39.5526 51.6044 39.4658 51.395 39.4658 51.1767C39.4658 50.9583 39.5526 50.7489 39.707 50.5945C39.8614 50.4401 40.0708 50.3533 40.2892 50.3533H45.7058C46.9384 50.3533 48.1205 49.8637 48.9921 48.9921C49.8637 48.1205 50.3533 46.9384 50.3533 45.7058V40.2892C50.3533 40.0708 50.4401 39.8614 50.5945 39.707C50.7489 39.5526 50.9583 39.4658 51.1767 39.4658C51.395 39.4658 51.6044 39.5526 51.7588 39.707C51.9132 39.8614 52 40.0708 52 40.2892V45.7058C51.9971 47.3743 51.3331 48.9735 50.1533 50.1533C48.9735 51.3331 47.3743 51.9971 45.7058 52Z" fill="url(#paint3_linear_576_9099)"/>
<path d="M43.9183 18.6117C43.7615 18.6105 43.6082 18.5652 43.476 18.4809C43.3438 18.3965 43.238 18.2767 43.1708 18.135C41.6625 14.8489 39.2428 12.0646 36.1992 10.1127C33.1556 8.16085 29.6157 7.12332 26 7.12332C22.3842 7.12332 18.8444 8.16085 15.8008 10.1127C12.7572 12.0646 10.3375 14.8489 8.82916 18.135C8.73041 18.3197 8.56499 18.4598 8.36659 18.5268C8.16818 18.5938 7.9517 18.5827 7.76119 18.4957C7.57069 18.4088 7.42049 18.2525 7.34115 18.0586C7.26182 17.8648 7.25932 17.6481 7.33416 17.4525C8.98741 13.8953 11.6227 10.8847 14.9296 8.77496C18.2365 6.66527 22.0774 5.54443 26 5.54443C29.9226 5.54443 33.7635 6.66527 37.0704 8.77496C40.3773 10.8847 43.0126 13.8953 44.6658 17.4525C44.7112 17.5499 44.7369 17.6553 44.7413 17.7626C44.7457 17.8699 44.7287 17.9771 44.6915 18.0778C44.6542 18.1785 44.5973 18.2709 44.5241 18.3495C44.4509 18.4281 44.3628 18.4915 44.265 18.5358C44.1566 18.5867 44.0381 18.6126 43.9183 18.6117Z" fill="url(#paint4_linear_576_9099)"/>
<path d="M25.9998 46.5832C22.8144 46.5752 19.6743 45.8281 16.8267 44.4005C13.979 42.973 11.5016 40.904 9.58933 38.3564C7.67707 35.8088 6.38219 32.8522 5.8066 29.7192C5.231 26.5862 5.39042 23.3624 6.27228 20.3015C6.33517 20.0934 6.47679 19.9181 6.66699 19.8129C6.85719 19.7077 7.08094 19.6809 7.29062 19.7382C7.50029 19.7986 7.6774 19.9398 7.78303 20.1308C7.88866 20.3217 7.91417 20.5468 7.85395 20.7565C7.0447 23.5681 6.89988 26.5293 7.43091 29.4065C7.96194 32.2837 9.15429 34.9981 10.9139 37.3356C12.6735 39.6731 14.9522 41.5697 17.5702 42.8758C20.1883 44.1819 23.074 44.8618 25.9998 44.8618C28.9255 44.8618 31.8113 44.1819 34.4293 42.8758C37.0474 41.5697 39.3261 39.6731 41.0857 37.3356C42.8453 34.9981 44.0376 32.2837 44.5687 29.4065C45.0997 26.5293 44.9549 23.5681 44.1456 20.7565C44.1117 20.6515 44.0993 20.5407 44.109 20.4308C44.1187 20.3209 44.1505 20.214 44.2023 20.1166C44.2542 20.0192 44.3251 19.9332 44.4109 19.8638C44.4966 19.7943 44.5954 19.7428 44.7015 19.7123C44.8076 19.6818 44.9187 19.6729 45.0282 19.6862C45.1378 19.6994 45.2435 19.7346 45.3392 19.7896C45.4349 19.8446 45.5186 19.9182 45.5852 20.0061C45.6519 20.0941 45.7002 20.1945 45.7273 20.3015C46.6092 23.3624 46.7686 26.5862 46.193 29.7192C45.6174 32.8522 44.3225 35.8088 42.4102 38.3564C40.498 40.904 38.0205 42.973 35.1729 44.4005C32.3253 45.8281 29.1852 46.5752 25.9998 46.5832Z" fill="url(#paint5_linear_576_9099)"/>
<path d="M28.1668 30.1056H26.0001C25.7817 30.1056 25.5723 30.0189 25.4179 29.8645C25.2635 29.71 25.1768 29.5006 25.1768 29.2823V23.8331C25.1768 23.6147 25.2635 23.4053 25.4179 23.2509C25.5723 23.0965 25.7817 23.0098 26.0001 23.0098C26.2185 23.0098 26.4279 23.0965 26.5823 23.2509C26.7367 23.4053 26.8234 23.6147 26.8234 23.8331V28.4806H28.1668C28.3851 28.4806 28.5945 28.5673 28.7489 28.7217C28.9033 28.8762 28.9901 29.0856 28.9901 29.3039C28.9901 29.5223 28.9033 29.7317 28.7489 29.8861C28.5945 30.0405 28.3851 30.1273 28.1668 30.1273V30.1056Z" fill="url(#paint6_linear_576_9099)"/>
<path d="M36.9524 18.6118C36.8443 18.6118 36.7372 18.5905 36.6373 18.5491C36.5374 18.5077 36.4467 18.4471 36.3702 18.3706C36.2937 18.2942 36.2331 18.2034 36.1917 18.1035C36.1504 18.0036 36.1291 17.8966 36.1291 17.7885C36.0876 17.163 35.8099 16.5768 35.3522 16.1485C34.8946 15.7202 34.2913 15.4819 33.6645 15.4819C33.0377 15.4819 32.4343 15.7202 31.9767 16.1485C31.5191 16.5768 31.2414 17.163 31.1999 17.7885C31.1999 18.0068 31.1131 18.2162 30.9587 18.3706C30.8043 18.525 30.5949 18.6118 30.3766 18.6118C30.1582 18.6118 29.9488 18.525 29.7944 18.3706C29.64 18.2162 29.5532 18.0068 29.5532 17.7885C29.5532 16.6995 29.9858 15.6552 30.7558 14.8852C31.5258 14.1152 32.5701 13.6826 33.6591 13.6826C34.748 13.6826 35.7923 14.1152 36.5623 14.8852C37.3323 15.6552 37.7649 16.6995 37.7649 17.7885C37.7649 18.0049 37.6797 18.2127 37.5276 18.3668C37.3755 18.5209 37.1689 18.6089 36.9524 18.6118Z" fill="url(#paint7_linear_576_9099)"/>
<path d="M33.6591 25.1765C32.5701 25.1765 31.5258 24.7439 30.7558 23.9739C29.9858 23.2039 29.5532 22.1596 29.5532 21.0706V20.5831C29.5532 20.3648 29.64 20.1554 29.7944 20.001C29.9488 19.8466 30.1582 19.7598 30.3766 19.7598C30.5949 19.7598 30.8043 19.8466 30.9587 20.001C31.1131 20.1554 31.1999 20.3648 31.1999 20.5831V21.1248C31.1775 21.4622 31.2246 21.8006 31.3384 22.119C31.4521 22.4375 31.63 22.7292 31.861 22.9761C32.0921 23.223 32.3714 23.4198 32.6816 23.5543C32.9918 23.6889 33.3263 23.7583 33.6645 23.7583C34.0026 23.7583 34.3371 23.6889 34.6474 23.5543C34.9576 23.4198 35.2369 23.223 35.4679 22.9761C35.699 22.7292 35.8769 22.4375 35.9906 22.119C36.1043 21.8006 36.1514 21.4622 36.1291 21.1248V20.5831C36.1158 20.4678 36.127 20.351 36.162 20.2403C36.1971 20.1297 36.2551 20.0277 36.3324 19.941C36.4096 19.8544 36.5043 19.785 36.6102 19.7376C36.7161 19.6901 36.8309 19.6655 36.947 19.6655C37.0631 19.6655 37.1778 19.6901 37.2837 19.7376C37.3897 19.785 37.4844 19.8544 37.5616 19.941C37.6388 20.0277 37.6969 20.1297 37.7319 20.2403C37.7669 20.351 37.7782 20.4678 37.7649 20.5831V21.1248C37.7506 22.2043 37.3118 23.2348 36.5433 23.9931C35.7749 24.7514 34.7387 25.1766 33.6591 25.1765Z" fill="url(#paint8_linear_576_9099)"/>
<path d="M18.3407 25.1765C17.2518 25.1765 16.2075 24.7439 15.4375 23.9739C14.6675 23.2039 14.2349 22.1596 14.2349 21.0706V20.5831C14.2216 20.4678 14.2329 20.351 14.2679 20.2403C14.3029 20.1297 14.361 20.0277 14.4382 19.941C14.5154 19.8544 14.6101 19.785 14.7161 19.7376C14.822 19.6901 14.9367 19.6655 15.0528 19.6655C15.1689 19.6655 15.2837 19.6901 15.3896 19.7376C15.4955 19.785 15.5902 19.8544 15.6674 19.941C15.7447 20.0277 15.8027 20.1297 15.8378 20.2403C15.8728 20.351 15.884 20.4678 15.8707 20.5831V21.1248C15.8484 21.4622 15.8955 21.8006 16.0092 22.119C16.1229 22.4375 16.3008 22.7292 16.5319 22.9761C16.7629 23.223 17.0422 23.4198 17.3524 23.5543C17.6627 23.6889 17.9972 23.7583 18.3353 23.7583C18.6735 23.7583 19.008 23.6889 19.3182 23.5543C19.6284 23.4198 19.9077 23.223 20.1388 22.9761C20.3698 22.7292 20.5477 22.4375 20.6614 22.119C20.7752 21.8006 20.8223 21.4622 20.7999 21.1248V20.5831C20.7999 20.3648 20.8867 20.1554 21.0411 20.001C21.1955 19.8466 21.4049 19.7598 21.6232 19.7598C21.8416 19.7598 22.051 19.8466 22.2054 20.001C22.3598 20.1554 22.4466 20.3648 22.4466 20.5831V21.1248C22.4323 22.2043 21.9935 23.2348 21.225 23.9931C20.4566 24.7514 19.4204 25.1766 18.3407 25.1765Z" fill="url(#paint9_linear_576_9099)"/>
<path d="M21.6667 18.6118C21.5586 18.6118 21.4515 18.5905 21.3516 18.5491C21.2517 18.5077 21.161 18.4471 21.0845 18.3706C21.0081 18.2942 20.9474 18.2034 20.906 18.1035C20.8647 18.0036 20.8434 17.8966 20.8434 17.7885C20.8019 17.163 20.5242 16.5768 20.0665 16.1485C19.6089 15.7202 19.0056 15.4819 18.3788 15.4819C17.752 15.4819 17.1487 15.7202 16.691 16.1485C16.2334 16.5768 15.9557 17.163 15.9142 17.7885C15.9275 17.9038 15.9163 18.0206 15.8812 18.1313C15.8462 18.2419 15.7881 18.3439 15.7109 18.4306C15.6337 18.5172 15.539 18.5866 15.4331 18.634C15.3271 18.6815 15.2124 18.7061 15.0963 18.7061C14.9802 18.7061 14.8654 18.6815 14.7595 18.634C14.6536 18.5866 14.5589 18.5172 14.4817 18.4306C14.4044 18.3439 14.3464 18.2419 14.3114 18.1313C14.2763 18.0206 14.2651 17.9038 14.2784 17.7885C14.2784 16.6995 14.7109 15.6552 15.4809 14.8852C16.2509 14.1152 17.2953 13.6826 18.3842 13.6826C19.4731 13.6826 20.5175 14.1152 21.2875 14.8852C22.0575 15.6552 22.49 16.6995 22.49 17.7885C22.49 17.8966 22.4687 18.0036 22.4274 18.1035C22.386 18.2034 22.3253 18.2942 22.2489 18.3706C22.1724 18.4471 22.0817 18.5077 21.9818 18.5491C21.8819 18.5905 21.7748 18.6118 21.6667 18.6118Z" fill="url(#paint10_linear_576_9099)"/>
<path d="M28.1666 41.0474H23.8332C22.1639 41.0474 20.563 40.3843 19.3826 39.2039C18.2022 38.0235 17.5391 36.4226 17.5391 34.7533V33.6699C17.5419 33.4534 17.6299 33.2468 17.784 33.0947C17.9381 32.9427 18.1459 32.8574 18.3624 32.8574H33.6591C33.8756 32.8574 34.0834 32.9427 34.2375 33.0947C34.3915 33.2468 34.4795 33.4534 34.4824 33.6699V34.7533C34.4824 35.5816 34.3189 36.4019 34.0012 37.1669C33.6835 37.932 33.218 38.6268 32.6312 39.2116C32.0445 39.7963 31.348 40.2595 30.5819 40.5745C29.8157 40.8896 28.9949 41.0503 28.1666 41.0474ZM19.1316 34.4824V34.7533C19.1344 35.9878 19.6261 37.171 20.4991 38.044C21.3721 38.917 22.5553 39.4087 23.7899 39.4116H28.1232C29.3578 39.4087 30.541 38.917 31.414 38.044C32.287 37.171 32.7787 35.9878 32.7816 34.7533V34.4824H19.1316Z" fill="url(#paint11_linear_576_9099)"/>
<path d="M51.1767 21.3527H0.823333C0.604972 21.3527 0.395554 21.266 0.241149 21.1116C0.0867438 20.9572 0 20.7477 0 20.5294C0 20.311 0.0867438 20.1016 0.241149 19.9472C0.395554 19.7928 0.604972 19.7061 0.823333 19.7061H51.1767C51.395 19.7061 51.6044 19.7928 51.7589 19.9472C51.9133 20.1016 52 20.311 52 20.5294C52 20.7477 51.9133 20.9572 51.7589 21.1116C51.6044 21.266 51.395 21.3527 51.1767 21.3527Z" fill="url(#paint12_linear_576_9099)"/>
</g>
<defs>
<linearGradient id="paint0_linear_576_9099" x1="39.4658" y1="0.0541992" x2="52" y2="12.5884" gradientUnits="userSpaceOnUse">
<stop stop-color="#4080FF"/>
<stop offset="1" stop-color="#0055FF"/>
</linearGradient>
<linearGradient id="paint1_linear_576_9099" x1="0" y1="0" x2="12.5883" y2="12.5885" gradientUnits="userSpaceOnUse">
<stop stop-color="#4080FF"/>
<stop offset="1" stop-color="#0055FF"/>
</linearGradient>
<linearGradient id="paint2_linear_576_9099" x1="0" y1="39.4658" x2="12.5342" y2="52.054" gradientUnits="userSpaceOnUse">
<stop stop-color="#4080FF"/>
<stop offset="1" stop-color="#0055FF"/>
</linearGradient>
<linearGradient id="paint3_linear_576_9099" x1="39.4658" y1="39.4658" x2="52" y2="52" gradientUnits="userSpaceOnUse">
<stop stop-color="#4080FF"/>
<stop offset="1" stop-color="#0055FF"/>
</linearGradient>
<linearGradient id="paint4_linear_576_9099" x1="7.27979" y1="5.54443" x2="15.407" y2="28.8441" gradientUnits="userSpaceOnUse">
<stop stop-color="#4080FF"/>
<stop offset="1" stop-color="#0055FF"/>
</linearGradient>
<linearGradient id="paint5_linear_576_9099" x1="5.46777" y1="19.6802" x2="30.1322" y2="57.3273" gradientUnits="userSpaceOnUse">
<stop stop-color="#4080FF"/>
<stop offset="1" stop-color="#0055FF"/>
</linearGradient>
<linearGradient id="paint6_linear_576_9099" x1="25.1768" y1="23.0098" x2="31.1025" y2="26.1846" gradientUnits="userSpaceOnUse">
<stop stop-color="#4080FF"/>
<stop offset="1" stop-color="#0055FF"/>
</linearGradient>
<linearGradient id="paint7_linear_576_9099" x1="29.5532" y1="13.6826" x2="33.9034" y2="20.9297" gradientUnits="userSpaceOnUse">
<stop stop-color="#4080FF"/>
<stop offset="1" stop-color="#0055FF"/>
</linearGradient>
<linearGradient id="paint8_linear_576_9099" x1="29.5532" y1="19.6655" x2="34.6519" y2="27.2679" gradientUnits="userSpaceOnUse">
<stop stop-color="#4080FF"/>
<stop offset="1" stop-color="#0055FF"/>
</linearGradient>
<linearGradient id="paint9_linear_576_9099" x1="14.2295" y1="19.6655" x2="19.3282" y2="27.2679" gradientUnits="userSpaceOnUse">
<stop stop-color="#4080FF"/>
<stop offset="1" stop-color="#0055FF"/>
</linearGradient>
<linearGradient id="paint10_linear_576_9099" x1="14.2729" y1="13.6826" x2="18.744" y2="20.9962" gradientUnits="userSpaceOnUse">
<stop stop-color="#4080FF"/>
<stop offset="1" stop-color="#0055FF"/>
</linearGradient>
<linearGradient id="paint11_linear_576_9099" x1="17.5391" y1="32.8574" x2="23.9572" y2="46.1351" gradientUnits="userSpaceOnUse">
<stop stop-color="#4080FF"/>
<stop offset="1" stop-color="#0055FF"/>
</linearGradient>
<linearGradient id="paint12_linear_576_9099" x1="0" y1="19.7061" x2="0.104184" y2="22.9961" gradientUnits="userSpaceOnUse">
<stop stop-color="#4080FF"/>
<stop offset="1" stop-color="#0055FF"/>
</linearGradient>
<clipPath id="clip0_576_9099">
<rect width="52" height="52" fill="white"/>
</clipPath>
</defs>
</svg>
