<svg width="120" height="120" viewBox="0 0 120 120" fill="none" xmlns="http://www.w3.org/2000/svg">
<path d="M72.0515 67.0672C80.6488 60.9987 95.2497 60.0007 120 59.9993C95.2469 60.0007 80.646 59.0027 72.0486 52.9328C74.9945 45.7731 82.2872 37.7072 93.9351 26.0565C82.2872 37.7072 74.2227 45.0012 67.0644 47.9471C60.9959 39.3498 59.9979 24.7503 59.9965 0C59.9979 24.7503 59.0013 39.3498 52.9328 47.9471C45.7731 44.9998 37.7086 37.7058 26.0579 26.0565C37.7086 37.7072 45.0027 45.7716 47.95 52.9328C39.3526 59.0027 24.7532 60.0007 0 59.9993C24.7517 60.0007 39.3512 60.9987 47.9485 67.0672C45.0012 74.2255 37.7058 82.29 26.0579 93.9379C37.7058 82.29 45.7716 74.9974 52.93 72.0501C58.9999 80.6474 59.9979 95.2468 59.9965 120C59.9979 95.2454 60.9973 80.646 67.0672 72.0486C74.227 74.9959 82.2928 82.29 93.9421 93.9393C82.2928 82.2914 74.9988 74.227 72.0515 67.0672Z" fill="#41D9D9"/>
</svg>
