<svg width="80" height="80" viewBox="0 0 80 80" fill="none" xmlns="http://www.w3.org/2000/svg">
<path d="M57.2559 71.531C57.2652 71.5297 57.2759 71.527 57.2853 71.5244C57.2947 71.5217 57.304 71.5191 57.3147 71.5164C57.3241 71.5138 57.3335 71.5098 57.3428 71.5072C57.3522 71.5046 57.3615 71.5006 57.3709 71.4966C57.3803 71.4927 57.3896 71.4887 57.3977 71.4847C57.407 71.4808 57.415 71.4755 57.4244 71.4715C57.4324 71.4676 57.4418 71.4623 57.4498 71.457C57.4578 71.4517 57.4659 71.4464 57.4752 71.4412C57.4833 71.4359 57.4913 71.4306 57.4993 71.424C57.5073 71.4187 57.5153 71.4121 57.522 71.4055C57.5301 71.3989 57.5367 71.3936 57.5448 71.387C57.5515 71.3804 57.5595 71.3738 57.5662 71.3672C57.5729 71.3606 57.5795 71.3527 57.5862 71.3461C57.5929 71.3395 57.5996 71.3315 57.605 71.3236C57.6116 71.3157 57.617 71.3078 57.6237 71.3012C57.6304 71.2945 57.6357 71.2853 57.6411 71.2774C57.6411 71.2761 57.6424 71.2747 57.6437 71.2734C57.6451 71.2721 57.6451 71.2708 57.6464 71.2694C57.6464 71.2681 57.6478 71.2668 57.6491 71.2655C57.6491 71.2642 57.6504 71.2628 57.6518 71.2615C57.6518 71.2602 57.6531 71.2589 57.6544 71.2576C57.6544 71.2562 57.6558 71.2549 57.6571 71.2536C57.6571 71.2523 57.6585 71.251 57.6598 71.2483C57.6598 71.247 57.6611 71.2457 57.6625 71.243C57.6625 71.2417 57.6638 71.2404 57.6651 71.2377C57.6651 71.2364 57.6665 71.2351 57.6678 71.2325C57.6678 71.2311 57.6692 71.2298 57.6705 71.2272C57.6705 71.2259 57.6718 71.2245 57.6732 71.2219C57.6745 71.2193 57.6745 71.2193 57.6758 71.2166C57.6758 71.2153 57.6772 71.214 57.6785 71.2113C57.6785 71.21 57.6799 71.2087 57.6812 71.2061C57.6812 71.2047 57.6825 71.2034 57.6839 71.2008L58.9103 68.6054L60.1367 66.01L61.3632 63.4146L62.5896 60.8192L63.816 58.2238L65.0425 55.6284L66.2689 53.0331L67.4953 50.4377L68.7218 47.8423L69.9482 45.2469L71.1746 42.6515L72.4011 40.0561L73.6275 37.4607L74.8539 34.8654L76.0804 32.27L77.3068 29.6746C77.3202 29.6482 77.3322 29.6231 77.3456 29.5967C77.359 29.5702 77.371 29.5451 77.3844 29.5187C77.3978 29.4923 77.4098 29.4672 77.4232 29.4408C77.4365 29.4144 77.4486 29.3893 77.462 29.3629C77.474 29.3365 77.4874 29.3114 77.4994 29.2849C77.5114 29.2585 77.5248 29.2334 77.5368 29.207C77.5489 29.1806 77.5623 29.1555 77.5743 29.1291C77.5863 29.1027 77.5997 29.0763 77.6117 29.0512C77.6238 29.0247 77.6372 28.9983 77.6492 28.9719C77.6612 28.9455 77.6733 28.9191 77.6866 28.8927C77.6987 28.8662 77.7107 28.8398 77.7228 28.8134C77.7348 28.787 77.7468 28.7606 77.7589 28.7342C77.7709 28.7077 77.7829 28.6813 77.795 28.6549C77.807 28.6285 77.8191 28.6021 77.8311 28.5757C77.8431 28.5493 77.8552 28.5228 77.8672 28.4951C77.8792 28.4687 77.8913 28.4423 77.902 28.4145C77.9635 28.2732 78.0223 28.1306 78.0812 27.9892C78.14 27.8466 78.1962 27.7039 78.2524 27.5613C78.3086 27.4186 78.3621 27.2747 78.4155 27.1307C78.469 26.9867 78.5212 26.8428 78.5707 26.6988C78.6215 26.5548 78.671 26.4095 78.7178 26.2643C78.766 26.119 78.8128 25.9737 78.8569 25.8271C78.9024 25.6818 78.9465 25.5352 78.9893 25.3886C79.0321 25.242 79.0736 25.0953 79.1137 24.9487C79.1538 24.8021 79.1926 24.6542 79.2301 24.5063C79.2675 24.3583 79.3036 24.2104 79.3384 24.0625C79.3732 23.9145 79.4066 23.7653 79.4387 23.6174C79.4708 23.4681 79.5016 23.3202 79.5296 23.1709C79.5591 23.0217 79.5872 22.8724 79.6126 22.7232C79.6393 22.5739 79.6647 22.4233 79.6875 22.2741C79.7102 22.1248 79.7329 21.9743 79.7543 21.8237C79.7757 21.6731 79.7945 21.5226 79.8132 21.372C79.8573 21.0074 79.8921 20.6455 79.9202 20.285C79.9469 19.9244 79.967 19.5664 79.9777 19.2111C79.9884 18.8558 79.9911 18.5032 79.9857 18.1519C79.9804 17.8018 79.967 17.4545 79.9456 17.1097C79.9242 16.765 79.8948 16.4242 79.8573 16.0861C79.8199 15.748 79.7744 15.4138 79.7209 15.0836C79.6674 14.7534 79.6072 14.4272 79.5377 14.1049C79.4695 13.7826 79.3919 13.4643 79.3076 13.15C79.2234 12.8356 79.1311 12.5265 79.0321 12.2228C78.9331 11.919 78.8261 11.6191 78.7111 11.3246C78.5961 11.0301 78.4744 10.7408 78.346 10.4568C78.2163 10.1729 78.0798 9.89417 77.9367 9.62208C77.7923 9.35 77.6412 9.08319 77.4834 8.82299C77.3255 8.5628 77.1597 8.30788 76.9872 8.06089C76.8146 7.81258 76.6341 7.57219 76.4482 7.33709C76.2609 7.10198 76.067 6.8748 75.8664 6.65423C75.8035 6.58555 75.7407 6.51686 75.6765 6.45082C75.6123 6.38346 75.5481 6.31742 75.4839 6.25138C75.4197 6.18534 75.3541 6.12194 75.2886 6.05722C75.2231 5.99382 75.1562 5.93043 75.0893 5.86835C75.0225 5.80627 74.9556 5.74551 74.8874 5.68476C74.8192 5.624 74.751 5.56456 74.6828 5.50645C74.6145 5.44833 74.545 5.39021 74.4755 5.33342C74.4059 5.27663 74.335 5.22115 74.2641 5.16568C74.1932 5.1102 74.1224 5.05605 74.0501 5.00322C73.9779 4.95039 73.907 4.89755 73.8335 4.84604C73.7599 4.79453 73.6877 4.74434 73.6141 4.69415C73.5406 4.64396 73.467 4.59641 73.3921 4.54754C73.3172 4.49999 73.2437 4.45244 73.1674 4.40753C73.0925 4.36131 73.0163 4.3164 72.9401 4.27281C72.8638 4.22923 72.7876 4.18564 72.7114 4.14337C72.6351 4.10111 72.5576 4.06016 72.48 4.01922C72.4666 4.01261 72.4519 4.00469 72.4385 3.99808C72.4251 3.99148 72.4104 3.98356 72.3971 3.97695C72.3837 3.97035 72.369 3.96242 72.3556 3.95582C72.3422 3.94921 72.3275 3.94129 72.3141 3.93469C72.3008 3.92808 72.2861 3.92016 72.2713 3.91355C72.2566 3.90695 72.2433 3.90034 72.2285 3.89242C72.2138 3.88582 72.2005 3.87921 72.1857 3.87129C72.171 3.86468 72.1577 3.85808 72.143 3.85147C72.1282 3.84487 72.1149 3.83827 72.1002 3.83166C72.0854 3.82506 72.0721 3.81845 72.0574 3.81185C72.0426 3.80525 72.0293 3.79864 72.0146 3.79204C71.9998 3.78543 71.9865 3.77883 71.9718 3.77223C71.957 3.76562 71.9437 3.75902 71.929 3.75241C71.9142 3.74581 71.9009 3.73921 71.8862 3.7326C71.8714 3.726 71.8581 3.71939 71.8434 3.71411C71.8286 3.70751 71.8153 3.7009 71.8006 3.69562L71.402 3.52127L71.0034 3.34693L70.6049 3.17258L70.2063 2.99823L69.8078 2.82389L69.4092 2.64954L69.0107 2.47519L68.6121 2.30085L68.2135 2.1265L67.815 1.95215L67.4164 1.77781L67.0179 1.60346L66.6193 1.42911L66.2208 1.25477L65.8222 1.08042L65.4236 0.906074C65.3327 0.86645 65.2404 0.828146 65.1481 0.789843C65.0558 0.75286 64.9636 0.715878 64.8699 0.681537C64.7763 0.647196 64.6827 0.612855 64.5891 0.581155C64.4955 0.549456 64.4005 0.517757 64.3055 0.488699C64.2106 0.459641 64.1156 0.430583 64.0193 0.404167C63.923 0.377751 63.8267 0.351335 63.7304 0.32756C63.6341 0.303786 63.5365 0.280011 63.4389 0.258878C63.3412 0.237745 63.2436 0.216612 63.146 0.198121C63.0483 0.17963 62.9494 0.161139 62.8504 0.145289C62.7514 0.129439 62.6525 0.113589 62.5522 0.100381C62.4518 0.0871733 62.3529 0.0739652 62.2526 0.0633988C62.1523 0.0528323 62.052 0.0435866 61.9503 0.0356618C61.85 0.027737 61.7483 0.0211329 61.6467 0.0158497C61.5451 0.0105665 61.4434 0.00660404 61.3418 0.00396242C61.2401 0.00132081 61.1371 0 61.0342 0C60.9312 0 60.8282 0.00132081 60.7252 0.00528323C60.2156 0.0132081 59.7088 0.0515115 59.2045 0.120193C58.7003 0.188875 58.1988 0.287936 57.7026 0.414734C57.2064 0.541531 56.7142 0.697386 56.2274 0.880979C55.7406 1.06325 55.2604 1.27326 54.787 1.50836C54.3135 1.74347 53.8467 2.00366 53.3893 2.28896C52.9319 2.57293 52.4826 2.882 52.0425 3.2122C51.6025 3.54241 51.1732 3.89638 50.7546 4.27017C50.336 4.64396 49.9294 5.03888 49.5348 5.45229C49.1403 5.86571 48.7578 6.29893 48.39 6.75065C48.0222 7.20104 47.6678 7.66993 47.3294 8.15467C46.991 8.6394 46.6674 9.13999 46.3597 9.65642C46.0521 10.1715 45.7619 10.7025 45.4904 11.2467C45.2176 11.7908 44.9635 12.3469 44.7281 12.9149C44.4927 13.4828 44.2773 14.0626 44.0821 14.653C43.8868 15.2434 43.7129 15.8431 43.5605 16.452C43.408 17.0609 43.2783 17.6777 43.1713 18.3011C43.1338 18.0581 43.091 17.8164 43.0456 17.576C43.0001 17.3356 42.9493 17.0979 42.8958 16.8601C42.8423 16.6224 42.7834 16.3886 42.7219 16.1548C42.6604 15.921 42.5948 15.6899 42.524 15.4601C42.4544 15.2302 42.3809 15.0031 42.3033 14.7772C42.2257 14.5513 42.1441 14.3281 42.0599 14.1062C41.9756 13.8843 41.886 13.6651 41.7937 13.4485C41.7014 13.2318 41.6051 13.0166 41.5048 12.8039C41.4045 12.5913 41.3015 12.3813 41.1932 12.1739C41.0862 11.9665 40.9752 11.7618 40.8602 11.5597C40.7452 11.3576 40.6275 11.1582 40.5044 10.9614C40.3827 10.7646 40.257 10.5704 40.1273 10.3789C39.9975 10.1874 39.8651 9.99851 39.7287 9.8136C39.5923 9.62869 39.4519 9.44509 39.3088 9.26546C39.1656 9.08583 39.0185 8.91017 38.8674 8.73582C38.7176 8.56279 38.5638 8.39241 38.406 8.22599C38.3284 8.1441 38.2508 8.06353 38.1733 7.98428C38.0944 7.90503 38.0154 7.82578 37.9365 7.74786C37.8563 7.66993 37.776 7.59332 37.6945 7.51804C37.6129 7.44275 37.5313 7.36746 37.4484 7.2935C37.3654 7.21953 37.2825 7.14689 37.1983 7.07424C37.114 7.0016 37.0298 6.9316 36.9442 6.86159C36.8586 6.79159 36.773 6.72291 36.686 6.65423C36.5991 6.58555 36.5122 6.51818 36.4252 6.45214C36.3383 6.3861 36.2487 6.32006 36.1604 6.25666C36.0708 6.19195 35.9812 6.12855 35.8916 6.06647C35.802 6.00439 35.711 5.94231 35.6188 5.88288C35.5278 5.82212 35.4355 5.76268 35.3432 5.70457C35.251 5.64645 35.1573 5.58834 35.0637 5.53286C34.9701 5.47739 34.8765 5.42059 34.7815 5.36644C34.6866 5.31229 34.5916 5.25946 34.4966 5.20662C34.4017 5.15379 34.3054 5.1036 34.2077 5.05341C34.1957 5.04681 34.1837 5.0402 34.1703 5.03492C34.1583 5.02831 34.1462 5.02171 34.1329 5.01643C34.1208 5.00982 34.1088 5.00322 34.0954 4.99794C34.0834 4.99133 34.0713 4.98605 34.058 4.97944C34.0459 4.97284 34.0339 4.96756 34.0205 4.96095C34.0085 4.95435 33.9964 4.94907 33.9831 4.94246C33.971 4.93586 33.9576 4.93057 33.9456 4.92397C33.9336 4.91737 33.9202 4.91208 33.9082 4.90548C33.8961 4.89887 33.8828 4.89359 33.8707 4.88699C33.8587 4.88038 33.8453 4.8751 33.8333 4.8685C33.8212 4.86189 33.8079 4.85661 33.7958 4.85C33.7838 4.8434 33.7704 4.83812 33.7584 4.83151C33.7463 4.82491 33.733 4.81963 33.7209 4.81302C33.7089 4.80774 33.6955 4.80113 33.6835 4.79585C33.6714 4.79057 33.6581 4.78396 33.646 4.77868C33.634 4.7734 33.6206 4.76679 33.6086 4.76151L33.2341 4.58716L32.8596 4.41282L32.4851 4.23847L32.1106 4.06412L31.7362 3.88978L31.3617 3.71543L30.9872 3.54109L30.6127 3.36674L30.2382 3.19239L29.8637 3.01805L29.4893 2.8437L29.1148 2.66935L28.7403 2.49501L28.3658 2.32066L27.9913 2.14631L27.6168 1.97197C27.4858 1.91121 27.3534 1.85177 27.221 1.79366C27.0885 1.73686 26.9548 1.68139 26.8197 1.62723C26.686 1.57308 26.5509 1.52157 26.4145 1.4727C26.2781 1.42383 26.1416 1.37496 26.0052 1.32873C25.8675 1.2825 25.7297 1.23892 25.5919 1.19665C25.4529 1.15439 25.3138 1.11476 25.1747 1.07646C25.0356 1.03815 24.8951 1.00249 24.7534 0.968152C24.6129 0.933811 24.4712 0.902112 24.3294 0.871733C24.1876 0.841354 24.0445 0.813617 23.9014 0.787201C23.7583 0.760785 23.6152 0.737011 23.4708 0.714557C23.3263 0.692103 23.1819 0.672291 23.0374 0.655121C22.893 0.636629 22.7472 0.62078 22.6014 0.607571C22.4556 0.594363 22.3099 0.582476 22.1641 0.57191C22.0183 0.562664 21.8712 0.554739 21.7241 0.549456C21.5769 0.544173 21.4298 0.54021 21.2827 0.538889C21.1356 0.538889 20.9871 0.538889 20.84 0.541531C20.1713 0.550777 19.5079 0.600967 18.8499 0.68682C18.1919 0.773993 17.5405 0.898149 16.8986 1.05797C16.2553 1.21778 15.6213 1.41326 14.9967 1.64176C14.3721 1.87026 13.7583 2.1331 13.1564 2.42632C12.5546 2.71954 11.9648 3.04578 11.3897 3.39976C10.8146 3.75374 10.2528 4.13809 9.70715 4.55018C9.16148 4.96095 8.63185 5.39946 8.12095 5.86438C7.60871 6.32799 7.11519 6.81801 6.64174 7.32916C6.16828 7.84031 5.71355 8.37656 5.28022 8.93394C4.84689 9.49132 4.43629 10.0685 4.04844 10.6655C3.66058 11.2625 3.29679 11.878 2.95842 12.512C2.62005 13.1447 2.30709 13.7958 2.02087 14.4602C1.73466 15.1259 1.47654 15.8061 1.24783 16.4982C1.01913 17.1916 0.818514 17.8969 0.649997 18.6141C0.481479 19.3313 0.343723 20.0591 0.239402 20.7961C0.135082 21.5331 0.0641972 22.2781 0.0267488 23.0309C0.00936209 23.3889 0.00133744 23.7428 0 24.0955C0 24.4481 0.00534977 24.7982 0.0200616 25.1455C0.0347735 25.4929 0.05751 25.8376 0.0869337 26.1797C0.116357 26.5218 0.155143 26.8613 0.200616 27.1967C0.246089 27.5322 0.299587 27.8651 0.359772 28.1953C0.419957 28.5255 0.488166 28.8504 0.5644 29.1727C0.640635 29.495 0.723556 29.8146 0.813165 30.1289C0.904111 30.4446 1.00174 30.755 1.1074 31.0627C1.21306 31.3705 1.3254 31.673 1.44444 31.9715C1.56481 32.27 1.69186 32.5645 1.82561 32.8551C1.95935 33.1457 2.10112 33.431 2.24958 33.711C2.39803 33.9923 2.55318 34.267 2.71634 34.5391C2.87817 34.8099 3.04803 35.0767 3.22457 35.3369C3.40111 35.5971 3.58434 35.8533 3.77426 36.103C3.96418 36.3526 4.16078 36.5983 4.36541 36.8373C4.5687 37.0764 4.78002 37.3102 4.99668 37.5373C5.03279 37.5743 5.06757 37.6113 5.10368 37.6483C5.13979 37.6853 5.1759 37.7209 5.21201 37.7579C5.24812 37.7949 5.28423 37.8306 5.32034 37.8662C5.35645 37.9019 5.39257 37.9376 5.43001 37.9732C5.46612 38.0089 5.50357 38.0445 5.53968 38.0789C5.57713 38.1145 5.61324 38.1489 5.65069 38.1832C5.68814 38.2176 5.72559 38.2519 5.76304 38.2862C5.80049 38.3206 5.83793 38.3549 5.87538 38.3879C5.91283 38.421 5.95162 38.4553 5.98906 38.4897C6.02651 38.5227 6.0653 38.557 6.10408 38.59C6.14287 38.6231 6.18032 38.6561 6.2191 38.6891C6.25789 38.7221 6.29668 38.7538 6.33546 38.7868C6.37425 38.8185 6.41303 38.8516 6.45182 38.8832C6.4906 38.9149 6.53073 38.9466 6.56951 38.9783C6.6083 39.01 6.64842 39.0404 6.68855 39.0721C6.72867 39.1038 6.76746 39.1342 6.80758 39.1646C6.84636 39.195 6.88649 39.2253 6.92661 39.2544C6.96673 39.2848 7.00552 39.3138 7.04564 39.3429C7.08577 39.3719 7.12589 39.401 7.16601 39.4301C7.20614 39.4591 7.24626 39.4882 7.28638 39.5159C7.32651 39.545 7.36663 39.5727 7.40809 39.6018C7.44821 39.6295 7.48967 39.6586 7.5298 39.6863C7.57126 39.714 7.61138 39.7418 7.65284 39.7695C7.6943 39.7973 7.73576 39.8237 7.77589 39.8514C7.81601 39.8791 7.85881 39.9056 7.90027 39.932C7.94173 39.9584 7.98319 39.9848 8.02465 40.0112C8.06611 40.0376 8.10891 40.0627 8.15037 40.0891C8.19183 40.1156 8.23463 40.1407 8.27609 40.1658C8.31889 40.1909 8.36035 40.2159 8.40315 40.241C8.44594 40.2661 8.48874 40.2912 8.5302 40.315C8.573 40.3401 8.6158 40.3639 8.6586 40.3877C8.7014 40.4114 8.74419 40.4352 8.78699 40.459L9.14944 40.6584L9.51189 40.8579L9.87433 41.0573L10.2368 41.2567L10.5992 41.4562L10.9617 41.6556L11.3241 41.8551L11.6866 42.0545L12.049 42.254L12.4115 42.4534L12.7739 42.6528L13.1364 42.8523L13.4988 43.0517L13.8612 43.2512L14.2237 43.4506L14.5861 43.65C14.5942 43.654 14.6035 43.6593 14.6116 43.6633C14.6196 43.6672 14.6289 43.6725 14.637 43.6765C14.645 43.6804 14.6543 43.6857 14.6624 43.6897C14.6704 43.6936 14.6798 43.6989 14.6878 43.7029C14.6958 43.7068 14.7052 43.7121 14.7132 43.7161C14.7212 43.72 14.7306 43.7253 14.7386 43.7293C14.7466 43.7333 14.756 43.7385 14.764 43.7425C14.772 43.7465 14.7814 43.7517 14.7894 43.7557C14.7975 43.7597 14.8068 43.765 14.8148 43.7689C14.8229 43.7729 14.8322 43.7782 14.8403 43.7821C14.8483 43.7861 14.8576 43.7914 14.8657 43.7953C14.8737 43.7993 14.8831 43.8046 14.8911 43.8085C14.8991 43.8125 14.9085 43.8178 14.9165 43.8218C14.9245 43.8257 14.9339 43.831 14.9419 43.835C14.9499 43.8389 14.9593 43.8442 14.9673 43.8482C14.9753 43.8521 14.9847 43.8574 14.9927 43.8614L14.5273 45.8532L14.0619 47.8449L13.5964 49.8367L13.131 51.8285L12.6656 53.8203L12.2001 55.812L11.7347 57.8038L11.2693 59.7956L10.8039 61.7874L10.3384 63.7792L9.873 65.7709L9.40757 67.7627L8.94214 69.7545L8.47671 71.7463L8.01128 73.738L7.54585 75.7298C7.54317 75.7417 7.5405 75.7536 7.53916 75.7655C7.53782 75.7774 7.53648 75.7893 7.53515 75.8011C7.53381 75.813 7.53515 75.8249 7.53515 75.8368C7.53515 75.8487 7.53515 75.8606 7.53648 75.8725C7.53648 75.8844 7.53916 75.8962 7.54183 75.9081C7.54317 75.92 7.54585 75.9319 7.54852 75.9438C7.5512 75.9557 7.55521 75.9676 7.55788 75.9781C7.5619 75.99 7.56591 76.0006 7.56992 76.0125C7.57393 76.0244 7.57928 76.0349 7.58463 76.0468C7.58998 76.0574 7.59533 76.0693 7.60068 76.0798C7.60603 76.0904 7.61272 76.101 7.61807 76.1129C7.62476 76.1234 7.63144 76.134 7.63813 76.1446C7.64482 76.1551 7.6515 76.1657 7.65953 76.1749C7.66755 76.1855 7.67424 76.1947 7.68227 76.204C7.69029 76.2132 7.69831 76.2225 7.70634 76.233C7.71436 76.2423 7.72373 76.2515 7.73175 76.2608C7.73309 76.2621 7.73576 76.2647 7.7371 76.2661C7.73844 76.2674 7.74111 76.27 7.74245 76.2714C7.74379 76.2727 7.74646 76.2753 7.7478 76.2766C7.74914 76.278 7.75181 76.2806 7.75315 76.2819C7.75449 76.2832 7.75716 76.2859 7.7585 76.2872C7.75984 76.2885 7.76251 76.2912 7.76385 76.2925C7.76519 76.2938 7.76786 76.2964 7.7692 76.2978C7.77187 76.2991 7.77321 76.3004 7.77589 76.3031C7.77856 76.3044 7.7799 76.3057 7.78257 76.3083C7.78525 76.3097 7.78659 76.311 7.78926 76.3136C7.79194 76.3163 7.79327 76.3163 7.79595 76.3176C7.79862 76.3189 7.79996 76.3202 7.80264 76.3215C7.80531 76.3229 7.80665 76.3242 7.80932 76.3255C7.812 76.3268 7.81333 76.3281 7.81601 76.3295C7.81868 76.3308 7.82002 76.3321 7.8227 76.3334C7.82537 76.3347 7.82671 76.3361 7.82938 76.3374C7.82938 76.3374 7.82938 76.3374 7.83072 76.3374C7.83206 76.3374 7.83206 76.3374 7.8334 76.3387C7.8334 76.3387 7.83473 76.3387 7.83607 76.34C7.83607 76.34 7.83741 76.34 7.83875 76.3414C7.83875 76.3414 7.84142 76.3414 7.84142 76.3427C7.84142 76.3427 7.8441 76.3427 7.8441 76.344C7.8441 76.344 7.84677 76.344 7.84677 76.3453C7.84677 76.3453 7.84945 76.3453 7.84945 76.3466C7.84945 76.348 7.85212 76.3466 7.85212 76.348C7.85212 76.3493 7.85346 76.348 7.8548 76.3493C7.8548 76.3493 7.85613 76.3493 7.85747 76.3493C7.85881 76.3493 7.85747 76.3493 7.85881 76.3493L8.21724 76.5685L8.57568 76.7878L8.93411 77.007L9.29255 77.2263L9.65098 77.4455L10.0094 77.6648L10.3678 77.8841L10.7263 78.1033L11.0847 78.3226L11.4432 78.5418L11.8016 78.7611L12.16 78.9803L12.5185 79.1996L12.8769 79.4188L13.2353 79.6381L13.5938 79.8573C13.5938 79.8573 13.5951 79.8573 13.5964 79.8587C13.5964 79.8587 13.5978 79.8587 13.5991 79.86C13.5991 79.86 13.6004 79.86 13.6018 79.8613C13.6018 79.8613 13.6031 79.8613 13.6045 79.8626H13.6071C13.6071 79.8626 13.6085 79.8653 13.6098 79.8653C13.6098 79.8653 13.6111 79.8653 13.6125 79.8666C13.6125 79.8666 13.6138 79.8666 13.6152 79.8679C13.6152 79.8679 13.6165 79.8679 13.6178 79.8692C13.6192 79.8706 13.6192 79.8692 13.6205 79.8706C13.6205 79.8706 13.6218 79.8705 13.6232 79.8719C13.6232 79.8719 13.6245 79.8719 13.6259 79.8732C13.6259 79.8732 13.6272 79.8732 13.6285 79.8745C13.6285 79.8745 13.6299 79.8745 13.6312 79.8758H13.6339C13.6339 79.8758 13.6352 79.8785 13.6366 79.8785H13.6392C13.6392 79.8785 13.6406 79.8811 13.6419 79.8811C13.6432 79.8811 13.6432 79.8811 13.6446 79.8824C13.6446 79.8824 13.6459 79.8824 13.6473 79.8824C13.6473 79.8824 13.6486 79.8824 13.6499 79.8824C13.6499 79.8824 13.6513 79.8824 13.6526 79.8824C13.6526 79.8824 13.6539 79.8824 13.6553 79.8824H13.658C13.658 79.8824 13.6593 79.8851 13.6606 79.8851C13.6606 79.8851 13.662 79.8851 13.6633 79.8851C13.6633 79.8851 13.6646 79.8851 13.666 79.8851C13.666 79.8851 13.6673 79.8851 13.6687 79.8851H13.6713C13.6713 79.8851 13.6727 79.8877 13.674 79.8877C13.674 79.8877 13.6753 79.8877 13.6767 79.8877C13.6767 79.8877 13.678 79.8877 13.6794 79.8877C13.686 79.8904 13.6914 79.8943 13.6981 79.897C13.7048 79.8996 13.7101 79.9022 13.7168 79.9049C13.7235 79.9075 13.7288 79.9102 13.7355 79.9128C13.7422 79.9155 13.7489 79.9181 13.7543 79.9207C13.7609 79.9234 13.7676 79.926 13.7743 79.9273C13.781 79.93 13.7877 79.9313 13.7944 79.9339C13.8011 79.9366 13.8077 79.9379 13.8144 79.9392C13.8211 79.9405 13.8278 79.9432 13.8345 79.9445C13.8412 79.9458 13.8479 79.9472 13.8546 79.9485C13.8612 79.9498 13.8679 79.9511 13.8746 79.9524C13.8813 79.9524 13.888 79.9551 13.8947 79.9551C13.9014 79.9551 13.9081 79.9564 13.9147 79.9577C13.9214 79.9577 13.9281 79.959 13.9348 79.9604C13.9415 79.9604 13.9482 79.9604 13.9549 79.9617C13.9616 79.9617 13.9682 79.9617 13.9749 79.9617C13.9816 79.9617 13.9883 79.9617 13.995 79.9617C13.9977 79.9617 14.0003 79.9617 14.003 79.9617C14.0057 79.9617 14.0084 79.9617 14.011 79.9617C14.0137 79.9617 14.0164 79.9617 14.0191 79.9617C14.0217 79.9617 14.0244 79.9617 14.0271 79.9617C14.0298 79.9617 14.0324 79.9617 14.0351 79.9617C14.0378 79.9617 14.0405 79.9617 14.0431 79.9617C14.0458 79.9617 14.0485 79.9617 14.0512 79.9617C14.0538 79.9617 14.0565 79.9617 14.0592 79.9617C14.0619 79.9617 14.0645 79.9617 14.0672 79.9617C14.0699 79.9617 14.0726 79.9617 14.0752 79.9617C14.0779 79.9617 14.0806 79.9617 14.0833 79.9617C14.0859 79.9617 14.0886 79.9617 14.0913 79.9617C14.094 79.9617 14.0966 79.9617 14.0993 79.9617C14.102 79.9617 14.1047 79.9617 14.1073 79.9617C14.11 79.9617 14.1127 79.9617 14.1154 79.9604C14.118 79.9604 14.1207 79.9604 14.1234 79.959L14.4016 79.9049L14.6798 79.8507L14.9579 79.7966L15.2361 79.7424L15.5143 79.6883L15.7925 79.6341L16.0707 79.58L16.3489 79.5258L16.6271 79.4717L16.9053 79.4175L17.1835 79.3634L17.4616 79.3092L17.7398 79.2551L18.018 79.2009L18.2962 79.1467L18.5744 79.0926C18.5838 79.0913 18.5945 79.0886 18.6038 79.086C18.6132 79.0834 18.6225 79.0807 18.6332 79.0781C18.6426 79.0754 18.652 79.0715 18.6613 79.0688C18.6707 79.0649 18.6801 79.0622 18.6894 79.0583C18.6988 79.0543 18.7081 79.0503 18.7162 79.0464C18.7255 79.0424 18.7335 79.0371 18.7429 79.0332C18.7509 79.0292 18.7603 79.0239 18.7683 79.0186C18.7763 79.0133 18.7844 79.0081 18.7937 79.0028C18.8018 78.9975 18.8098 78.9922 18.8178 78.9856C18.8258 78.9803 18.8339 78.9737 18.8405 78.9671C18.8486 78.9605 18.8553 78.9552 18.8633 78.9486C18.87 78.942 18.878 78.9354 18.8847 78.9288C18.8914 78.9222 18.8981 78.9143 18.9047 78.9077C18.9114 78.9011 18.9181 78.8932 18.9235 78.8852C18.9302 78.8773 18.9355 78.8694 18.9422 78.8628C18.9489 78.8562 18.9542 78.8469 18.9596 78.839C18.9596 78.8377 18.9609 78.8364 18.9623 78.835C18.9636 78.8337 18.9636 78.8324 18.9649 78.8311C18.9663 78.8297 18.9663 78.8284 18.9676 78.8271C18.9676 78.8258 18.9689 78.8245 18.9703 78.8231C18.9703 78.8218 18.9716 78.8205 18.9729 78.8192C18.9729 78.8179 18.9743 78.8165 18.9756 78.8152C18.9756 78.8139 18.977 78.8126 18.9783 78.8099C18.9796 78.8073 18.9796 78.8073 18.981 78.8047C18.981 78.8033 18.9823 78.802 18.9836 78.7994C18.9836 78.7981 18.985 78.7967 18.9863 78.7941C18.9863 78.7928 18.9877 78.7915 18.989 78.7888C18.989 78.7875 18.9903 78.7862 18.9917 78.7835C18.993 78.7809 18.993 78.7809 18.9943 78.7782C18.9943 78.7769 18.9957 78.7756 18.997 78.773C18.997 78.7716 18.9984 78.7703 18.9997 78.7677C18.9997 78.7664 19.001 78.765 19.0024 78.7624L20.3612 75.8949L21.7201 73.0274L23.0789 70.16L24.4377 67.2925L25.7966 64.425L27.1554 61.5576L28.5143 58.6901L29.8731 55.8226L31.2319 52.9551L32.5908 50.0877L33.9496 47.2202L35.3085 44.3527L36.6673 41.4852L38.0261 38.6178L39.385 35.7503L40.7438 32.8828C40.7585 32.8538 40.7719 32.826 40.7866 32.797C40.8013 32.7679 40.8147 32.7402 40.8294 32.7111C40.8441 32.6821 40.8575 32.6543 40.8722 32.6253C40.8869 32.5962 40.9003 32.5685 40.915 32.5394C40.9297 32.5104 40.9431 32.4826 40.9578 32.4536C40.9725 32.4245 40.9859 32.3954 41.0006 32.3677C41.014 32.3387 41.0287 32.3096 41.0421 32.2819C41.0555 32.2528 41.0702 32.2237 41.0835 32.1947C41.0969 32.1656 41.1116 32.1366 41.125 32.1075C41.1384 32.0785 41.1517 32.0494 41.1665 32.0203C41.1798 31.9913 41.1932 31.9622 41.2066 31.9332C41.22 31.9041 41.2333 31.875 41.2467 31.846C41.2601 31.8169 41.2735 31.7879 41.2868 31.7588C41.3002 31.7298 41.3136 31.7007 41.3256 31.6703C41.339 31.6413 41.351 31.6109 41.3644 31.5818C41.3778 31.5528 41.3898 31.5224 41.4032 31.4933C41.4527 31.3771 41.5022 31.2609 41.5503 31.1433C41.5985 31.0258 41.6453 30.9095 41.6921 30.792C41.7389 30.6744 41.783 30.5569 41.8285 30.4393C41.874 30.3218 41.9168 30.2029 41.9596 30.0854C42.0024 29.9678 42.0438 29.8489 42.0853 29.7301C42.1267 29.6112 42.1655 29.4923 42.2057 29.3734C42.2444 29.2546 42.2832 29.1357 42.3193 29.0155C42.3568 28.8966 42.3929 28.7764 42.4277 28.6562C42.4624 28.536 42.4972 28.4159 42.5306 28.2957C42.5641 28.1755 42.5962 28.0553 42.6283 27.9351C42.6604 27.8149 42.6911 27.6934 42.7206 27.5732C42.75 27.4517 42.7794 27.3315 42.8075 27.21C42.8356 27.0884 42.8623 26.9669 42.8891 26.8454C42.9158 26.7239 42.9412 26.6024 42.9653 26.4809C42.9894 26.3594 43.0135 26.2365 43.0362 26.115C43.0589 25.9935 43.0803 25.8707 43.1004 25.7478C43.1338 25.9499 43.1686 26.1493 43.2074 26.3488C43.2462 26.5469 43.2876 26.745 43.3318 26.9405C43.3759 27.136 43.4241 27.3301 43.4735 27.5217C43.5244 27.7145 43.5765 27.9047 43.6327 28.0936C43.6889 28.2825 43.7477 28.4687 43.8092 28.6536C43.8708 28.8385 43.935 29.0221 44.0018 29.2031C44.0687 29.384 44.1383 29.5636 44.2118 29.7406C44.284 29.9176 44.3603 30.0933 44.4378 30.2663C44.5154 30.4393 44.597 30.6097 44.6799 30.7788C44.7628 30.9478 44.8498 31.1143 44.9394 31.278C45.029 31.4418 45.1199 31.6043 45.2149 31.7641C45.3099 31.9239 45.4062 32.0811 45.5051 32.2356C45.6041 32.3902 45.7071 32.5421 45.8114 32.6926C45.9157 32.8432 46.024 32.9898 46.1337 33.1338C46.2434 33.2777 46.3571 33.4204 46.4721 33.5591C46.5871 33.6978 46.7048 33.8338 46.8252 33.9685C46.8519 33.9989 46.88 34.0293 46.9081 34.0597C46.9362 34.09 46.9629 34.1191 46.991 34.1495C47.0191 34.1785 47.0472 34.2089 47.0739 34.238C47.102 34.267 47.1301 34.2961 47.1582 34.3251C47.1863 34.3542 47.2144 34.3833 47.2425 34.411C47.2705 34.4401 47.2986 34.4678 47.3281 34.4968C47.3561 34.5246 47.3856 34.5536 47.4137 34.5814C47.4417 34.6091 47.4712 34.6369 47.5006 34.6646C47.53 34.6923 47.5581 34.7201 47.5875 34.7465C47.6169 34.7742 47.6464 34.8006 47.6745 34.8284C47.7039 34.8548 47.7333 34.8825 47.7627 34.9089C47.7921 34.9354 47.8216 34.9618 47.851 34.9882C47.8804 35.0146 47.9098 35.041 47.9406 35.0661C47.97 35.0925 48.0008 35.1176 48.0302 35.1427C48.0596 35.1678 48.0904 35.1942 48.1212 35.2193C48.1519 35.2444 48.1813 35.2695 48.2121 35.2946C48.2536 35.329 48.295 35.362 48.3365 35.395C48.3779 35.428 48.4194 35.461 48.4622 35.4927C48.5037 35.5258 48.5465 35.5575 48.5879 35.5892C48.6294 35.6209 48.6722 35.6526 48.715 35.6843C48.7578 35.716 48.8006 35.7463 48.8434 35.7767C48.8862 35.8071 48.929 35.8375 48.9718 35.8678C49.0146 35.8982 49.0587 35.9273 49.1015 35.9563C49.1456 35.9854 49.1884 36.0145 49.2326 36.0435C49.2767 36.0726 49.3208 36.1003 49.365 36.128C49.4091 36.1558 49.4532 36.1835 49.4974 36.2113C49.5415 36.239 49.587 36.2654 49.6311 36.2918C49.6753 36.3182 49.7207 36.3447 49.7662 36.3711C49.8117 36.3975 49.8558 36.4226 49.9013 36.4477C49.9468 36.4728 49.9922 36.4979 50.0377 36.523C50.0832 36.5481 50.1287 36.5718 50.1755 36.5956C50.2209 36.6194 50.2678 36.6432 50.3132 36.6669L50.5566 36.7898L50.8001 36.9126L51.0435 37.0354L51.2869 37.1583L51.5303 37.2811L51.7737 37.4039L52.0171 37.5268L52.2605 37.6496L52.504 37.7724L52.7474 37.8953L52.9908 38.0181L53.2342 38.141L53.4776 38.2638L53.721 38.3866L53.9644 38.5095L54.2079 38.6323L53.7371 40.4709L53.2663 42.3094L52.7955 44.148L52.3247 45.9866L51.854 47.8251L51.3832 49.6637L50.9124 51.5022L50.4416 53.3408L49.9708 55.1794L49.5001 57.0179L49.0293 58.8565L48.5585 60.6951L48.0877 62.5336L47.6169 64.3722L47.1462 66.2108L46.6754 68.0493C46.6727 68.0612 46.67 68.0744 46.6674 68.0863C46.6647 68.0982 46.6633 68.1114 46.662 68.1233C46.6607 68.1352 46.6593 68.1484 46.6593 68.1603C46.6593 68.1722 46.6593 68.1854 46.6593 68.1973C46.6593 68.2091 46.6593 68.2223 46.6607 68.2342C46.6607 68.2461 46.6633 68.258 46.6647 68.2712C46.666 68.2831 46.6687 68.295 46.67 68.3069C46.6727 68.3188 46.6754 68.3307 46.6781 68.3425C46.6807 68.3544 46.6847 68.3663 46.6888 68.3769C46.6928 68.3888 46.6968 68.3993 46.7008 68.4112C46.7048 68.4231 46.7102 68.4337 46.7155 68.4442C46.7209 68.4548 46.7262 68.4667 46.7329 68.4773C46.7382 68.4878 46.7449 68.4984 46.7516 68.509C46.7583 68.5195 46.765 68.5301 46.773 68.5393C46.781 68.5499 46.7877 68.5592 46.7958 68.5684C46.8038 68.5776 46.8118 68.5869 46.8212 68.5961C46.8225 68.5975 46.8238 68.5988 46.8252 68.6001C46.8265 68.6014 46.8279 68.6027 46.8292 68.6041C46.8305 68.6054 46.8319 68.6067 46.8332 68.608C46.8345 68.6093 46.8359 68.6107 46.8372 68.612C46.8386 68.6133 46.8399 68.6146 46.8412 68.6159C46.8426 68.6173 46.8439 68.6186 46.8452 68.6199C46.8466 68.6212 46.8479 68.6226 46.8493 68.6239C46.8506 68.6252 46.8519 68.6265 46.8533 68.6278C46.8546 68.6278 46.8559 68.6305 46.8573 68.6318C46.8586 68.6331 46.8599 68.6344 46.8613 68.6358C46.8626 68.6358 46.864 68.6384 46.8653 68.6397C46.8666 68.6397 46.868 68.6424 46.8693 68.6437C46.8706 68.6437 46.872 68.6463 46.8733 68.6476C46.8747 68.6476 46.876 68.6503 46.8773 68.6516C46.8787 68.6529 46.88 68.6543 46.8813 68.6556C46.8827 68.6569 46.884 68.6582 46.8854 68.6595L46.8894 68.6622L46.8934 68.6648C46.8934 68.6648 46.8961 68.6661 46.8974 68.6675C46.8987 68.6675 46.9001 68.6688 46.9014 68.6701C46.9027 68.6701 46.9041 68.6714 46.9054 68.6727C46.9068 68.6741 46.9081 68.6741 46.9094 68.6754C46.9108 68.6754 46.9121 68.6767 46.9134 68.678C46.9148 68.678 46.9161 68.6793 46.9175 68.6807C46.9188 68.6807 46.9201 68.682 46.9215 68.6833C46.9228 68.6846 46.9241 68.6846 46.9255 68.6859C46.9268 68.6859 46.9282 68.6873 46.9295 68.6886C46.9308 68.6886 46.9322 68.6899 46.9335 68.6912C46.9348 68.6912 46.9362 68.6926 46.9375 68.6939C46.9389 68.6939 46.9402 68.6952 46.9415 68.6965C46.9429 68.6965 46.9442 68.6978 46.9455 68.6992C46.9469 68.6992 46.9482 68.7005 46.9496 68.7018C46.9496 68.7018 46.9496 68.7018 46.9509 68.7018C46.9509 68.7018 46.9509 68.7018 46.9522 68.7018C46.9522 68.7018 46.9522 68.7018 46.9536 68.7018C46.9536 68.7018 46.9536 68.7018 46.9549 68.7018C46.9549 68.7018 46.9549 68.7018 46.9562 68.7018C46.9562 68.7018 46.9562 68.7018 46.9576 68.7018L47.3428 68.9171L47.728 69.1324L48.1131 69.3477L48.4983 69.563L48.8835 69.7783L49.2687 69.9936L49.6539 70.2088L50.039 70.4241L50.4242 70.6394L50.8094 70.8547L51.1946 71.07L51.5798 71.2853L51.965 71.5006L52.3501 71.7159L52.7353 71.9312L53.1205 72.1465C53.1259 72.1491 53.1312 72.1517 53.1366 72.1544C53.1419 72.157 53.1473 72.1597 53.1526 72.1623C53.158 72.165 53.1633 72.1676 53.1687 72.1689C53.174 72.1716 53.1794 72.1729 53.186 72.1755C53.1914 72.1782 53.1968 72.1795 53.2034 72.1821C53.2088 72.1834 53.2155 72.1861 53.2208 72.1874C53.2262 72.1887 53.2329 72.1914 53.2382 72.1927C53.2436 72.194 53.2502 72.1953 53.2556 72.1967C53.2609 72.198 53.2676 72.1993 53.273 72.2006C53.2783 72.2019 53.285 72.2033 53.2904 72.2046C53.2957 72.2046 53.3024 72.2072 53.3078 72.2072C53.3131 72.2072 53.3198 72.2085 53.3251 72.2099C53.3318 72.2099 53.3372 72.2112 53.3439 72.2112C53.3506 72.2112 53.3559 72.2112 53.3626 72.2125C53.3693 72.2125 53.3746 72.2125 53.3813 72.2125C53.388 72.2125 53.3934 72.2125 53.4 72.2125C53.4027 72.2125 53.4054 72.2125 53.4067 72.2125C53.4081 72.2125 53.4121 72.2125 53.4134 72.2125C53.4161 72.2125 53.4188 72.2125 53.4201 72.2125C53.4228 72.2125 53.4255 72.2125 53.4268 72.2125C53.4281 72.2125 53.4321 72.2125 53.4335 72.2125C53.4362 72.2125 53.4388 72.2125 53.4402 72.2125C53.4428 72.2125 53.4455 72.2125 53.4468 72.2125C53.4495 72.2125 53.4522 72.2125 53.4535 72.2125C53.4549 72.2125 53.4589 72.2125 53.4602 72.2125C53.4616 72.2125 53.4656 72.2125 53.4669 72.2125C53.4696 72.2125 53.4723 72.2125 53.4736 72.2125C53.4763 72.2125 53.4789 72.2125 53.4803 72.2125C53.483 72.2125 53.4856 72.2125 53.487 72.2125C53.4896 72.2125 53.4923 72.2125 53.4937 72.2125C53.4963 72.2125 53.499 72.2125 53.5003 72.2112C53.503 72.2112 53.5057 72.2112 53.507 72.2099L53.7384 72.165L53.9698 72.12L54.2012 72.0751L54.4325 72.0302L54.6639 71.9853L54.8953 71.9404L55.1267 71.8955L55.3581 71.8506L55.5894 71.8057L55.8208 71.7608L56.0522 71.7159L56.2836 71.671L56.5149 71.6261L56.7463 71.5812L56.9777 71.5363L57.2091 71.4913L57.2559 71.531Z" fill="#41D9D9"/>
<path d="M21.9797 44.9851C21.8098 45.7129 21.64 46.4393 21.4715 47.1658C21.3016 47.8922 21.1331 48.6173 20.9632 49.3425C20.7947 50.0676 20.6249 50.7914 20.4563 51.5152C20.2878 52.239 20.1193 52.9615 19.9508 53.684C19.7823 54.4064 19.6138 55.1276 19.4452 55.8488C19.2767 56.5699 19.1082 57.2898 18.941 58.0109C18.7725 58.7308 18.6053 59.4506 18.4368 60.1691C18.2696 60.8876 18.1011 61.6062 17.9339 62.3234C17.7667 63.0406 17.5996 63.7578 17.4324 64.4736C17.2652 65.1895 17.098 65.9054 16.9308 66.6199C16.7637 67.3345 16.5978 68.0491 16.4306 68.7623C16.2635 69.4755 16.0976 70.1888 15.9318 70.902C15.7659 71.6139 15.5988 72.3258 15.4329 73.0377C15.2671 73.7483 15.1012 74.4589 14.9354 75.1695C14.7695 75.8801 14.6037 76.5894 14.4392 77.2973C14.2733 78.0066 14.1088 78.7146 13.943 79.4212C14.038 79.4027 14.1329 79.3842 14.2279 79.3657C14.3228 79.3472 14.4178 79.3287 14.5127 79.3103C14.6077 79.2918 14.7027 79.2733 14.7976 79.2548C14.8926 79.2363 14.9875 79.2178 15.0812 79.1993C15.1748 79.1808 15.2697 79.1623 15.3647 79.1438C15.4597 79.1253 15.5533 79.1069 15.6482 79.0884C15.7432 79.0699 15.8368 79.0514 15.9318 79.0329C16.0267 79.0144 16.1204 78.9959 16.2153 78.9774C16.3089 78.9589 16.4039 78.9404 16.4975 78.9219C16.5911 78.9034 16.6861 78.885 16.7797 78.8665C16.8733 78.848 16.9683 78.8295 17.0619 78.811C17.1555 78.7925 17.2505 78.774 17.3441 78.7555C17.4377 78.737 17.5314 78.7185 17.6263 78.7C17.7199 78.6816 17.8136 78.6631 17.9072 78.6446C18.0008 78.6261 18.0944 78.6076 18.188 78.5891C18.2817 78.5706 18.3753 78.5521 18.4689 78.5336C18.9223 77.5774 19.3757 76.6198 19.8291 75.6635C20.2825 74.7072 20.7359 73.7497 21.1893 72.7934C21.6427 71.8371 22.096 70.8796 22.5494 69.9233C23.0028 68.967 23.4562 68.0108 23.9096 67.0532C24.363 66.0969 24.8164 65.1406 25.2698 64.1844C25.7232 63.2281 26.1766 62.2718 26.6286 61.3156C27.082 60.3593 27.5354 59.4031 27.9875 58.4468C28.4395 57.4905 28.8929 56.5343 29.3463 55.578C29.7997 54.6217 30.2518 53.6655 30.7052 52.7105C31.1585 51.7556 31.6106 50.7993 32.064 49.8431C32.5174 48.8868 32.9694 47.9318 33.4228 46.9756C33.8762 46.0193 34.3283 45.0644 34.7817 44.1094C35.2351 43.1545 35.6871 42.1982 36.1405 41.2433C36.5926 40.2883 37.046 39.3321 37.498 38.3771C37.9501 37.4222 38.4035 36.4672 38.8555 35.511C39.3076 34.556 39.761 33.6011 40.213 32.6461C40.2264 32.6184 40.2411 32.5907 40.2545 32.5629C40.2679 32.5352 40.2826 32.5075 40.296 32.4784C40.3093 32.4507 40.324 32.4229 40.3374 32.3939C40.3508 32.3661 40.3655 32.3384 40.3789 32.3093C40.3922 32.2816 40.407 32.2539 40.4203 32.2248C40.4337 32.1957 40.4484 32.168 40.4618 32.1403C40.4752 32.1125 40.4885 32.0835 40.5033 32.0557C40.518 32.028 40.53 31.9989 40.5434 31.9712C40.5568 31.9435 40.5701 31.9144 40.5835 31.8867C40.5969 31.8589 40.6103 31.8299 40.6236 31.8021C40.637 31.7744 40.6504 31.7453 40.6637 31.7163C40.6771 31.6872 40.6905 31.6595 40.7025 31.6304C40.7159 31.6014 40.7279 31.5736 40.7413 31.5446C40.7547 31.5155 40.7667 31.4878 40.7801 31.4587C40.7935 31.4297 40.8055 31.4006 40.8176 31.3729C40.8296 31.3438 40.843 31.3148 40.855 31.2857C40.9179 31.1378 40.9807 30.9898 41.0409 30.8406C41.1011 30.6913 41.1613 30.5408 41.2188 30.3902C41.2763 30.2396 41.3325 30.0877 41.3886 29.9358C41.4435 29.7839 41.497 29.6307 41.5491 29.4775C41.6013 29.3243 41.6521 29.1698 41.7016 29.0152C41.7511 28.8607 41.7992 28.7048 41.8447 28.549C41.8915 28.3931 41.9357 28.236 41.9798 28.0788C42.0226 27.9216 42.0654 27.7631 42.1055 27.6046C42.1456 27.4461 42.1844 27.2863 42.2219 27.1265C42.2593 26.9667 42.2941 26.8068 42.3289 26.6457C42.3623 26.4846 42.3957 26.3234 42.4265 26.161C42.4573 25.9985 42.4867 25.8361 42.5148 25.6736C42.5429 25.5111 42.5683 25.3474 42.5923 25.1836C42.6164 25.0198 42.6391 24.8547 42.6605 24.6896C42.6819 24.5245 42.7007 24.3594 42.7181 24.193C42.7354 24.0265 42.7515 23.8614 42.7662 23.6937C42.8237 23.0095 42.8505 22.3333 42.8478 21.6663C42.8451 20.9993 42.813 20.3415 42.7515 19.6956C42.6913 19.0497 42.6017 18.4144 42.4853 17.7923C42.369 17.1702 42.2259 16.5613 42.056 15.967C41.8862 15.3726 41.6909 14.7941 41.4716 14.2301C41.2509 13.6675 41.0061 13.1206 40.7386 12.5923C40.4698 12.064 40.1783 11.5542 39.864 11.0641C39.5497 10.5741 39.2126 10.1039 38.8542 9.65484C38.4958 9.20577 38.1159 8.77915 37.7174 8.37498C37.3175 7.97082 36.8989 7.59042 36.4602 7.23513C36.0215 6.87983 35.5641 6.54963 35.0893 6.24584C34.6145 5.94205 34.121 5.66601 33.6128 5.41769C33.1032 5.16938 32.5776 4.95013 32.0372 4.76125C31.4969 4.57238 30.9392 4.41256 30.3695 4.28576C29.7997 4.15897 29.2139 4.06387 28.6161 4.00179C28.0182 3.94103 27.4084 3.91329 26.7851 3.9199C26.1298 3.92914 25.4798 3.97669 24.8351 4.06123C24.1905 4.14576 23.5525 4.26727 22.9226 4.42313C22.2926 4.57898 21.6707 4.7705 21.0582 4.99372C20.4456 5.21693 19.8438 5.47317 19.254 5.7611C18.6642 6.04772 18.0851 6.36603 17.5207 6.71341C16.9563 7.06078 16.4052 7.43589 15.8689 7.83873C15.3339 8.24158 14.8137 8.67084 14.3108 9.12652C13.8079 9.58088 13.3238 10.0617 12.857 10.5636C12.3902 11.0655 11.9449 11.5925 11.5196 12.1393C11.0942 12.6861 10.6903 13.2554 10.3092 13.8418C9.928 14.4296 9.5709 15.0358 9.23788 15.6606C8.90486 16.284 8.59724 16.9259 8.31638 17.5823C8.03552 18.2388 7.7814 18.9111 7.55538 19.5966C7.32935 20.2821 7.13275 20.9808 6.9669 21.6914C6.80106 22.402 6.66464 23.1231 6.56166 23.8548C6.45867 24.5866 6.38779 25.3262 6.35168 26.0751C6.31958 26.754 6.31691 27.4223 6.34232 28.0775C6.36773 28.7326 6.42123 29.3758 6.50147 30.0045C6.58172 30.6332 6.68871 31.2474 6.82112 31.8484C6.95353 32.4493 7.11135 33.0331 7.29324 33.6011C7.47513 34.169 7.6811 34.7211 7.91114 35.2561C8.13984 35.791 8.39262 36.3074 8.66545 36.8067C8.93829 37.3059 9.23387 37.7854 9.54817 38.245C9.86246 38.7047 10.1982 39.1458 10.5512 39.5645C10.9043 39.9832 11.2775 40.3821 11.668 40.7585C12.0585 41.135 12.4665 41.4889 12.8891 41.8191C13.3131 42.1493 13.7531 42.4571 14.2078 42.7384C14.6625 43.0211 15.132 43.2786 15.6161 43.5111C16.099 43.7436 16.5965 43.9496 17.1047 44.1292C17.6143 44.3089 18.1345 44.4608 18.6668 44.5849C19.1991 44.7091 19.7421 44.8055 20.2945 44.8715C20.8469 44.9376 21.4086 44.9759 21.9797 44.9825V44.9851Z" fill="#050D33"/>
<path d="M21.9797 44.9851C21.8098 45.7129 21.64 46.4393 21.4715 47.1658C21.3016 47.8922 21.1331 48.6173 20.9632 49.3425C20.7947 50.0676 20.6249 50.7914 20.4563 51.5152C20.2878 52.239 20.1193 52.9615 19.9508 53.684C19.7823 54.4064 19.6138 55.1276 19.4452 55.8488C19.2767 56.5699 19.1082 57.2898 18.941 58.0109C18.7725 58.7308 18.6053 59.4506 18.4368 60.1691C18.2696 60.8876 18.1011 61.6062 17.9339 62.3234C17.7667 63.0406 17.5996 63.7578 17.4324 64.4736C17.2652 65.1895 17.098 65.9054 16.9308 66.6199C16.7637 67.3345 16.5978 68.0491 16.4306 68.7623C16.2635 69.4755 16.0976 70.1888 15.9318 70.902C15.7659 71.6139 15.5988 72.3258 15.4329 73.0377C15.2671 73.7483 15.1012 74.4589 14.9354 75.1695C14.7695 75.8801 14.6037 76.5894 14.4392 77.2973C14.2733 78.0066 14.1088 78.7146 13.943 79.4212C14.038 79.4027 14.1329 79.3842 14.2279 79.3657C14.3228 79.3472 14.4178 79.3287 14.5127 79.3103C14.6077 79.2918 14.7027 79.2733 14.7976 79.2548C14.8926 79.2363 14.9875 79.2178 15.0812 79.1993C15.1748 79.1808 15.2697 79.1623 15.3647 79.1438C15.4597 79.1253 15.5533 79.1069 15.6482 79.0884C15.7432 79.0699 15.8368 79.0514 15.9318 79.0329C16.0267 79.0144 16.1204 78.9959 16.2153 78.9774C16.3089 78.9589 16.4039 78.9404 16.4975 78.9219C16.5911 78.9034 16.6861 78.885 16.7797 78.8665C16.8733 78.848 16.9683 78.8295 17.0619 78.811C17.1555 78.7925 17.2505 78.774 17.3441 78.7555C17.4377 78.737 17.5314 78.7185 17.6263 78.7C17.7199 78.6816 17.8136 78.6631 17.9072 78.6446C18.0008 78.6261 18.0944 78.6076 18.188 78.5891C18.2817 78.5706 18.3753 78.5521 18.4689 78.5336C18.9223 77.5774 19.3757 76.6198 19.8291 75.6635C20.2825 74.7072 20.7359 73.7497 21.1893 72.7934C21.6427 71.8371 22.096 70.8796 22.5494 69.9233C23.0028 68.967 23.4562 68.0108 23.9096 67.0532C24.363 66.0969 24.8164 65.1406 25.2698 64.1844C25.7232 63.2281 26.1766 62.2718 26.6286 61.3156C27.082 60.3593 27.5354 59.4031 27.9875 58.4468C28.4395 57.4905 28.8929 56.5343 29.3463 55.578C29.7997 54.6217 30.2518 53.6655 30.7052 52.7105C31.1585 51.7556 31.6106 50.7993 32.064 49.8431C32.5174 48.8868 32.9694 47.9318 33.4228 46.9756C33.8762 46.0193 34.3283 45.0644 34.7817 44.1094C35.2351 43.1545 35.6871 42.1982 36.1405 41.2433C36.5926 40.2883 37.046 39.3321 37.498 38.3771C37.9501 37.4222 38.4035 36.4672 38.8555 35.511C39.3076 34.556 39.761 33.6011 40.213 32.6461C40.2264 32.6184 40.2411 32.5907 40.2545 32.5629C40.2679 32.5352 40.2826 32.5075 40.296 32.4784C40.3093 32.4507 40.324 32.4229 40.3374 32.3939C40.3508 32.3661 40.3655 32.3384 40.3789 32.3093C40.3922 32.2816 40.407 32.2539 40.4203 32.2248C40.4337 32.1957 40.4484 32.168 40.4618 32.1403C40.4752 32.1125 40.4885 32.0835 40.5033 32.0557C40.518 32.028 40.53 31.9989 40.5434 31.9712C40.5568 31.9435 40.5701 31.9144 40.5835 31.8867C40.5969 31.8589 40.6103 31.8299 40.6236 31.8021C40.637 31.7744 40.6504 31.7453 40.6637 31.7163C40.6771 31.6872 40.6905 31.6595 40.7025 31.6304C40.7159 31.6014 40.7279 31.5736 40.7413 31.5446C40.7547 31.5155 40.7667 31.4878 40.7801 31.4587C40.7935 31.4297 40.8055 31.4006 40.8176 31.3729C40.8296 31.3438 40.843 31.3148 40.855 31.2857C40.9179 31.1378 40.9807 30.9898 41.0409 30.8406C41.1011 30.6913 41.1613 30.5408 41.2188 30.3902C41.2763 30.2396 41.3325 30.0877 41.3886 29.9358C41.4435 29.7839 41.497 29.6307 41.5491 29.4775C41.6013 29.3243 41.6521 29.1698 41.7016 29.0152C41.7511 28.8607 41.7992 28.7048 41.8447 28.549C41.8915 28.3931 41.9357 28.236 41.9798 28.0788C42.0226 27.9216 42.0654 27.7631 42.1055 27.6046C42.1456 27.4461 42.1844 27.2863 42.2219 27.1265C42.2593 26.9667 42.2941 26.8068 42.3289 26.6457C42.3623 26.4846 42.3957 26.3234 42.4265 26.161C42.4573 25.9985 42.4867 25.8361 42.5148 25.6736C42.5429 25.5111 42.5683 25.3474 42.5923 25.1836C42.6164 25.0198 42.6391 24.8547 42.6605 24.6896C42.6819 24.5245 42.7007 24.3594 42.7181 24.193C42.7354 24.0265 42.7515 23.8614 42.7662 23.6937C42.8237 23.0095 42.8505 22.3333 42.8478 21.6663C42.8451 20.9993 42.813 20.3415 42.7515 19.6956C42.6913 19.0497 42.6017 18.4144 42.4853 17.7923C42.369 17.1702 42.2259 16.5613 42.056 15.967C41.8862 15.3726 41.6909 14.7941 41.4716 14.2301C41.2509 13.6675 41.0061 13.1206 40.7386 12.5923C40.4698 12.064 40.1783 11.5542 39.864 11.0641C39.5497 10.5741 39.2126 10.1039 38.8542 9.65484C38.4958 9.20577 38.1159 8.77915 37.7174 8.37498C37.3175 7.97082 36.8989 7.59042 36.4602 7.23513C36.0215 6.87983 35.5641 6.54963 35.0893 6.24584C34.6145 5.94205 34.121 5.66601 33.6128 5.41769C33.1032 5.16938 32.5776 4.95013 32.0372 4.76125C31.4969 4.57238 30.9392 4.41256 30.3695 4.28576C29.7997 4.15897 29.2139 4.06387 28.6161 4.00179C28.0182 3.94103 27.4084 3.91329 26.7851 3.9199C26.1298 3.92914 25.4798 3.97669 24.8351 4.06123C24.1905 4.14576 23.5525 4.26727 22.9226 4.42313C22.2926 4.57898 21.6707 4.7705 21.0582 4.99372C20.4456 5.21693 19.8438 5.47317 19.254 5.7611C18.6642 6.04772 18.0851 6.36603 17.5207 6.71341C16.9563 7.06078 16.4052 7.43589 15.8689 7.83873C15.3339 8.24158 14.8137 8.67084 14.3108 9.12652C13.8079 9.58088 13.3238 10.0617 12.857 10.5636C12.3902 11.0655 11.9449 11.5925 11.5196 12.1393C11.0942 12.6861 10.6903 13.2554 10.3092 13.8418C9.928 14.4296 9.5709 15.0358 9.23788 15.6606C8.90486 16.284 8.59724 16.9259 8.31638 17.5823C8.03552 18.2388 7.7814 18.9111 7.55538 19.5966C7.32935 20.2821 7.13275 20.9808 6.9669 21.6914C6.80106 22.402 6.66464 23.1231 6.56166 23.8548C6.45867 24.5866 6.38779 25.3262 6.35168 26.0751C6.31958 26.754 6.31691 27.4223 6.34232 28.0775C6.36773 28.7326 6.42123 29.3758 6.50147 30.0045C6.58172 30.6332 6.68871 31.2474 6.82112 31.8484C6.95353 32.4493 7.11135 33.0331 7.29324 33.6011C7.47513 34.169 7.6811 34.7211 7.91114 35.2561C8.13984 35.791 8.39262 36.3074 8.66545 36.8067C8.93829 37.3059 9.23387 37.7854 9.54817 38.245C9.86246 38.7047 10.1982 39.1458 10.5512 39.5645C10.9043 39.9832 11.2775 40.3821 11.668 40.7585C12.0585 41.135 12.4665 41.4889 12.8891 41.8191C13.3131 42.1493 13.7531 42.4571 14.2078 42.7384C14.6625 43.0211 15.132 43.2786 15.6161 43.5111C16.099 43.7436 16.5965 43.9496 17.1047 44.1292C17.6143 44.3089 18.1345 44.4608 18.6668 44.5849C19.1991 44.7091 19.7421 44.8055 20.2945 44.8715C20.8469 44.9376 21.4086 44.9759 21.9797 44.9825V44.9851Z" fill="#44FFFF" fill-opacity="0.15"/>
<path d="M14.0018 79.9997C13.9911 79.9997 13.9804 79.9997 13.9711 79.9997C13.9604 79.9997 13.9497 79.9997 13.939 79.997C13.9283 79.997 13.9176 79.9944 13.9069 79.9931C13.8962 79.9917 13.8855 79.9904 13.8761 79.9878C13.8654 79.9865 13.8547 79.9838 13.8454 79.9812C13.8347 79.9785 13.8253 79.9759 13.8146 79.9732C13.8039 79.9706 13.7945 79.968 13.7838 79.964C13.7731 79.9614 13.7638 79.9574 13.7544 79.9534C13.7451 79.9495 13.7344 79.9455 13.725 79.9415C13.7156 79.9376 13.7063 79.9336 13.6969 79.9283C13.6875 79.9244 13.6782 79.9191 13.6688 79.9138C13.6595 79.9085 13.6514 79.9032 13.6421 79.898C13.6327 79.8927 13.6247 79.8874 13.6167 79.8808C13.6086 79.8755 13.6006 79.8689 13.5926 79.8623C13.5846 79.8557 13.5765 79.8491 13.5698 79.8425C13.5618 79.8359 13.5551 79.8293 13.5485 79.8213C13.5391 79.8121 13.5311 79.8029 13.523 79.7936C13.515 79.7844 13.507 79.7751 13.499 79.7646C13.4909 79.7553 13.4829 79.7447 13.4762 79.7342C13.4682 79.7236 13.4615 79.7144 13.4548 79.7038C13.4481 79.6932 13.4415 79.6827 13.4348 79.6721C13.4281 79.6615 13.4227 79.651 13.416 79.6391C13.4107 79.6285 13.4053 79.6166 13.4 79.6061C13.3946 79.5942 13.3906 79.5836 13.3853 79.5717C13.3813 79.5598 13.3773 79.5493 13.3732 79.5374C13.3692 79.5255 13.3666 79.5136 13.3639 79.5017C13.3612 79.4898 13.3585 79.4779 13.3572 79.4661C13.3559 79.4542 13.3532 79.4423 13.3518 79.4304C13.3505 79.4185 13.3505 79.4066 13.3492 79.3934C13.3492 79.3815 13.3492 79.3696 13.3492 79.3564C13.3492 79.3445 13.3518 79.3327 13.3532 79.3194C13.3545 79.3076 13.3572 79.2957 13.3599 79.2825L13.852 77.1745L14.3442 75.0664L14.8364 72.9584L15.3286 70.8504L15.8208 68.7424L16.3129 66.6344L16.8051 64.5264L17.2973 62.4184L17.7895 60.3104L18.2817 58.2024L18.7738 56.0944L19.266 53.9864L19.7582 51.8784L20.2504 49.7703L20.7425 47.6623L21.2347 45.5543C20.986 45.5398 20.7372 45.52 20.4898 45.4936C20.2423 45.4672 19.9976 45.4368 19.7528 45.3985C19.5081 45.3615 19.266 45.3179 19.0253 45.2704C18.7845 45.2215 18.5451 45.1687 18.3071 45.1092C18.069 45.0498 17.8336 44.9851 17.5996 44.9151C17.3655 44.8451 17.1341 44.7684 16.9041 44.6879C16.6741 44.6073 16.4467 44.5201 16.2207 44.429C15.9946 44.3379 15.7713 44.2401 15.5506 44.1384C15.3299 44.0367 15.1106 43.9284 14.8939 43.8161C14.6773 43.7039 14.4633 43.585 14.2533 43.4622C14.042 43.3393 13.8333 43.2112 13.6287 43.0778C13.4227 42.9444 13.2208 42.807 13.0202 42.6631C12.8209 42.5204 12.6229 42.3712 12.429 42.2193C12.2351 42.0661 12.0452 41.9089 11.8566 41.7451C11.6693 41.5827 11.4848 41.4149 11.3042 41.2419C11.1237 41.0689 10.9458 40.8919 10.7719 40.7096C10.5526 40.4798 10.3399 40.2447 10.134 40.003C9.92799 39.7613 9.72872 39.5143 9.53746 39.262C9.34487 39.0097 9.1603 38.7508 8.98242 38.488C8.80454 38.2252 8.63335 37.9557 8.46885 37.6823C8.30434 37.4089 8.14786 37.1302 7.99807 36.8462C7.84827 36.5623 7.70517 36.2743 7.57009 35.9811C7.435 35.6879 7.30661 35.3907 7.1849 35.0883C7.06453 34.7858 6.95085 34.4807 6.84385 34.1703C6.7382 33.8599 6.63923 33.5455 6.54694 33.2272C6.456 32.9089 6.37174 32.5866 6.2955 32.2617C6.21927 31.9355 6.14972 31.6066 6.08954 31.2738C6.02935 30.9409 5.97452 30.6041 5.92904 30.266C5.88357 29.9279 5.84479 29.5844 5.81402 29.2384C5.78326 28.8923 5.76053 28.545 5.74581 28.1936C5.7311 27.8423 5.72442 27.4883 5.72575 27.133C5.72575 26.7764 5.73645 26.4185 5.7525 26.0566C5.78861 25.2971 5.86083 24.5429 5.96649 23.7993C6.07215 23.0557 6.21124 22.32 6.3811 21.5962C6.55095 20.8724 6.75291 20.1592 6.98429 19.4591C7.21566 18.7591 7.47646 18.0723 7.76535 17.4C8.05424 16.7277 8.36988 16.0713 8.71226 15.432C9.05465 14.7927 9.4211 14.1706 9.81298 13.567C10.2048 12.9634 10.6195 12.3796 11.0568 11.8183C11.4941 11.2569 11.9529 10.7154 12.4317 10.1976C12.9105 9.67988 13.4094 9.1859 13.9269 8.71701C14.4432 8.24812 14.9782 7.80565 15.5292 7.3896C16.0802 6.97355 16.6473 6.58655 17.2291 6.22861C17.8109 5.87067 18.406 5.54179 19.0132 5.24461C19.6204 4.94743 20.241 4.68327 20.8723 4.45212C21.5022 4.22098 22.1442 4.02286 22.7928 3.86172C23.4415 3.70058 24.0995 3.57511 24.7642 3.48661C25.4289 3.39944 26.099 3.34925 26.7744 3.34C27.0486 3.33472 27.3228 3.33604 27.5956 3.34529C27.8684 3.35453 28.1399 3.37038 28.4114 3.39284C28.6816 3.41661 28.9518 3.44567 29.2193 3.48397C29.4867 3.52095 29.7542 3.56586 30.019 3.61605C30.2839 3.66756 30.5473 3.72568 30.8081 3.7904C31.0689 3.85512 31.3284 3.92644 31.5852 4.00437C31.842 4.0823 32.0974 4.16683 32.3502 4.25929C32.603 4.35042 32.8531 4.44816 33.1005 4.55383C33.3479 4.65817 33.5927 4.76912 33.8348 4.88667C34.0768 5.00422 34.3162 5.12838 34.5516 5.25782C34.787 5.38726 35.0211 5.52462 35.2498 5.66595C35.4798 5.80859 35.7058 5.95652 35.9279 6.11106C36.1499 6.26559 36.3692 6.42673 36.5845 6.59315C36.7999 6.75957 37.0112 6.9326 37.2185 7.11091C37.4258 7.28922 37.6291 7.47413 37.8284 7.66301C38.0276 7.85188 38.2216 8.04868 38.4115 8.24945C38.6389 8.49115 38.8609 8.73947 39.0735 8.99438C39.2875 9.2493 39.4935 9.51082 39.6914 9.77894C39.8907 10.0471 40.082 10.3218 40.2652 10.6018C40.4484 10.8818 40.625 11.1684 40.7935 11.4603C40.962 11.7522 41.1225 12.0494 41.2763 12.3519C41.4288 12.6543 41.5745 12.9621 41.7123 13.2738C41.8501 13.5868 41.9798 13.9038 42.1015 14.2248C42.2232 14.5471 42.3369 14.8733 42.4425 15.2035C42.5482 15.5337 42.6458 15.8692 42.7341 16.2073C42.8237 16.5454 42.904 16.8875 42.9775 17.2336C43.0497 17.5796 43.1139 17.9283 43.1701 18.281C43.2263 18.6336 43.2731 18.9889 43.3119 19.3469C43.3507 19.7048 43.3814 20.0654 43.4028 20.4286C43.4242 20.7918 43.4376 21.1577 43.4416 21.5249C43.4456 21.8921 43.4416 22.2619 43.4282 22.633C43.4149 23.0042 43.3921 23.3767 43.3614 23.7518C43.348 23.9182 43.3319 24.0833 43.3146 24.2497C43.2972 24.4148 43.2784 24.5812 43.257 24.7463C43.2356 24.9114 43.2142 25.0765 43.1902 25.2416C43.1661 25.4067 43.1407 25.5718 43.1126 25.7356C43.0845 25.8994 43.0564 26.0645 43.0257 26.2283C42.9949 26.3921 42.9628 26.5558 42.928 26.7196C42.8933 26.8834 42.8585 27.0459 42.821 27.2096C42.7836 27.3734 42.7448 27.5359 42.7033 27.697C42.6632 27.8595 42.6204 28.0219 42.5763 28.1831C42.5322 28.3442 42.4867 28.5067 42.4385 28.6678C42.3917 28.8289 42.3422 28.9901 42.2914 29.1499C42.2406 29.3097 42.1884 29.4709 42.1349 29.6294C42.0814 29.7892 42.0253 29.9477 41.9678 30.1075C41.9102 30.2673 41.8514 30.4245 41.7912 30.583C41.731 30.7415 41.6682 30.8986 41.6053 31.0558C41.5411 31.213 41.4769 31.3702 41.4087 31.526C41.3967 31.5551 41.3833 31.5855 41.3699 31.6145C41.3565 31.6436 41.3445 31.674 41.3311 31.703C41.3178 31.7321 41.3044 31.7611 41.2923 31.7915C41.279 31.8206 41.2656 31.8496 41.2522 31.8787C41.2388 31.9077 41.2255 31.9368 41.2121 31.9659C41.1987 31.9949 41.1853 32.024 41.172 32.053C41.1586 32.0821 41.1452 32.1112 41.1305 32.1402C41.1171 32.1693 41.1024 32.1983 41.0891 32.2274C41.0757 32.2564 41.061 32.2855 41.0476 32.3146C41.0342 32.3436 41.0195 32.3727 41.0061 32.4004C40.9928 32.4295 40.978 32.4585 40.9633 32.4863C40.9486 32.5153 40.9352 32.5444 40.9205 32.5721C40.9058 32.6012 40.8925 32.6289 40.8777 32.658C40.863 32.687 40.8497 32.7148 40.8349 32.7438C40.8202 32.7729 40.8069 32.8006 40.7921 32.8297C40.7774 32.8587 40.7641 32.8865 40.7493 32.9155L39.3905 35.783L38.0317 38.6505L36.6728 41.5179L35.314 44.3854L33.9551 47.2529L32.5963 50.1204L31.2375 52.9878L29.8786 55.8553L28.5198 58.7228L27.1609 61.5902L25.8021 64.4577L24.4433 67.3252L23.0844 70.1927L21.7256 73.0601L20.3667 75.9276L19.0079 78.7951C19.0025 78.8057 18.9972 78.8162 18.9918 78.8268C18.9865 78.8374 18.9798 78.8466 18.9745 78.8572C18.9678 78.8664 18.9624 78.877 18.9544 78.8862C18.9477 78.8955 18.941 78.9047 18.933 78.914C18.9263 78.9232 18.9183 78.9311 18.9103 78.9404C18.9022 78.9483 18.8942 78.9575 18.8862 78.9655C18.8782 78.9734 18.8701 78.9813 18.8608 78.9892C18.8514 78.9972 18.8434 79.0038 18.834 79.0117C18.8247 79.0183 18.8153 79.0249 18.8059 79.0315C18.7966 79.0381 18.7872 79.0447 18.7765 79.05C18.7658 79.0553 18.7564 79.0619 18.7457 79.0672C18.735 79.0725 18.7257 79.0777 18.715 79.083C18.7043 79.0883 18.6936 79.0923 18.6829 79.0962C18.6722 79.1002 18.6615 79.1042 18.6495 79.1081C18.6388 79.1121 18.6267 79.1147 18.616 79.1174C18.604 79.12 18.5933 79.1226 18.5812 79.1253L18.3031 79.1794L18.0249 79.2336L17.7467 79.2877L17.4685 79.3419L17.1903 79.3961L16.9121 79.4502L16.6339 79.5044L16.3557 79.5585L16.0776 79.6127L15.7994 79.6668L15.5212 79.721L15.243 79.7751L14.9648 79.8293L14.6866 79.8834L14.4084 79.9376L14.1302 79.9917C14.1302 79.9917 14.1249 79.9917 14.1222 79.9931C14.1195 79.9931 14.1169 79.9931 14.1142 79.9944C14.1115 79.9944 14.1088 79.9944 14.1062 79.9944C14.1035 79.9944 14.1008 79.9944 14.0981 79.9944C14.0955 79.9944 14.0928 79.9944 14.0901 79.9944C14.0874 79.9944 14.0848 79.9944 14.0821 79.9944C14.0794 79.9944 14.0767 79.9944 14.0741 79.9944C14.0714 79.9944 14.0687 79.9944 14.066 79.9944C14.0634 79.9944 14.0607 79.9944 14.058 79.9944C14.0553 79.9944 14.0527 79.9944 14.05 79.9944C14.0473 79.9944 14.0446 79.9944 14.042 79.9944C14.0393 79.9944 14.0366 79.9944 14.0339 79.9944C14.0313 79.9944 14.0286 79.9944 14.0259 79.9944C14.0232 79.9944 14.0206 79.9944 14.0179 79.9944C14.0152 79.9944 14.0125 79.9944 14.0099 79.9944C14.0072 79.9944 14.0045 79.9944 14.0018 79.9944V79.9997ZM26.9804 4.5142H26.9563C26.9563 4.5142 26.9483 4.5142 26.9443 4.5142H26.9322C26.9322 4.5142 26.9242 4.5142 26.9202 4.5142C26.9162 4.5142 26.9122 4.5142 26.9082 4.5142C26.9041 4.5142 26.9001 4.5142 26.8961 4.5142C26.8921 4.5142 26.8881 4.5142 26.8841 4.5142C26.8801 4.5142 26.8761 4.5142 26.872 4.5142C26.868 4.5142 26.864 4.5142 26.86 4.5142C26.856 4.5142 26.852 4.5142 26.848 4.5142C26.844 4.5142 26.8399 4.5142 26.8359 4.5142C26.8319 4.5142 26.8279 4.5142 26.8239 4.5142C26.8199 4.5142 26.8159 4.5142 26.8119 4.5142C26.8078 4.5142 26.8038 4.5142 26.7998 4.5142C26.7958 4.5142 26.7918 4.5142 26.7878 4.5142C26.1512 4.52345 25.5172 4.571 24.8913 4.65421C24.2654 4.73742 23.6435 4.85629 23.0309 5.01083C22.4184 5.16404 21.8138 5.35159 21.2187 5.57085C20.6235 5.7901 20.0391 6.04238 19.4653 6.32503C18.8915 6.60768 18.3298 6.91939 17.7815 7.26016C17.2331 7.60093 16.6981 7.96943 16.1779 8.36436C15.6576 8.75928 15.1534 9.18061 14.6652 9.62573C14.177 10.0708 13.7063 10.541 13.2542 11.0324C12.8022 11.5237 12.3688 12.0388 11.9569 12.5724C11.545 13.1074 11.1518 13.6621 10.7826 14.2353C10.4135 14.8086 10.0658 15.4003 9.74343 16.0079C9.4211 16.6154 9.12152 17.2402 8.85002 17.8781C8.57718 18.5174 8.33109 19.1699 8.11309 19.8356C7.89508 20.5013 7.70383 21.1788 7.54334 21.867C7.38284 22.5551 7.25044 23.2538 7.15147 23.9618C7.05116 24.6697 6.98295 25.3856 6.94817 26.1068C6.93213 26.4475 6.9241 26.7857 6.92276 27.1225C6.92276 27.4593 6.92811 27.7921 6.94149 28.1236C6.95486 28.4552 6.97626 28.784 7.00435 29.109C7.03243 29.4352 7.06854 29.7575 7.11134 30.0771C7.15414 30.3967 7.20496 30.7137 7.26114 31.0268C7.31865 31.3398 7.38284 31.6502 7.45373 31.9579C7.52461 32.2657 7.60352 32.5681 7.68912 32.868C7.77471 33.1678 7.867 33.4637 7.96597 33.7556C8.06494 34.0475 8.17193 34.3354 8.28562 34.6194C8.3993 34.9033 8.51833 35.1833 8.64539 35.4581C8.77245 35.7328 8.90619 36.0049 9.04662 36.2704C9.18705 36.5359 9.33417 36.7987 9.48798 37.0549C9.64178 37.3125 9.80228 37.5634 9.96812 37.8104C10.1353 38.0574 10.3078 38.2991 10.4884 38.5369C10.6689 38.7746 10.8548 39.0058 11.0474 39.2316C11.24 39.4575 11.4393 39.6781 11.6439 39.8933C11.8138 40.0717 11.989 40.2447 12.1655 40.4137C12.3434 40.5828 12.524 40.7453 12.7085 40.9038C12.8931 41.0623 13.0817 41.2155 13.2716 41.3634C13.4629 41.5113 13.6568 41.6553 13.8547 41.7927C14.0527 41.93 14.2519 42.0634 14.4552 42.1916C14.6585 42.3197 14.8645 42.4412 15.0731 42.5587C15.2818 42.6763 15.4931 42.7872 15.7071 42.8929C15.9211 42.9986 16.1377 43.1003 16.3571 43.1954C16.5764 43.2905 16.7971 43.3803 17.0204 43.4648C17.2438 43.5493 17.4698 43.6273 17.6972 43.7012C17.9246 43.7739 18.1546 43.8412 18.3873 43.9033C18.6187 43.9654 18.8527 44.0209 19.0881 44.0711C19.3235 44.1212 19.5603 44.1662 19.7997 44.2045C20.0377 44.2428 20.2785 44.2758 20.5205 44.3022C20.7626 44.3286 21.0047 44.3498 21.2494 44.3656C21.4942 44.3801 21.7389 44.3894 21.985 44.392C21.9957 44.392 22.0078 44.392 22.0185 44.3933C22.0292 44.3947 22.0412 44.3947 22.0519 44.396C22.0626 44.3973 22.0746 44.3986 22.0853 44.4013C22.096 44.4039 22.1067 44.4052 22.1174 44.4079C22.1281 44.4105 22.1388 44.4132 22.1495 44.4171C22.1602 44.4198 22.1709 44.4237 22.1816 44.4277C22.1923 44.4316 22.2017 44.4356 22.2124 44.4396C22.2231 44.4435 22.2325 44.4488 22.2432 44.4528C22.2525 44.4581 22.2632 44.4633 22.2726 44.4686C22.2819 44.4739 22.2913 44.4792 22.3007 44.4858C22.31 44.4911 22.3194 44.4977 22.3288 44.5043C22.3381 44.5109 22.3461 44.5175 22.3555 44.5241C22.3635 44.5307 22.3729 44.5386 22.3809 44.5452C22.3889 44.5532 22.397 44.5598 22.405 44.5677C22.413 44.5756 22.421 44.5835 22.4277 44.5915C22.4357 44.5994 22.4424 44.6086 22.4491 44.6166C22.4558 44.6258 22.4625 44.6337 22.4692 44.643C22.4759 44.6522 22.4812 44.6615 22.4879 44.6707C22.4933 44.68 22.4999 44.6892 22.504 44.6998C22.5093 44.709 22.5147 44.7196 22.5187 44.7288C22.5227 44.7381 22.528 44.7486 22.532 44.7592C22.5361 44.7698 22.5401 44.779 22.5441 44.7896C22.5481 44.8001 22.5508 44.8107 22.5534 44.8213C22.5561 44.8318 22.5588 44.8424 22.5615 44.853C22.5641 44.8635 22.5655 44.8741 22.5682 44.8847C22.5708 44.8952 22.5708 44.9058 22.5722 44.9177C22.5722 44.9283 22.5748 44.9388 22.5748 44.9507C22.5748 44.9613 22.5748 44.9732 22.5748 44.9837C22.5748 44.9943 22.5748 45.0062 22.5748 45.0168C22.5748 45.0273 22.5735 45.0392 22.5722 45.0498C22.5722 45.0603 22.5695 45.0722 22.5668 45.0828C22.5655 45.0934 22.5628 45.1053 22.5601 45.1158L22.0706 47.2119L21.5811 49.3081L21.0916 51.4042L20.6021 53.5003L20.1126 55.5964L19.6231 57.6925L19.1336 59.7887L18.6441 61.8848L18.1546 63.9809L17.6651 66.077L17.1756 68.1732L16.6861 70.2693L16.1966 72.3654L15.7071 74.4615L15.2176 76.5576L14.7281 78.6538L14.9354 78.6128L15.1427 78.5719L15.35 78.5309L15.5573 78.49L15.7646 78.449L15.9719 78.4081L16.1792 78.3671L16.3865 78.3262L16.5938 78.2853L16.8011 78.2443L17.0084 78.2034L17.2157 78.1624L17.423 78.1215L17.6303 78.0805L17.8376 78.0396L18.0449 77.9986L19.3957 75.147L20.7466 72.2954L22.0974 69.4438L23.4482 66.5921L24.799 63.7405L26.1498 60.8889L27.5006 58.0373L28.8515 55.1857L30.2023 52.334L31.5531 49.4824L32.9039 46.6308L34.2547 43.7792L35.6055 40.9275L36.9564 38.0759L38.3072 35.2243L39.658 32.3727C39.6714 32.3449 39.6861 32.3172 39.6995 32.2881C39.7128 32.2591 39.7275 32.2327 39.7409 32.2049C39.7543 32.1772 39.769 32.1495 39.7824 32.1217C39.7957 32.094 39.8105 32.0662 39.8238 32.0385C39.8372 32.0108 39.8506 31.983 39.8653 31.9553C39.8787 31.9276 39.892 31.8998 39.9054 31.8721C39.9188 31.8443 39.9322 31.8166 39.9455 31.7889C39.9589 31.7611 39.9723 31.7334 39.9857 31.7057C39.999 31.6779 40.0124 31.6502 40.0258 31.6225C40.0392 31.5947 40.0525 31.567 40.0646 31.5392C40.0779 31.5115 40.09 31.4838 40.1034 31.456C40.1167 31.4283 40.1288 31.4006 40.1421 31.3728C40.1555 31.3451 40.1676 31.3173 40.1796 31.2896C40.1916 31.2619 40.205 31.2341 40.217 31.2064C40.2291 31.1787 40.2425 31.1509 40.2545 31.1219C40.2665 31.0941 40.2786 31.0651 40.2906 31.0373C40.3548 30.8881 40.4163 30.7388 40.4778 30.5883C40.538 30.4377 40.5982 30.2884 40.6557 30.1365C40.7132 29.986 40.7694 29.8341 40.8242 29.6835C40.8791 29.5316 40.9326 29.3797 40.9834 29.2278C41.0342 29.0759 41.085 28.9227 41.1332 28.7695C41.1813 28.6163 41.2281 28.4631 41.2736 28.3099C41.3191 28.1567 41.3619 28.0021 41.4047 27.8476C41.4462 27.693 41.4876 27.5385 41.5264 27.384C41.5652 27.2294 41.6026 27.0736 41.6387 26.9191C41.6749 26.7632 41.7083 26.6087 41.7417 26.4528C41.7738 26.297 41.8059 26.1411 41.8353 25.9839C41.8648 25.8281 41.8929 25.6709 41.9183 25.5137C41.945 25.3565 41.9691 25.1994 41.9918 25.0422C42.0146 24.885 42.036 24.7278 42.056 24.5707C42.0761 24.4135 42.0935 24.255 42.1109 24.0978C42.1269 23.9393 42.143 23.7821 42.1563 23.6236C42.1858 23.2697 42.2072 22.9183 42.2205 22.567C42.2339 22.217 42.2379 21.867 42.2339 21.5209C42.2299 21.1749 42.2179 20.8288 42.1978 20.4867C42.1777 20.1446 42.1496 19.8039 42.1135 19.4657C42.0774 19.1276 42.0333 18.7934 41.9811 18.4606C41.929 18.1291 41.8688 17.7989 41.8006 17.474C41.7324 17.149 41.6575 16.8254 41.5732 16.5071C41.4903 16.1888 41.398 15.8731 41.3004 15.5614C41.2014 15.2497 41.0957 14.9433 40.9821 14.6395C40.8684 14.3357 40.7467 14.0385 40.6183 13.744C40.4899 13.4495 40.3535 13.1602 40.2104 12.8762C40.0672 12.5923 39.9161 12.3122 39.7583 12.0388C39.6005 11.7654 39.436 11.496 39.2634 11.2331C39.0909 10.9703 38.9117 10.7128 38.7258 10.4618C38.5399 10.2108 38.346 9.96517 38.1467 9.72611C37.9461 9.48704 37.7401 9.25458 37.5261 9.0274C37.3536 8.84381 37.177 8.66682 36.9965 8.49379C36.8159 8.32077 36.6327 8.15435 36.4455 7.99189C36.2582 7.82943 36.067 7.67357 35.873 7.52168C35.6791 7.36979 35.4812 7.2245 35.2805 7.08317C35.0799 6.94317 34.8753 6.80712 34.6693 6.67768C34.462 6.54824 34.252 6.42409 34.0394 6.30522C33.8267 6.18634 33.6114 6.07408 33.3934 5.96577C33.1754 5.85878 32.9547 5.75708 32.7314 5.66066C32.508 5.56424 32.282 5.47443 32.0533 5.3899C31.8246 5.30537 31.5946 5.22744 31.3618 5.15347C31.1291 5.08083 30.8937 5.01347 30.657 4.95271C30.4203 4.89195 30.1809 4.83648 29.9401 4.78761C29.6994 4.73874 29.456 4.69515 29.2126 4.65817C28.9678 4.62119 28.7217 4.59081 28.4743 4.56571C28.2269 4.54062 27.9781 4.52213 27.7267 4.51024C27.4766 4.49835 27.2238 4.49175 26.971 4.49175L26.9804 4.5142Z" fill="#41D9D9"/>
<path d="M61.4368 40.4566C61.2683 41.1157 61.0998 41.7735 60.9312 42.4312C60.7627 43.089 60.5942 43.7454 60.4257 44.4019C60.2572 45.0583 60.0886 45.7147 59.9215 46.3699C59.7529 47.025 59.5858 47.6801 59.4172 48.3352C59.2501 48.9903 59.0816 49.6441 58.9144 50.2966C58.7472 50.9504 58.58 51.6029 58.4128 52.2554C58.2456 52.9079 58.0785 53.5603 57.9113 54.2115C57.7441 54.8627 57.5769 55.5138 57.4111 56.1637C57.2452 56.8135 57.0781 57.4633 56.9109 58.1132C56.745 58.763 56.5779 59.4115 56.412 60.06C56.2462 60.7085 56.0803 61.3557 55.9145 62.0043C55.7486 62.6515 55.5828 63.2987 55.417 63.9445C55.2511 64.5904 55.0853 65.2363 54.9208 65.8822C54.7549 66.528 54.5904 67.1726 54.4246 67.8171C54.2601 68.4617 54.0942 69.1049 53.9297 69.7482C53.7652 70.3914 53.6007 71.0346 53.4349 71.6765C53.5124 71.6607 53.59 71.6462 53.6676 71.6303C53.7452 71.6145 53.8227 71.5999 53.9003 71.5841C53.9779 71.5682 54.0554 71.5537 54.133 71.5378C54.2106 71.5233 54.2882 71.5075 54.3657 71.4916C54.4433 71.4771 54.5209 71.4612 54.5984 71.4467C54.676 71.4322 54.7536 71.4163 54.8298 71.4018C54.9074 71.3873 54.985 71.3714 55.0612 71.3569C55.1388 71.3424 55.215 71.3265 55.2926 71.312C55.3702 71.2975 55.4464 71.2816 55.524 71.2671C55.6015 71.2526 55.6778 71.2367 55.7553 71.2222C55.8329 71.2076 55.9091 71.1918 55.9867 71.1773C56.0643 71.1627 56.1405 71.1469 56.2181 71.1324C56.2943 71.1178 56.3719 71.102 56.4481 71.0875C56.5244 71.0729 56.6019 71.0571 56.6782 71.0425C56.7544 71.028 56.832 71.0122 56.9082 70.9976C56.9844 70.9831 57.062 70.9673 57.1382 70.9527C57.5475 70.0863 57.9568 69.2212 58.366 68.3547C58.7753 67.4883 59.1845 66.6231 59.5938 65.7567C60.003 64.8902 60.4123 64.0251 60.8216 63.16C61.2308 62.2948 61.6401 61.4284 62.0493 60.5633C62.4586 59.6981 62.8678 58.8317 63.2771 57.9666C63.6864 57.1014 64.0956 56.235 64.5049 55.3698C64.9141 54.5047 65.3234 53.6396 65.7326 52.7731C66.1419 51.908 66.5512 51.0429 66.9604 50.1778C67.3697 49.3126 67.7789 48.4475 68.1869 47.5824C68.5961 46.7172 69.0054 45.8521 69.4133 44.987C69.8212 44.1219 70.2318 43.2567 70.6397 42.3916C71.049 41.5265 71.4569 40.6613 71.8662 39.7975C72.2754 38.9324 72.6833 38.0673 73.0926 37.2035C73.5018 36.3397 73.9098 35.4745 74.319 34.6094C74.7283 33.7443 75.1362 32.8805 75.5455 32.0153C75.9547 31.1502 76.3626 30.2864 76.7719 29.4213C76.7839 29.3962 76.7973 29.3711 76.8093 29.346C76.8214 29.3209 76.8348 29.2958 76.8468 29.2694C76.8588 29.2443 76.8722 29.2192 76.8842 29.1928C76.8963 29.1677 76.9097 29.1426 76.9217 29.1162C76.9337 29.0897 76.9471 29.066 76.9591 29.0396C76.9712 29.0145 76.9845 28.988 76.9966 28.9629C77.0086 28.9378 77.0207 28.9114 77.034 28.8863C77.0461 28.8612 77.0581 28.8348 77.0701 28.8097C77.0822 28.7846 77.0942 28.7582 77.1063 28.7331C77.1183 28.708 77.1303 28.6816 77.1424 28.6565C77.1544 28.6314 77.1664 28.605 77.1785 28.5799C77.1905 28.5548 77.2026 28.5284 77.2146 28.502C77.2266 28.4756 77.2387 28.4505 77.2494 28.4241C77.2601 28.3976 77.2721 28.3725 77.2841 28.3461C77.2962 28.3197 77.3069 28.2946 77.3189 28.2682C77.3309 28.2418 77.3416 28.2154 77.3523 28.1903C77.4098 28.0569 77.4674 27.9221 77.5222 27.7861C77.5784 27.6514 77.6319 27.5153 77.6854 27.378C77.7389 27.2419 77.791 27.1046 77.8418 26.9659C77.8927 26.8285 77.9435 26.6898 77.9916 26.5498C78.0411 26.4111 78.0879 26.2711 78.1347 26.1311C78.1816 25.9911 78.227 25.8498 78.2712 25.7085C78.3153 25.5671 78.3581 25.4245 78.4009 25.2819C78.4424 25.1392 78.4838 24.9952 78.5226 24.8526C78.5614 24.7086 78.6002 24.5647 78.6376 24.4194C78.6751 24.2741 78.7098 24.1288 78.7446 23.9835C78.7794 23.8382 78.8115 23.6916 78.8436 23.5437C78.8757 23.3957 78.9064 23.2491 78.9345 23.1012C78.9626 22.9533 78.992 22.8053 79.0188 22.6561C79.0455 22.5068 79.071 22.3576 79.095 22.2083C79.1191 22.0591 79.1418 21.9085 79.1619 21.7579C79.1833 21.6074 79.2034 21.4568 79.2208 21.3049C79.2956 20.6841 79.3451 20.0713 79.3705 19.4677C79.396 18.8627 79.396 18.267 79.3732 17.6819C79.3505 17.0968 79.3037 16.5209 79.2355 15.9583C79.1659 15.3943 79.075 14.8435 78.9613 14.3046C78.8476 13.7657 78.7125 13.2414 78.5574 12.7315C78.4022 12.2217 78.2257 11.7264 78.0291 11.2483C77.8325 10.7701 77.6158 10.3079 77.3804 9.86275C77.145 9.41896 76.8909 8.99234 76.6181 8.58553C76.3452 8.17872 76.055 7.79172 75.7474 7.42586C75.4398 7.06 75.1148 6.71526 74.7738 6.39299C74.4327 6.07071 74.0756 5.77221 73.7025 5.49616C73.3293 5.22143 72.9415 4.97048 72.5389 4.74462C72.1363 4.52008 71.719 4.32064 71.2884 4.14894C70.8577 3.97723 70.4124 3.83194 69.9563 3.71703C69.4989 3.6008 69.0294 3.51495 68.548 3.45815C68.0665 3.40136 67.573 3.37626 67.0688 3.38287C66.5405 3.39079 66.0148 3.43306 65.4919 3.50834C64.969 3.58363 64.45 3.69194 63.9365 3.83062C63.4229 3.96931 62.9133 4.13969 62.4104 4.33913C61.9076 4.53857 61.4127 4.76839 60.9245 5.02463C60.4377 5.28087 59.9576 5.56616 59.4881 5.87655C59.0187 6.18694 58.5599 6.52375 58.1119 6.88433C57.6639 7.24491 57.2279 7.62926 56.8039 8.03739C56.3799 8.4442 55.9693 8.87479 55.5734 9.32518C55.1776 9.77558 54.7964 10.2471 54.4299 10.7371C54.0648 11.2271 53.7157 11.737 53.384 12.264C53.0524 12.791 52.7394 13.3352 52.4438 13.8939C52.1496 14.4539 51.8741 15.0284 51.62 15.6175C51.3659 16.2066 51.1318 16.8089 50.9218 17.4244C50.7105 18.0399 50.5219 18.6659 50.3574 19.3039C50.1929 19.9418 50.0525 20.589 49.9375 21.2455C49.8224 21.9019 49.7342 22.5676 49.6713 23.2399C49.6151 23.8514 49.5844 24.4537 49.5764 25.0441C49.5683 25.6345 49.583 26.2143 49.6191 26.7823C49.6566 27.3502 49.7154 27.905 49.7957 28.4465C49.8759 28.988 49.9776 29.5177 50.0993 30.0315C50.221 30.5453 50.3628 31.0459 50.5233 31.5306C50.6838 32.0153 50.8643 32.4842 51.0623 32.9373C51.2602 33.3903 51.4769 33.8262 51.7096 34.2435C51.9423 34.6622 52.1937 35.0624 52.4599 35.4441C52.726 35.8259 53.0096 36.1891 53.3065 36.5325C53.6047 36.8759 53.9164 37.1995 54.244 37.502C54.5704 37.8044 54.9114 38.0858 55.2658 38.346C55.6203 38.6062 55.9867 38.8439 56.3665 39.0579C56.7464 39.2718 57.1369 39.4634 57.5395 39.6311C57.942 39.7988 58.3553 39.9415 58.7793 40.059C59.2033 40.1766 59.6366 40.2691 60.0806 40.3351C60.5233 40.4011 60.9754 40.4408 61.4354 40.4526L61.4368 40.4566Z" fill="#050D33"/>
<path d="M61.4368 40.4566C61.2683 41.1157 61.0998 41.7735 60.9312 42.4312C60.7627 43.089 60.5942 43.7454 60.4257 44.4019C60.2572 45.0583 60.0886 45.7147 59.9215 46.3699C59.7529 47.025 59.5858 47.6801 59.4172 48.3352C59.2501 48.9903 59.0816 49.6441 58.9144 50.2966C58.7472 50.9504 58.58 51.6029 58.4128 52.2554C58.2456 52.9079 58.0785 53.5603 57.9113 54.2115C57.7441 54.8627 57.5769 55.5138 57.4111 56.1637C57.2452 56.8135 57.0781 57.4633 56.9109 58.1132C56.745 58.763 56.5779 59.4115 56.412 60.06C56.2462 60.7085 56.0803 61.3557 55.9145 62.0043C55.7486 62.6515 55.5828 63.2987 55.417 63.9445C55.2511 64.5904 55.0853 65.2363 54.9208 65.8822C54.7549 66.528 54.5904 67.1726 54.4246 67.8171C54.2601 68.4617 54.0942 69.1049 53.9297 69.7482C53.7652 70.3914 53.6007 71.0346 53.4349 71.6765C53.5124 71.6607 53.59 71.6462 53.6676 71.6303C53.7452 71.6145 53.8227 71.5999 53.9003 71.5841C53.9779 71.5682 54.0554 71.5537 54.133 71.5378C54.2106 71.5233 54.2882 71.5075 54.3657 71.4916C54.4433 71.4771 54.5209 71.4612 54.5984 71.4467C54.676 71.4322 54.7536 71.4163 54.8298 71.4018C54.9074 71.3873 54.985 71.3714 55.0612 71.3569C55.1388 71.3424 55.215 71.3265 55.2926 71.312C55.3702 71.2975 55.4464 71.2816 55.524 71.2671C55.6015 71.2526 55.6778 71.2367 55.7553 71.2222C55.8329 71.2076 55.9091 71.1918 55.9867 71.1773C56.0643 71.1627 56.1405 71.1469 56.2181 71.1324C56.2943 71.1178 56.3719 71.102 56.4481 71.0875C56.5244 71.0729 56.6019 71.0571 56.6782 71.0425C56.7544 71.028 56.832 71.0122 56.9082 70.9976C56.9844 70.9831 57.062 70.9673 57.1382 70.9527C57.5475 70.0863 57.9568 69.2212 58.366 68.3547C58.7753 67.4883 59.1845 66.6231 59.5938 65.7567C60.003 64.8902 60.4123 64.0251 60.8216 63.16C61.2308 62.2948 61.6401 61.4284 62.0493 60.5633C62.4586 59.6981 62.8678 58.8317 63.2771 57.9666C63.6864 57.1014 64.0956 56.235 64.5049 55.3698C64.9141 54.5047 65.3234 53.6396 65.7326 52.7731C66.1419 51.908 66.5512 51.0429 66.9604 50.1778C67.3697 49.3126 67.7789 48.4475 68.1869 47.5824C68.5961 46.7172 69.0054 45.8521 69.4133 44.987C69.8212 44.1219 70.2318 43.2567 70.6397 42.3916C71.049 41.5265 71.4569 40.6613 71.8662 39.7975C72.2754 38.9324 72.6833 38.0673 73.0926 37.2035C73.5018 36.3397 73.9098 35.4745 74.319 34.6094C74.7283 33.7443 75.1362 32.8805 75.5455 32.0153C75.9547 31.1502 76.3626 30.2864 76.7719 29.4213C76.7839 29.3962 76.7973 29.3711 76.8093 29.346C76.8214 29.3209 76.8348 29.2958 76.8468 29.2694C76.8588 29.2443 76.8722 29.2192 76.8842 29.1928C76.8963 29.1677 76.9097 29.1426 76.9217 29.1162C76.9337 29.0897 76.9471 29.066 76.9591 29.0396C76.9712 29.0145 76.9845 28.988 76.9966 28.9629C77.0086 28.9378 77.0207 28.9114 77.034 28.8863C77.0461 28.8612 77.0581 28.8348 77.0701 28.8097C77.0822 28.7846 77.0942 28.7582 77.1063 28.7331C77.1183 28.708 77.1303 28.6816 77.1424 28.6565C77.1544 28.6314 77.1664 28.605 77.1785 28.5799C77.1905 28.5548 77.2026 28.5284 77.2146 28.502C77.2266 28.4756 77.2387 28.4505 77.2494 28.4241C77.2601 28.3976 77.2721 28.3725 77.2841 28.3461C77.2962 28.3197 77.3069 28.2946 77.3189 28.2682C77.3309 28.2418 77.3416 28.2154 77.3523 28.1903C77.4098 28.0569 77.4674 27.9221 77.5222 27.7861C77.5784 27.6514 77.6319 27.5153 77.6854 27.378C77.7389 27.2419 77.791 27.1046 77.8418 26.9659C77.8927 26.8285 77.9435 26.6898 77.9916 26.5498C78.0411 26.4111 78.0879 26.2711 78.1347 26.1311C78.1816 25.9911 78.227 25.8498 78.2712 25.7085C78.3153 25.5671 78.3581 25.4245 78.4009 25.2819C78.4424 25.1392 78.4838 24.9952 78.5226 24.8526C78.5614 24.7086 78.6002 24.5647 78.6376 24.4194C78.6751 24.2741 78.7098 24.1288 78.7446 23.9835C78.7794 23.8382 78.8115 23.6916 78.8436 23.5437C78.8757 23.3957 78.9064 23.2491 78.9345 23.1012C78.9626 22.9533 78.992 22.8053 79.0188 22.6561C79.0455 22.5068 79.071 22.3576 79.095 22.2083C79.1191 22.0591 79.1418 21.9085 79.1619 21.7579C79.1833 21.6074 79.2034 21.4568 79.2208 21.3049C79.2956 20.6841 79.3451 20.0713 79.3705 19.4677C79.396 18.8627 79.396 18.267 79.3732 17.6819C79.3505 17.0968 79.3037 16.5209 79.2355 15.9583C79.1659 15.3943 79.075 14.8435 78.9613 14.3046C78.8476 13.7657 78.7125 13.2414 78.5574 12.7315C78.4022 12.2217 78.2257 11.7264 78.0291 11.2483C77.8325 10.7701 77.6158 10.3079 77.3804 9.86275C77.145 9.41896 76.8909 8.99234 76.6181 8.58553C76.3452 8.17872 76.055 7.79172 75.7474 7.42586C75.4398 7.06 75.1148 6.71526 74.7738 6.39299C74.4327 6.07071 74.0756 5.77221 73.7025 5.49616C73.3293 5.22143 72.9415 4.97048 72.5389 4.74462C72.1363 4.52008 71.719 4.32064 71.2884 4.14894C70.8577 3.97723 70.4124 3.83194 69.9563 3.71703C69.4989 3.6008 69.0294 3.51495 68.548 3.45815C68.0665 3.40136 67.573 3.37626 67.0688 3.38287C66.5405 3.39079 66.0148 3.43306 65.4919 3.50834C64.969 3.58363 64.45 3.69194 63.9365 3.83062C63.4229 3.96931 62.9133 4.13969 62.4104 4.33913C61.9076 4.53857 61.4127 4.76839 60.9245 5.02463C60.4377 5.28087 59.9576 5.56616 59.4881 5.87655C59.0187 6.18694 58.5599 6.52375 58.1119 6.88433C57.6639 7.24491 57.2279 7.62926 56.8039 8.03739C56.3799 8.4442 55.9693 8.87479 55.5734 9.32518C55.1776 9.77558 54.7964 10.2471 54.4299 10.7371C54.0648 11.2271 53.7157 11.737 53.384 12.264C53.0524 12.791 52.7394 13.3352 52.4438 13.8939C52.1496 14.4539 51.8741 15.0284 51.62 15.6175C51.3659 16.2066 51.1318 16.8089 50.9218 17.4244C50.7105 18.0399 50.5219 18.6659 50.3574 19.3039C50.1929 19.9418 50.0525 20.589 49.9375 21.2455C49.8224 21.9019 49.7342 22.5676 49.6713 23.2399C49.6151 23.8514 49.5844 24.4537 49.5764 25.0441C49.5683 25.6345 49.583 26.2143 49.6191 26.7823C49.6566 27.3502 49.7154 27.905 49.7957 28.4465C49.8759 28.988 49.9776 29.5177 50.0993 30.0315C50.221 30.5453 50.3628 31.0459 50.5233 31.5306C50.6838 32.0153 50.8643 32.4842 51.0623 32.9373C51.2602 33.3903 51.4769 33.8262 51.7096 34.2435C51.9423 34.6622 52.1937 35.0624 52.4599 35.4441C52.726 35.8259 53.0096 36.1891 53.3065 36.5325C53.6047 36.8759 53.9164 37.1995 54.244 37.502C54.5704 37.8044 54.9114 38.0858 55.2658 38.346C55.6203 38.6062 55.9867 38.8439 56.3665 39.0579C56.7464 39.2718 57.1369 39.4634 57.5395 39.6311C57.942 39.7988 58.3553 39.9415 58.7793 40.059C59.2033 40.1766 59.6366 40.2691 60.0806 40.3351C60.5233 40.4011 60.9754 40.4408 61.4354 40.4526L61.4368 40.4566Z" fill="#44FFFF" fill-opacity="0.15"/>
<path d="M53.4347 72.2684C53.424 72.2684 53.4147 72.2684 53.404 72.2684C53.3933 72.2684 53.3839 72.2684 53.3732 72.2658C53.3625 72.2658 53.3531 72.2631 53.3438 72.2618C53.3344 72.2605 53.3237 72.2592 53.3144 72.2565C53.305 72.2539 53.2943 72.2526 53.2849 72.2499C53.2756 72.2473 53.2649 72.2447 53.2555 72.242C53.2462 72.2394 53.2368 72.2354 53.2274 72.2328C53.2181 72.2301 53.2087 72.2262 53.1993 72.2222C53.19 72.2182 53.1806 72.2143 53.1713 72.2103C53.1619 72.2064 53.1539 72.2011 53.1445 72.1971C53.1351 72.1918 53.1271 72.1879 53.1178 72.1826C53.1097 72.1773 53.1004 72.172 53.0923 72.1667C53.0843 72.1615 53.0763 72.1548 53.0683 72.1496C53.0602 72.1443 53.0522 72.1377 53.0442 72.1311C53.0362 72.1245 53.0295 72.1179 53.0215 72.1113C53.0134 72.1047 53.0067 72.0967 53.0001 72.0901C52.9907 72.0809 52.9827 72.0716 52.9746 72.0611C52.9666 72.0518 52.9586 72.0413 52.9506 72.032C52.9426 72.0228 52.9359 72.0122 52.9292 72.0016C52.9225 71.9911 52.9158 71.9805 52.9105 71.9699C52.9038 71.9594 52.8984 71.9475 52.8931 71.9369C52.8877 71.9263 52.8824 71.9145 52.8784 71.9026C52.8743 71.8907 52.869 71.8801 52.865 71.8682C52.861 71.8563 52.857 71.8445 52.8543 71.8326C52.8516 71.8207 52.8489 71.8088 52.8463 71.7969C52.8436 71.785 52.8422 71.7731 52.8396 71.7599C52.8382 71.748 52.8369 71.7348 52.8356 71.7229C52.8342 71.7111 52.8356 71.6978 52.8342 71.686C52.8342 71.6741 52.8342 71.6609 52.8342 71.649C52.8342 71.6371 52.8356 71.6239 52.8369 71.612C52.8382 71.6001 52.8409 71.5869 52.8422 71.575C52.8449 71.5631 52.8476 71.5499 52.8503 71.538L53.3398 69.6308L53.8293 67.7235L54.3188 65.8163L54.8083 63.909L55.2978 62.0018L55.7873 60.0946L56.2768 58.1873L56.7663 56.2801L57.2558 54.3728L57.7453 52.4656L58.2348 50.5583L58.7243 48.6511L59.2138 46.7438L59.7033 44.8366L60.1928 42.9293L60.6823 41.0208C60.4978 41.0049 60.3145 40.9838 60.1326 40.96C59.9507 40.9349 59.7702 40.9072 59.591 40.8742C59.4118 40.8411 59.2339 40.8042 59.0573 40.7632C58.8808 40.7223 58.7056 40.676 58.5317 40.6272C58.3579 40.5783 58.1853 40.5242 58.0155 40.466C57.8443 40.4079 57.6758 40.3472 57.5086 40.2811C57.3414 40.2151 57.1756 40.1451 57.0111 40.0724C56.8465 39.9985 56.6847 39.9205 56.5229 39.8387C56.3624 39.7568 56.2032 39.6709 56.0454 39.5811C55.8876 39.4913 55.7325 39.3975 55.5786 39.2998C55.4248 39.202 55.2724 39.1003 55.1226 38.9947C54.9728 38.889 54.8243 38.7794 54.6786 38.6671C54.5328 38.5535 54.3883 38.4373 54.2466 38.3158C54.1048 38.1942 53.9644 38.0701 53.8266 37.942C53.6888 37.8139 53.5524 37.6805 53.4187 37.5444C53.2849 37.4084 53.1539 37.2684 53.0241 37.1244C52.8369 36.9157 52.655 36.7004 52.4785 36.4785C52.3033 36.2566 52.1334 36.0281 51.9702 35.7943C51.8071 35.5606 51.6506 35.3189 51.5008 35.0732C51.351 34.8262 51.2066 34.5752 51.0688 34.3164C50.931 34.0588 50.8 33.796 50.6756 33.5265C50.5512 33.2584 50.4335 32.985 50.3225 32.7063C50.2115 32.4276 50.1072 32.145 50.0095 31.857C49.9119 31.5691 49.821 31.2772 49.7367 30.98C49.6524 30.6828 49.5749 30.3817 49.5053 30.0779C49.4358 29.7741 49.3716 29.4637 49.3154 29.152C49.2592 28.839 49.2098 28.5233 49.1683 28.2037C49.1255 27.884 49.0907 27.5617 49.064 27.2355C49.0372 26.9093 49.0158 26.5817 49.0024 26.2502C48.9891 25.9187 48.9837 25.5845 48.9851 25.249C48.9864 24.9122 48.9958 24.5741 49.0118 24.2333C49.0279 23.8925 49.0519 23.5505 49.0827 23.2057C49.1456 22.5229 49.2365 21.8453 49.3542 21.177C49.4719 20.5086 49.6163 19.8469 49.7862 19.1971C49.956 18.5472 50.15 17.9053 50.368 17.2766C50.586 16.6479 50.8267 16.0298 51.0889 15.4262C51.351 14.8226 51.6359 14.2322 51.9395 13.6576C52.2431 13.0831 52.5681 12.5244 52.9105 11.9828C53.2528 11.4413 53.6139 10.9169 53.9924 10.4124C54.3709 9.90784 54.7655 9.42178 55.1747 8.95686C55.584 8.49193 56.0093 8.04946 56.448 7.62812C56.8867 7.20811 57.3374 6.81054 57.8015 6.43676C58.2656 6.06429 58.7404 5.7156 59.2259 5.39464C59.7113 5.07368 60.2075 4.77914 60.7118 4.51234C61.216 4.24686 61.7282 4.00911 62.2485 3.80175C62.7687 3.59438 63.2944 3.41871 63.8267 3.27342C64.359 3.12945 64.8953 3.01719 65.4369 2.93926C65.9773 2.86133 66.5216 2.81774 67.0686 2.80982C67.2799 2.80322 67.4886 2.80322 67.6972 2.8085C67.9059 2.81378 68.1132 2.82435 68.3191 2.84152C68.5251 2.85869 68.7297 2.88114 68.933 2.90888C69.1363 2.93662 69.3383 2.97096 69.5389 3.00926C69.7395 3.04889 69.9374 3.09379 70.1354 3.14398C70.3333 3.19417 70.5272 3.24965 70.7212 3.31041C70.9151 3.37116 71.1064 3.4372 71.2963 3.50985C71.4862 3.58117 71.6748 3.6591 71.8607 3.74099C72.0466 3.82288 72.2311 3.91005 72.413 4.00383C72.5949 4.09629 72.7741 4.19403 72.952 4.29705C73.1299 4.40007 73.3051 4.50706 73.4776 4.62065C73.6502 4.73292 73.8214 4.85179 73.9885 4.97462C74.1557 5.09746 74.3216 5.22558 74.4847 5.35766C74.6479 5.48974 74.8084 5.6271 74.9662 5.76975C75.124 5.9124 75.2792 6.05901 75.4303 6.20958C75.5828 6.36147 75.7312 6.51733 75.8783 6.67846C76.079 6.89904 76.2729 7.12622 76.4601 7.36132C76.6474 7.59643 76.8266 7.83681 76.9991 8.08512C77.1717 8.33344 77.3375 8.58703 77.4953 8.84723C77.6531 9.10743 77.8043 9.37423 77.9487 9.64632C78.0931 9.91841 78.2296 10.1971 78.358 10.4811C78.4877 10.765 78.6094 11.0543 78.7231 11.3488C78.8368 11.6434 78.9438 11.9432 79.0441 12.247C79.143 12.5521 79.2353 12.8612 79.3196 13.1742C79.4038 13.4885 79.4801 13.8055 79.5496 14.1291C79.6178 14.4514 79.6794 14.7777 79.7329 15.1079C79.7864 15.4381 79.8318 15.7722 79.8693 16.1103C79.9067 16.4485 79.9361 16.7892 79.9575 17.134C79.9789 17.4787 79.9923 17.8261 79.9977 18.1761C80.003 18.5261 80.0003 18.8788 79.9896 19.2354C79.9789 19.5907 79.9602 19.9486 79.9321 20.3092C79.9054 20.6698 79.8693 21.0317 79.8251 21.3962C79.8064 21.5468 79.7877 21.6974 79.7663 21.8479C79.7449 21.9985 79.7235 22.1478 79.6994 22.2983C79.6753 22.4489 79.6499 22.5982 79.6245 22.7474C79.5978 22.8967 79.5697 23.0459 79.5416 23.1952C79.5122 23.3444 79.4814 23.4937 79.4506 23.6416C79.4185 23.7908 79.3851 23.9388 79.3503 24.0867C79.3156 24.2346 79.2795 24.3826 79.242 24.5305C79.2046 24.6784 79.1658 24.825 79.1256 24.973C79.0855 25.1209 79.0441 25.2675 79.0013 25.4128C78.9585 25.5581 78.9143 25.706 78.8689 25.8513C78.8234 25.9966 78.7766 26.1432 78.7298 26.2885C78.6816 26.4338 78.6321 26.5791 78.5826 26.723C78.5318 26.867 78.4797 27.0123 78.4275 27.1549C78.374 27.2989 78.3205 27.4416 78.2643 27.5855C78.2082 27.7282 78.152 27.8708 78.0931 28.0135C78.0343 28.1561 77.9755 28.2974 77.9139 28.4388C77.9019 28.4652 77.8912 28.4929 77.8792 28.5193C77.8671 28.5458 77.8551 28.5722 77.843 28.5999C77.831 28.6263 77.819 28.6527 77.8069 28.6792C77.7949 28.7056 77.7829 28.732 77.7708 28.7584C77.7588 28.7848 77.7468 28.8112 77.7347 28.8376C77.7227 28.8641 77.7106 28.8905 77.6986 28.9169C77.6866 28.9433 77.6745 28.9697 77.6611 28.9961C77.6491 29.0226 77.6357 29.049 77.6237 29.0754C77.6117 29.1018 77.5983 29.1282 77.5863 29.1533C77.5742 29.1797 77.5608 29.2062 77.5488 29.2312C77.5368 29.2577 77.5234 29.2828 77.5114 29.3092C77.4993 29.3356 77.4859 29.3607 77.4739 29.3871C77.4619 29.4135 77.4485 29.4386 77.4351 29.465C77.4217 29.4914 77.4097 29.5165 77.3963 29.543C77.383 29.5694 77.3709 29.5945 77.3576 29.6209C77.3442 29.6473 77.3321 29.6724 77.3188 29.6988L76.0923 32.2942L74.8659 34.8896L73.6395 37.485L72.413 40.0804L71.1866 42.6757L69.9602 45.2711L68.7337 47.8665L67.5073 50.4619L66.2809 53.0573L65.0544 55.6527L63.828 58.2481L62.6016 60.8435L61.3751 63.4388L60.1487 66.0342L58.9223 68.6296L57.6958 71.225C57.6905 71.2356 57.6851 71.2461 57.6798 71.2567C57.6744 71.2673 57.6677 71.2765 57.6624 71.2871C57.6557 71.2963 57.6503 71.3069 57.6423 71.3161C57.6356 71.3254 57.6289 71.3346 57.6209 71.3439C57.6142 71.3531 57.6062 71.361 57.5982 71.3703C57.5902 71.3782 57.5821 71.3875 57.5741 71.3954C57.5661 71.4033 57.5581 71.4112 57.5487 71.4192C57.5393 71.4271 57.5313 71.4337 57.522 71.4416C57.5126 71.4482 57.5032 71.4548 57.4939 71.4614C57.4845 71.468 57.4751 71.4746 57.4644 71.4799C57.4537 71.4852 57.4444 71.4918 57.4337 71.4971C57.423 71.5024 57.4136 71.5077 57.4029 71.5129C57.3922 71.5182 57.3815 71.5222 57.3708 71.5261C57.3601 71.5301 57.3494 71.5341 57.3374 71.538C57.3267 71.542 57.3147 71.5446 57.304 71.5473C57.2919 71.5499 57.2812 71.5526 57.2692 71.5552L57.0378 71.6001L56.8064 71.645L56.575 71.6899L56.3437 71.7348L56.1123 71.7797L55.8809 71.8246L55.6495 71.8696L55.4182 71.9145L55.1868 71.9594L54.9554 72.0043L54.724 72.0492L54.4926 72.0941L54.2613 72.139L54.0299 72.1839L53.7985 72.2288L53.5671 72.2737C53.5671 72.2737 53.5618 72.2737 53.5605 72.275C53.5578 72.275 53.5551 72.275 53.5538 72.2764C53.5511 72.2764 53.5484 72.2764 53.5471 72.2764C53.5444 72.2764 53.5417 72.2764 53.5404 72.2764C53.5377 72.2764 53.535 72.2764 53.5337 72.2764C53.531 72.2764 53.5284 72.2764 53.527 72.2764C53.5243 72.2764 53.5217 72.2764 53.5203 72.2764C53.519 72.2764 53.515 72.2764 53.5136 72.2764C53.5123 72.2764 53.5083 72.2764 53.507 72.2764C53.5043 72.2764 53.5016 72.2764 53.5003 72.2764C53.4976 72.2764 53.4949 72.2764 53.4936 72.2764C53.4909 72.2764 53.4882 72.2764 53.4869 72.2764C53.4856 72.2764 53.4815 72.2764 53.4802 72.2764C53.4775 72.2764 53.4749 72.2764 53.4735 72.2764C53.4708 72.2764 53.4682 72.2764 53.4668 72.2764C53.4655 72.2764 53.4615 72.2764 53.4601 72.2764L53.4347 72.2684ZM67.2157 3.97741H67.1983C67.1983 3.97741 67.193 3.97741 67.189 3.97741H67.1796C67.1796 3.97741 67.1743 3.97741 67.1703 3.97741C67.1676 3.97741 67.1649 3.97741 67.1609 3.97741C67.1582 3.97741 67.1555 3.97741 67.1515 3.97741C67.1489 3.97741 67.1462 3.97741 67.1422 3.97741C67.1395 3.97741 67.1368 3.97741 67.1328 3.97741C67.1301 3.97741 67.1275 3.97741 67.1234 3.97741C67.1208 3.97741 67.1181 3.97741 67.1141 3.97741C67.1114 3.97741 67.1087 3.97741 67.1047 3.97741C67.1021 3.97741 67.0994 3.97741 67.0954 3.97741C67.0927 3.97741 67.09 3.97741 67.086 3.97741C67.0833 3.97741 67.0806 3.97741 67.0766 3.97741C67.074 3.97741 67.0713 3.97741 67.0673 3.97741C66.5577 3.98534 66.0495 4.02628 65.5453 4.10025C65.0411 4.17421 64.5395 4.27988 64.0433 4.41724C63.5471 4.55329 63.0549 4.72103 62.5708 4.91651C62.0853 5.11199 61.6065 5.33784 61.1357 5.5888C60.6649 5.84107 60.2022 6.11976 59.7488 6.42355C59.2954 6.72733 58.8514 7.05754 58.418 7.41019C57.9847 7.76285 57.5634 8.13928 57.1542 8.53816C56.7449 8.93704 56.3477 9.35706 55.9652 9.79689C55.5827 10.2367 55.2135 10.6977 54.8604 11.1758C54.5074 11.6539 54.169 12.1506 53.8493 12.663C53.5284 13.1755 53.2261 13.7052 52.9412 14.2493C52.6563 14.7935 52.3902 15.3522 52.1441 15.9241C51.898 16.496 51.6733 17.0811 51.4687 17.6768C51.2654 18.2725 51.0822 18.8801 50.9244 19.4969C50.7665 20.1137 50.6301 20.7398 50.5191 21.3724C50.4081 22.0064 50.3225 22.647 50.2623 23.2942C50.2329 23.6178 50.2102 23.9401 50.1954 24.2611C50.1794 24.582 50.1714 24.9003 50.17 25.216C50.1687 25.5317 50.174 25.846 50.1861 26.1564C50.1981 26.4668 50.2168 26.7759 50.2423 27.0823C50.2677 27.3874 50.2998 27.6912 50.3386 27.9897C50.3773 28.2895 50.4228 28.5854 50.475 28.8786C50.5271 29.1718 50.5846 29.4611 50.6502 29.7464C50.7157 30.0317 50.7866 30.3143 50.8642 30.5917C50.9417 30.8691 51.026 31.1425 51.1156 31.4119C51.2066 31.6813 51.3028 31.9455 51.4058 32.2057C51.5088 32.4659 51.6171 32.7208 51.7322 32.9718C51.8472 33.2227 51.9689 33.4684 52.096 33.7088C52.223 33.9492 52.3568 34.1843 52.4958 34.4141C52.6349 34.6439 52.7807 34.8671 52.9319 35.0851C53.083 35.303 53.2395 35.5156 53.4026 35.7217C53.5658 35.9277 53.7343 36.1272 53.9082 36.3213C54.0339 36.4613 54.1623 36.5974 54.2934 36.7295C54.4244 36.8616 54.5568 36.9897 54.6919 37.1138C54.827 37.238 54.9648 37.3582 55.1039 37.4744C55.243 37.5906 55.3847 37.7016 55.5278 37.8099C55.6709 37.9182 55.8167 38.0212 55.9638 38.1216C56.111 38.2207 56.2607 38.3171 56.4119 38.4082C56.563 38.4994 56.7168 38.5865 56.872 38.6697C57.0271 38.7529 57.1836 38.8309 57.3427 38.9062C57.5019 38.9814 57.661 39.0515 57.8242 39.1175C57.986 39.1835 58.1506 39.2456 58.3151 39.3024C58.4809 39.3605 58.6467 39.4134 58.8153 39.4622C58.9838 39.5111 59.1536 39.556 59.3248 39.5956C59.496 39.6352 59.6685 39.6722 59.8438 39.7026C60.019 39.733 60.1942 39.7607 60.3707 39.7832C60.5472 39.8056 60.7265 39.8241 60.9057 39.8373C61.0849 39.8505 61.2668 39.8598 61.4487 39.8651C61.4594 39.8651 61.4714 39.8651 61.4821 39.8664C61.4928 39.8664 61.5049 39.869 61.5156 39.8704C61.5263 39.8717 61.5383 39.8743 61.549 39.8756C61.5597 39.8783 61.5704 39.8796 61.5811 39.8836C61.5918 39.8862 61.6025 39.8888 61.6132 39.8928C61.6239 39.8968 61.6346 39.8994 61.6439 39.9034C61.6546 39.9073 61.664 39.9113 61.6747 39.9166C61.6854 39.9205 61.6948 39.9258 61.7041 39.9311C61.7135 39.9364 61.7242 39.9417 61.7336 39.947C61.7429 39.9522 61.7523 39.9588 61.7616 39.9641C61.771 39.9694 61.7804 39.976 61.7884 39.9826C61.7978 39.9892 61.8058 39.9958 61.8151 40.0038C61.8232 40.0104 61.8325 40.0183 61.8406 40.0262C61.8486 40.0341 61.8566 40.0421 61.8646 40.05C61.8726 40.0579 61.8793 40.0658 61.8874 40.0751C61.8941 40.083 61.9021 40.0922 61.9088 40.1015C61.9155 40.1107 61.9221 40.12 61.9288 40.1292C61.9355 40.1385 61.9409 40.1477 61.9475 40.157C61.9529 40.1662 61.9582 40.1768 61.9636 40.186C61.9689 40.1953 61.9743 40.2058 61.9783 40.2164C61.9823 40.227 61.9877 40.2362 61.9917 40.2468C61.9957 40.2573 61.9997 40.2679 62.0024 40.2785C62.0064 40.289 62.0091 40.2996 62.0117 40.3102C62.0144 40.3207 62.0171 40.3313 62.0198 40.3419C62.0224 40.3524 62.0238 40.363 62.0251 40.3749C62.0265 40.3868 62.0278 40.396 62.0291 40.4079C62.0291 40.4185 62.0305 40.4304 62.0305 40.4409C62.0305 40.4515 62.0305 40.4634 62.0305 40.474C62.0305 40.4845 62.0305 40.4964 62.0291 40.507C62.0291 40.5175 62.0265 40.5294 62.0251 40.54C62.0238 40.5506 62.0211 40.5625 62.0198 40.573C62.0171 40.5836 62.0144 40.5955 62.0117 40.606L61.5263 42.5001L61.0408 44.3941L60.5553 46.2882L60.0698 48.1822L59.5843 50.0762L59.0988 51.9703L58.6133 53.8643L58.1278 55.7583L57.6423 57.6524L57.1568 59.5464L56.6713 61.4405L56.1858 63.3345L55.7004 65.2285L55.2149 67.1226L54.7294 69.0166L54.2439 70.9106L54.399 70.8803L54.5542 70.8499L54.7093 70.8195L54.8645 70.7891L55.0196 70.7587L55.1747 70.7284L55.3299 70.698L55.485 70.6676L55.6402 70.6372L55.7953 70.6069L55.9505 70.5765L56.1056 70.5461L56.2607 70.5157L56.4159 70.4853L56.571 70.455L56.7262 70.4246L57.9459 67.8464L59.1657 65.2682L60.3854 62.6899L61.6052 60.1117L62.8249 57.5335L64.0447 54.9553L65.2644 52.3771L66.4842 49.7989L67.7039 47.2206L68.9236 44.6424L70.1434 42.0642L71.3631 39.486L72.5829 36.9078L73.8026 34.3296L75.0224 31.7514L76.2421 29.1731C76.2542 29.148 76.2675 29.1229 76.2796 29.0978C76.2916 29.0728 76.305 29.0477 76.317 29.0226C76.3291 28.9975 76.3424 28.9724 76.3545 28.9473C76.3665 28.9222 76.3799 28.8971 76.3919 28.872C76.404 28.8469 76.416 28.8218 76.4294 28.7967C76.4414 28.7716 76.4534 28.7465 76.4655 28.7214C76.4775 28.6963 76.4896 28.6712 76.5016 28.6461C76.5136 28.621 76.5257 28.5959 76.5377 28.5708C76.5497 28.5458 76.5618 28.5207 76.5738 28.4956C76.5858 28.4705 76.5979 28.4454 76.6099 28.4203C76.622 28.3952 76.634 28.3701 76.6447 28.345C76.6567 28.3199 76.6674 28.2948 76.6795 28.2697C76.6915 28.2446 76.7022 28.2195 76.7142 28.1944C76.7263 28.1693 76.737 28.1442 76.7477 28.1178C76.7584 28.0927 76.7704 28.0676 76.7811 28.0412C76.7918 28.0148 76.8039 27.9897 76.8146 27.9646C76.8734 27.8299 76.9296 27.6938 76.9857 27.5591C77.0419 27.4231 77.0954 27.287 77.1489 27.151C77.2024 27.0149 77.2546 26.8776 77.3054 26.7402C77.3562 26.6028 77.4057 26.4655 77.4538 26.3281C77.502 26.1908 77.5488 26.0521 77.5943 25.9134C77.6398 25.7747 77.6839 25.636 77.728 25.4973C77.7708 25.3586 77.8136 25.2186 77.8537 25.0786C77.8939 24.9386 77.934 24.7986 77.9714 24.6586C78.0089 24.5186 78.0463 24.3773 78.0824 24.2373C78.1186 24.0973 78.152 23.9559 78.1854 23.8133C78.2189 23.672 78.2496 23.5306 78.2804 23.388C78.3111 23.2467 78.3406 23.104 78.3673 22.9614C78.3954 22.8187 78.4222 22.6761 78.4476 22.5334C78.473 22.3908 78.4971 22.2481 78.5198 22.1055C78.5425 21.9628 78.5639 21.8189 78.584 21.6762C78.604 21.5323 78.6228 21.3896 78.6402 21.2456C78.6816 20.9022 78.7151 20.5615 78.7405 20.2233C78.7659 19.8839 78.7846 19.5471 78.7953 19.2129C78.806 18.8788 78.8087 18.5459 78.8047 18.217C78.8007 17.8882 78.7886 17.5619 78.7686 17.2383C78.7485 16.9147 78.7217 16.5951 78.687 16.2781C78.6522 15.9611 78.6107 15.6481 78.5613 15.3377C78.5118 15.0273 78.4556 14.7209 78.3927 14.4197C78.3299 14.1173 78.259 13.8187 78.1801 13.5255C78.1025 13.231 78.0169 12.9417 77.926 12.6564C77.835 12.3711 77.7347 12.0911 77.6291 11.8164C77.5234 11.5404 77.4097 11.2709 77.2907 11.0054C77.1717 10.7399 77.0446 10.4797 76.9108 10.2262C76.7771 9.97124 76.6367 9.72293 76.4909 9.4799C76.3438 9.23687 76.19 9.00044 76.0308 8.7693C75.8703 8.53816 75.7045 8.31362 75.5306 8.09569C75.3567 7.87776 75.1775 7.66643 74.9916 7.4617C74.8619 7.31906 74.7308 7.18169 74.5957 7.04829C74.462 6.91489 74.3256 6.78545 74.1865 6.65997C74.0474 6.5345 73.907 6.4143 73.7639 6.29675C73.6207 6.18052 73.475 6.06825 73.3278 5.95994C73.1807 5.85164 73.0309 5.74862 72.8798 5.64823C72.7287 5.54785 72.5749 5.45408 72.4184 5.36294C72.2632 5.2718 72.1054 5.18595 71.9463 5.10406C71.7871 5.02217 71.6253 4.94424 71.4621 4.8716C71.2989 4.79896 71.1344 4.73027 70.9673 4.66555C70.8001 4.60083 70.6316 4.5414 70.4617 4.48724C70.2919 4.43177 70.1193 4.38158 69.9454 4.33535C69.7716 4.28912 69.5964 4.24818 69.4198 4.2112C69.2433 4.17421 69.0654 4.14119 68.8849 4.11346C68.7056 4.08572 68.5238 4.06194 68.3405 4.04345C68.1573 4.02496 67.9741 4.01043 67.7882 4.00119C67.6023 3.99194 67.4163 3.98666 67.2278 3.98666L67.2157 3.97741Z" fill="#41D9D9"/>
</svg>
